%FSLAX23Y23*%
%MOIN*%
G70*
G01*
G75*
%ADD10C,0.010*%
%ADD11C,0.050*%
%ADD12R,0.157X0.079*%
%ADD13R,0.100X0.080*%
%ADD14C,0.012*%
%ADD15C,0.015*%
%ADD16C,0.008*%
%ADD17C,0.006*%
%ADD18C,0.009*%
%ADD19C,0.070*%
%ADD20R,0.070X0.070*%
%ADD21C,0.217*%
%ADD22C,0.217*%
%ADD23C,0.058*%
%ADD24C,0.100*%
%ADD25C,0.118*%
%ADD26R,0.118X0.118*%
%ADD27C,0.040*%
%ADD28R,0.083X0.060*%
%ADD29R,0.060X0.083*%
%ADD30R,0.157X0.079*%
%ADD31R,0.036X0.036*%
%ADD32R,0.036X0.050*%
%ADD33R,0.064X0.054*%
%ADD34R,0.060X0.083*%
%ADD35R,0.031X0.102*%
%ADD36O,0.031X0.102*%
%ADD37R,0.054X0.064*%
%ADD38O,0.031X0.087*%
%ADD39R,0.031X0.087*%
%ADD40R,0.197X0.244*%
%ADD41R,0.060X0.050*%
%ADD42C,0.016*%
%ADD43C,0.079*%
%ADD44C,0.010*%
%ADD45C,0.016*%
%ADD46C,0.039*%
%ADD47C,0.008*%
%ADD48R,0.591X0.354*%
%ADD49C,0.008*%
%ADD50C,0.003*%
%ADD51C,0.005*%
%ADD52R,0.165X0.087*%
%ADD53R,0.108X0.088*%
%ADD54C,0.078*%
%ADD55R,0.078X0.078*%
%ADD56C,0.225*%
%ADD57C,0.225*%
%ADD58C,0.066*%
%ADD59C,0.108*%
%ADD60C,0.126*%
%ADD61R,0.126X0.126*%
%ADD62R,0.091X0.068*%
%ADD63R,0.068X0.091*%
%ADD64R,0.165X0.087*%
%ADD65R,0.044X0.044*%
%ADD66R,0.044X0.058*%
%ADD67R,0.072X0.062*%
%ADD68R,0.068X0.091*%
%ADD69R,0.039X0.110*%
%ADD70O,0.039X0.110*%
%ADD71R,0.062X0.072*%
%ADD72O,0.039X0.095*%
%ADD73R,0.039X0.095*%
%ADD74R,0.205X0.252*%
%ADD75R,0.068X0.058*%
%ADD76C,0.025*%
%ADD77C,0.031*%
%ADD78C,0.007*%
D10*
X11550Y7632D02*
Y7572D01*
X11580D01*
X11590Y7582D01*
Y7622D01*
X11580Y7632D01*
X11550D01*
X11610Y7612D02*
Y7572D01*
Y7592D01*
X11620Y7602D01*
X11630Y7612D01*
X11640D01*
X11670Y7572D02*
X11690D01*
X11680D01*
Y7612D01*
X11670D01*
X11720Y7572D02*
X11740D01*
X11730D01*
Y7632D01*
X11720D01*
X11770Y7572D02*
X11790D01*
X11780D01*
Y7632D01*
X11770D01*
X11879D02*
Y7572D01*
X11909D01*
X11919Y7582D01*
Y7622D01*
X11909Y7632D01*
X11879D01*
X11939Y7612D02*
Y7572D01*
Y7592D01*
X11949Y7602D01*
X11959Y7612D01*
X11969D01*
X12009D02*
X12029D01*
X12039Y7602D01*
Y7572D01*
X12009D01*
X11999Y7582D01*
X12009Y7592D01*
X12039D01*
X12059Y7612D02*
Y7582D01*
X12069Y7572D01*
X12079Y7582D01*
X12089Y7572D01*
X12099Y7582D01*
Y7612D01*
X12119Y7572D02*
X12139D01*
X12129D01*
Y7612D01*
X12119D01*
X12169Y7572D02*
Y7612D01*
X12199D01*
X12209Y7602D01*
Y7572D01*
X12249Y7552D02*
X12259D01*
X12269Y7562D01*
Y7612D01*
X12239D01*
X12229Y7602D01*
Y7582D01*
X12239Y7572D01*
X12269D01*
X12289D02*
Y7582D01*
X12299D01*
Y7572D01*
X12289D01*
X11800Y8272D02*
X11760D01*
X11800Y8312D01*
Y8322D01*
X11790Y8332D01*
X11770D01*
X11760Y8322D01*
X11820D02*
X11830Y8332D01*
X11850D01*
X11860Y8322D01*
Y8312D01*
X11850Y8302D01*
X11860Y8292D01*
Y8282D01*
X11850Y8272D01*
X11830D01*
X11820Y8282D01*
Y8292D01*
X11830Y8302D01*
X11820Y8312D01*
Y8322D01*
X11830Y8302D02*
X11850D01*
X12290Y8272D02*
X12250D01*
X12290Y8312D01*
Y8322D01*
X12280Y8332D01*
X12260D01*
X12250Y8322D01*
X12340Y8272D02*
Y8332D01*
X12310Y8302D01*
X12350D01*
X12370Y8272D02*
Y8312D01*
X12380D01*
X12390Y8302D01*
Y8272D01*
Y8302D01*
X12400Y8312D01*
X12410Y8302D01*
Y8272D01*
X12430D02*
X12450D01*
X12440D01*
Y8312D01*
X12430D01*
X12480Y8272D02*
X12500D01*
X12490D01*
Y8332D01*
X12480D01*
X12950Y8322D02*
X12960Y8332D01*
X12980D01*
X12990Y8322D01*
Y8282D01*
X12980Y8272D01*
X12960D01*
X12950Y8282D01*
Y8322D01*
X13010Y8272D02*
Y8282D01*
X13020D01*
Y8272D01*
X13010D01*
X13100Y8332D02*
X13080Y8322D01*
X13060Y8302D01*
Y8282D01*
X13070Y8272D01*
X13090D01*
X13100Y8282D01*
Y8292D01*
X13090Y8302D01*
X13060D01*
X13120Y8322D02*
X13130Y8332D01*
X13150D01*
X13160Y8322D01*
Y8282D01*
X13150Y8272D01*
X13130D01*
X13120Y8282D01*
Y8322D01*
X13180Y8282D02*
X13190Y8272D01*
X13210D01*
X13220Y8282D01*
Y8322D01*
X13210Y8332D01*
X13190D01*
X13180Y8322D01*
Y8312D01*
X13190Y8302D01*
X13220D01*
X13279Y8332D02*
X13259Y8322D01*
X13240Y8302D01*
Y8282D01*
X13250Y8272D01*
X13269D01*
X13279Y8282D01*
Y8292D01*
X13269Y8302D01*
X13240D01*
X13299Y8272D02*
Y8312D01*
X13309D01*
X13319Y8302D01*
Y8272D01*
Y8302D01*
X13329Y8312D01*
X13339Y8302D01*
Y8272D01*
X13359D02*
Y8312D01*
X13369D01*
X13379Y8302D01*
Y8272D01*
Y8302D01*
X13389Y8312D01*
X13399Y8302D01*
Y8272D01*
X13650D02*
Y8332D01*
X13680D01*
X13690Y8322D01*
Y8302D01*
X13680Y8292D01*
X13650D01*
X13710Y8332D02*
X13750D01*
X13730D01*
Y8272D01*
X13770Y8332D02*
Y8272D01*
Y8302D01*
X13810D01*
Y8332D01*
Y8272D01*
X11790Y8152D02*
Y8212D01*
X11760Y8182D01*
X11800D01*
X12250Y8202D02*
X12260Y8212D01*
X12280D01*
X12290Y8202D01*
Y8192D01*
X12280Y8182D01*
X12270D01*
X12280D01*
X12290Y8172D01*
Y8162D01*
X12280Y8152D01*
X12260D01*
X12250Y8162D01*
X12350Y8212D02*
X12310D01*
Y8182D01*
X12330Y8192D01*
X12340D01*
X12350Y8182D01*
Y8162D01*
X12340Y8152D01*
X12320D01*
X12310Y8162D01*
X12370Y8152D02*
Y8192D01*
X12380D01*
X12390Y8182D01*
Y8152D01*
Y8182D01*
X12400Y8192D01*
X12410Y8182D01*
Y8152D01*
X12430D02*
X12450D01*
X12440D01*
Y8192D01*
X12430D01*
X12480Y8152D02*
X12500D01*
X12490D01*
Y8212D01*
X12480D01*
X12950Y8202D02*
X12960Y8212D01*
X12980D01*
X12990Y8202D01*
Y8162D01*
X12980Y8152D01*
X12960D01*
X12950Y8162D01*
Y8202D01*
X13010Y8152D02*
Y8162D01*
X13020D01*
Y8152D01*
X13010D01*
X13060Y8202D02*
X13070Y8212D01*
X13090D01*
X13100Y8202D01*
Y8192D01*
X13090Y8182D01*
X13100Y8172D01*
Y8162D01*
X13090Y8152D01*
X13070D01*
X13060Y8162D01*
Y8172D01*
X13070Y8182D01*
X13060Y8192D01*
Y8202D01*
X13070Y8182D02*
X13090D01*
X13120Y8202D02*
X13130Y8212D01*
X13150D01*
X13160Y8202D01*
Y8192D01*
X13150Y8182D01*
X13160Y8172D01*
Y8162D01*
X13150Y8152D01*
X13130D01*
X13120Y8162D01*
Y8172D01*
X13130Y8182D01*
X13120Y8192D01*
Y8202D01*
X13130Y8182D02*
X13150D01*
X13180Y8162D02*
X13190Y8152D01*
X13210D01*
X13220Y8162D01*
Y8202D01*
X13210Y8212D01*
X13190D01*
X13180Y8202D01*
Y8192D01*
X13190Y8182D01*
X13220D01*
X13240Y8152D02*
Y8192D01*
X13250D01*
X13259Y8182D01*
Y8152D01*
Y8182D01*
X13269Y8192D01*
X13279Y8182D01*
Y8152D01*
X13299D02*
Y8192D01*
X13309D01*
X13319Y8182D01*
Y8152D01*
Y8182D01*
X13329Y8192D01*
X13339Y8182D01*
Y8152D01*
X13650D02*
Y8212D01*
X13680D01*
X13690Y8202D01*
Y8182D01*
X13680Y8172D01*
X13650D01*
X13710Y8212D02*
X13750D01*
X13730D01*
Y8152D01*
X13770Y8212D02*
Y8152D01*
Y8182D01*
X13810D01*
Y8212D01*
Y8152D01*
X11760Y8032D02*
X11780D01*
X11770D01*
Y8092D01*
X11760Y8082D01*
X11850Y8092D02*
X11810D01*
Y8062D01*
X11830Y8072D01*
X11840D01*
X11850Y8062D01*
Y8042D01*
X11840Y8032D01*
X11820D01*
X11810Y8042D01*
X12280Y8032D02*
Y8092D01*
X12250Y8062D01*
X12290D01*
X12310Y8082D02*
X12320Y8092D01*
X12340D01*
X12350Y8082D01*
Y8042D01*
X12340Y8032D01*
X12320D01*
X12310Y8042D01*
Y8082D01*
X12370Y8032D02*
Y8072D01*
X12380D01*
X12390Y8062D01*
Y8032D01*
Y8062D01*
X12400Y8072D01*
X12410Y8062D01*
Y8032D01*
X12430D02*
X12450D01*
X12440D01*
Y8072D01*
X12430D01*
X12480Y8032D02*
X12500D01*
X12490D01*
Y8092D01*
X12480D01*
X12950Y8032D02*
X12970D01*
X12960D01*
Y8092D01*
X12950Y8082D01*
X13000Y8032D02*
Y8042D01*
X13010D01*
Y8032D01*
X13000D01*
X13050Y8082D02*
X13060Y8092D01*
X13080D01*
X13090Y8082D01*
Y8042D01*
X13080Y8032D01*
X13060D01*
X13050Y8042D01*
Y8082D01*
X13110Y8032D02*
X13130D01*
X13120D01*
Y8092D01*
X13110Y8082D01*
X13200Y8092D02*
X13180Y8082D01*
X13160Y8062D01*
Y8042D01*
X13170Y8032D01*
X13190D01*
X13200Y8042D01*
Y8052D01*
X13190Y8062D01*
X13160D01*
X13220Y8032D02*
Y8072D01*
X13230D01*
X13240Y8062D01*
Y8032D01*
Y8062D01*
X13250Y8072D01*
X13259Y8062D01*
Y8032D01*
X13279D02*
Y8072D01*
X13289D01*
X13299Y8062D01*
Y8032D01*
Y8062D01*
X13309Y8072D01*
X13319Y8062D01*
Y8032D01*
X13650D02*
Y8092D01*
X13680D01*
X13690Y8082D01*
Y8062D01*
X13680Y8052D01*
X13650D01*
X13710Y8092D02*
X13750D01*
X13730D01*
Y8032D01*
X13770Y8092D02*
Y8032D01*
Y8062D01*
X13810D01*
Y8092D01*
Y8032D01*
X11760Y7962D02*
X11770Y7972D01*
X11790D01*
X11800Y7962D01*
Y7952D01*
X11790Y7942D01*
X11780D01*
X11790D01*
X11800Y7932D01*
Y7922D01*
X11790Y7912D01*
X11770D01*
X11760Y7922D01*
X12290Y7972D02*
X12250D01*
Y7942D01*
X12270Y7952D01*
X12280D01*
X12290Y7942D01*
Y7922D01*
X12280Y7912D01*
X12260D01*
X12250Y7922D01*
X12310Y7962D02*
X12320Y7972D01*
X12340D01*
X12350Y7962D01*
Y7952D01*
X12340Y7942D01*
X12350Y7932D01*
Y7922D01*
X12340Y7912D01*
X12320D01*
X12310Y7922D01*
Y7932D01*
X12320Y7942D01*
X12310Y7952D01*
Y7962D01*
X12320Y7942D02*
X12340D01*
X12370Y7912D02*
Y7952D01*
X12380D01*
X12390Y7942D01*
Y7912D01*
Y7942D01*
X12400Y7952D01*
X12410Y7942D01*
Y7912D01*
X12430D02*
X12450D01*
X12440D01*
Y7952D01*
X12430D01*
X12480Y7912D02*
X12500D01*
X12490D01*
Y7972D01*
X12480D01*
X12950Y7912D02*
X12970D01*
X12960D01*
Y7972D01*
X12950Y7962D01*
X13000Y7912D02*
Y7922D01*
X13010D01*
Y7912D01*
X13000D01*
X13080D02*
Y7972D01*
X13050Y7942D01*
X13090D01*
X13110Y7972D02*
X13150D01*
Y7962D01*
X13110Y7922D01*
Y7912D01*
X13170Y7962D02*
X13180Y7972D01*
X13200D01*
X13210Y7962D01*
Y7952D01*
X13200Y7942D01*
X13190D01*
X13200D01*
X13210Y7932D01*
Y7922D01*
X13200Y7912D01*
X13180D01*
X13170Y7922D01*
X13269Y7912D02*
X13230D01*
X13269Y7952D01*
Y7962D01*
X13259Y7972D01*
X13240D01*
X13230Y7962D01*
X13289Y7912D02*
Y7952D01*
X13299D01*
X13309Y7942D01*
Y7912D01*
Y7942D01*
X13319Y7952D01*
X13329Y7942D01*
Y7912D01*
X13349D02*
Y7952D01*
X13359D01*
X13369Y7942D01*
Y7912D01*
Y7942D01*
X13379Y7952D01*
X13389Y7942D01*
Y7912D01*
X13650D02*
Y7972D01*
X13690Y7912D01*
Y7972D01*
X13710Y7912D02*
Y7972D01*
X13740D01*
X13750Y7962D01*
Y7942D01*
X13740Y7932D01*
X13710D01*
X13770Y7972D02*
X13810D01*
X13790D01*
Y7912D01*
X13830Y7972D02*
Y7912D01*
Y7942D01*
X13870D01*
Y7972D01*
Y7912D01*
X11760Y7842D02*
X11770Y7852D01*
X11790D01*
X11800Y7842D01*
Y7832D01*
X11790Y7822D01*
X11780D01*
X11790D01*
X11800Y7812D01*
Y7802D01*
X11790Y7792D01*
X11770D01*
X11760Y7802D01*
X12250Y7792D02*
X12270D01*
X12260D01*
Y7852D01*
X12250Y7842D01*
X12340Y7792D02*
X12300D01*
X12340Y7832D01*
Y7842D01*
X12330Y7852D01*
X12310D01*
X12300Y7842D01*
X12400Y7852D02*
X12360D01*
Y7822D01*
X12380Y7832D01*
X12390D01*
X12400Y7822D01*
Y7802D01*
X12390Y7792D01*
X12370D01*
X12360Y7802D01*
X12420Y7792D02*
Y7802D01*
X12430D01*
Y7792D01*
X12420D01*
X12470Y7802D02*
X12480Y7792D01*
X12500D01*
X12510Y7802D01*
Y7842D01*
X12500Y7852D01*
X12480D01*
X12470Y7842D01*
Y7832D01*
X12480Y7822D01*
X12510D01*
X12530Y7842D02*
X12540Y7852D01*
X12559D01*
X12569Y7842D01*
Y7832D01*
X12559Y7822D01*
X12569Y7812D01*
Y7802D01*
X12559Y7792D01*
X12540D01*
X12530Y7802D01*
Y7812D01*
X12540Y7822D01*
X12530Y7832D01*
Y7842D01*
X12540Y7822D02*
X12559D01*
X12619Y7792D02*
Y7852D01*
X12589Y7822D01*
X12629D01*
X12649Y7792D02*
Y7832D01*
X12659D01*
X12669Y7822D01*
Y7792D01*
Y7822D01*
X12679Y7832D01*
X12689Y7822D01*
Y7792D01*
X12709D02*
X12729D01*
X12719D01*
Y7832D01*
X12709D01*
X12759Y7792D02*
X12779D01*
X12769D01*
Y7852D01*
X12759D01*
X12950Y7842D02*
X12960Y7852D01*
X12980D01*
X12990Y7842D01*
Y7832D01*
X12980Y7822D01*
X12970D01*
X12980D01*
X12990Y7812D01*
Y7802D01*
X12980Y7792D01*
X12960D01*
X12950Y7802D01*
X13010Y7792D02*
Y7802D01*
X13020D01*
Y7792D01*
X13010D01*
X13100D02*
X13060D01*
X13100Y7832D01*
Y7842D01*
X13090Y7852D01*
X13070D01*
X13060Y7842D01*
X13120Y7792D02*
Y7832D01*
X13130D01*
X13140Y7822D01*
Y7792D01*
Y7822D01*
X13150Y7832D01*
X13160Y7822D01*
Y7792D01*
X13180D02*
Y7832D01*
X13190D01*
X13200Y7822D01*
Y7792D01*
Y7822D01*
X13210Y7832D01*
X13220Y7822D01*
Y7792D01*
X13650D02*
Y7852D01*
X13680D01*
X13690Y7842D01*
Y7822D01*
X13680Y7812D01*
X13650D01*
X13710Y7852D02*
X13750D01*
X13730D01*
Y7792D01*
X13770Y7852D02*
Y7792D01*
Y7822D01*
X13810D01*
Y7852D01*
Y7792D01*
X11800Y7732D02*
X11760D01*
Y7702D01*
X11780Y7712D01*
X11790D01*
X11800Y7702D01*
Y7682D01*
X11790Y7672D01*
X11770D01*
X11760Y7682D01*
X11820Y7722D02*
X11830Y7732D01*
X11850D01*
X11860Y7722D01*
Y7712D01*
X11850Y7702D01*
X11840D01*
X11850D01*
X11860Y7692D01*
Y7682D01*
X11850Y7672D01*
X11830D01*
X11820Y7682D01*
X12250Y7732D02*
X12290D01*
X12270D01*
Y7672D01*
X12320D02*
X12340D01*
X12350Y7682D01*
Y7702D01*
X12340Y7712D01*
X12320D01*
X12310Y7702D01*
Y7682D01*
X12320Y7672D01*
X12380Y7722D02*
Y7712D01*
X12370D01*
X12390D01*
X12380D01*
Y7682D01*
X12390Y7672D01*
X12430Y7712D02*
X12450D01*
X12460Y7702D01*
Y7672D01*
X12430D01*
X12420Y7682D01*
X12430Y7692D01*
X12460D01*
X12480Y7672D02*
X12500D01*
X12490D01*
Y7732D01*
X12480D01*
D50*
X9933Y8732D02*
Y8772D01*
X9973D01*
Y8732D01*
X9933D01*
X9833D02*
Y8772D01*
X9873D01*
Y8732D01*
X9833D01*
X9733D02*
Y8772D01*
X9773D01*
Y8732D01*
X9733D01*
X9633D02*
Y8772D01*
X9673D01*
Y8732D01*
X9633D01*
X9533D02*
Y8772D01*
X9573D01*
Y8732D01*
X9533D01*
X8418Y7682D02*
X8398Y7722D01*
X8438D01*
X8418Y7682D01*
X10908Y8747D02*
X10888Y8787D01*
X10928D01*
X10908Y8747D01*
X10803Y8687D02*
Y8727D01*
X10843D01*
Y8687D01*
X10803D01*
Y8587D02*
Y8627D01*
X10843D01*
Y8587D01*
X10803D01*
Y8487D02*
Y8527D01*
X10843D01*
Y8487D01*
X10803D01*
Y8387D02*
Y8427D01*
X10843D01*
Y8387D01*
X10803D01*
Y8287D02*
Y8327D01*
X10843D01*
Y8287D01*
X10803D01*
Y8187D02*
Y8227D01*
X10843D01*
Y8187D01*
X10803D01*
Y7987D02*
Y8027D01*
X10843D01*
Y7987D01*
X10803D01*
Y8087D02*
Y8127D01*
X10843D01*
Y8087D01*
X10803D01*
X8548Y8762D02*
X8528Y8802D01*
X8568D01*
X8548Y8762D01*
X9288Y7912D02*
X9298Y7922D01*
X9308D01*
X9298Y7932D01*
X9308Y7942D01*
X9298D01*
X9288Y7952D01*
X9278Y7942D01*
X9268D01*
X9278Y7932D01*
X9268Y7922D01*
X9278D01*
X9288Y7912D01*
X9088D02*
X9098Y7922D01*
X9108D01*
X9098Y7932D01*
X9108Y7942D01*
X9098D01*
X9088Y7952D01*
X9078Y7942D01*
X9068D01*
X9078Y7932D01*
X9068Y7922D01*
X9078D01*
X9088Y7912D01*
X9318Y8547D02*
X9328Y8557D01*
X9338D01*
X9328Y8567D01*
X9338Y8577D01*
X9328D01*
X9318Y8587D01*
X9308Y8577D01*
X9298D01*
X9308Y8567D01*
X9298Y8557D01*
X9308D01*
X9318Y8547D01*
X9018D02*
X9028Y8557D01*
X9038D01*
X9028Y8567D01*
X9038Y8577D01*
X9028D01*
X9018Y8587D01*
X9008Y8577D01*
X8998D01*
X9008Y8567D01*
X8998Y8557D01*
X9008D01*
X9018Y8547D01*
X10178Y7854D02*
Y7894D01*
X10218D01*
Y7854D01*
X10178D01*
Y8642D02*
Y8682D01*
X10218D01*
Y8642D01*
X10178D01*
X9108Y8112D02*
X9118Y8132D01*
X9108Y8152D01*
X9128Y8142D01*
X9148Y8152D01*
X9138Y8132D01*
X9148Y8112D01*
X9128Y8122D01*
X9108Y8112D01*
X8883Y7897D02*
X8893Y7917D01*
X8883Y7937D01*
X8903Y7927D01*
X8923Y7937D01*
X8913Y7917D01*
X8923Y7897D01*
X8903Y7907D01*
X8883Y7897D01*
X8888Y8017D02*
X8898Y8037D01*
X8888Y8057D01*
X8908Y8047D01*
X8928Y8057D01*
X8918Y8037D01*
X8928Y8017D01*
X8908Y8027D01*
X8888Y8017D01*
X9018Y8167D02*
X9028Y8187D01*
X9018Y8207D01*
X9038Y8197D01*
X9058Y8207D01*
X9048Y8187D01*
X9058Y8167D01*
X9038Y8177D01*
X9018Y8167D01*
X7997Y8232D02*
X8007Y8252D01*
X7997Y8272D01*
X8017Y8262D01*
X8037Y8272D01*
X8027Y8252D01*
X8037Y8232D01*
X8017Y8242D01*
X7997Y8232D01*
X9463Y8512D02*
X9473Y8532D01*
X9463Y8552D01*
X9483Y8542D01*
X9503Y8552D01*
X9493Y8532D01*
X9503Y8512D01*
X9483Y8522D01*
X9463Y8512D01*
X8568Y8392D02*
X8578Y8412D01*
X8568Y8432D01*
X8588Y8422D01*
X8608Y8432D01*
X8598Y8412D01*
X8608Y8392D01*
X8588Y8402D01*
X8568Y8392D01*
X9118Y8332D02*
X9128Y8352D01*
X9118Y8372D01*
X9138Y8362D01*
X9158Y8372D01*
X9148Y8352D01*
X9158Y8332D01*
X9138Y8342D01*
X9118Y8332D01*
X9348Y8110D02*
X9358Y8130D01*
X9348Y8150D01*
X9368Y8140D01*
X9388Y8150D01*
X9378Y8130D01*
X9388Y8110D01*
X9368Y8120D01*
X9348Y8110D01*
X9728Y8014D02*
X9738Y8034D01*
X9728Y8054D01*
X9748Y8044D01*
X9768Y8054D01*
X9758Y8034D01*
X9768Y8014D01*
X9748Y8024D01*
X9728Y8014D01*
X8265Y8352D02*
X8275Y8372D01*
X8265Y8392D01*
X8285Y8382D01*
X8305Y8392D01*
X8295Y8372D01*
X8305Y8352D01*
X8285Y8362D01*
X8265Y8352D01*
X8408Y8632D02*
X8418Y8652D01*
X8408Y8672D01*
X8428Y8662D01*
X8448Y8672D01*
X8438Y8652D01*
X8448Y8632D01*
X8428Y8642D01*
X8408Y8632D01*
X9948Y7992D02*
X9958Y8012D01*
X9948Y8032D01*
X9968Y8022D01*
X9988Y8032D01*
X9978Y8012D01*
X9988Y7992D01*
X9968Y8002D01*
X9948Y7992D01*
X8388Y8752D02*
X8398Y8772D01*
X8388Y8792D01*
X8408Y8782D01*
X8428Y8792D01*
X8418Y8772D01*
X8428Y8752D01*
X8408Y8762D01*
X8388Y8752D01*
X7918Y8582D02*
X7928Y8602D01*
X7918Y8622D01*
X7938Y8612D01*
X7958Y8622D01*
X7948Y8602D01*
X7958Y8582D01*
X7938Y8592D01*
X7918Y8582D01*
X8463Y8692D02*
X8473Y8712D01*
X8463Y8732D01*
X8483Y8722D01*
X8503Y8732D01*
X8493Y8712D01*
X8503Y8692D01*
X8483Y8702D01*
X8463Y8692D01*
X8253Y7867D02*
X8263Y7887D01*
X8253Y7907D01*
X8273Y7897D01*
X8293Y7907D01*
X8283Y7887D01*
X8293Y7867D01*
X8273Y7877D01*
X8253Y7867D01*
X9688Y8412D02*
X9698Y8432D01*
X9688Y8452D01*
X9708Y8442D01*
X9728Y8452D01*
X9718Y8432D01*
X9728Y8412D01*
X9708Y8422D01*
X9688Y8412D01*
X10128Y8208D02*
X10138Y8228D01*
X10128Y8248D01*
X10148Y8238D01*
X10168Y8248D01*
X10158Y8228D01*
X10168Y8208D01*
X10148Y8218D01*
X10128Y8208D01*
X9348Y8292D02*
X9358Y8312D01*
X9348Y8332D01*
X9368Y8322D01*
X9388Y8332D01*
X9378Y8312D01*
X9388Y8292D01*
X9368Y8302D01*
X9348Y8292D01*
X10628Y7912D02*
X10638Y7932D01*
X10628Y7952D01*
X10648Y7942D01*
X10668Y7952D01*
X10658Y7932D01*
X10668Y7912D01*
X10648Y7922D01*
X10628Y7912D01*
X9568Y8112D02*
X9578Y8132D01*
X9568Y8152D01*
X9588Y8142D01*
X9608Y8152D01*
X9598Y8132D01*
X9608Y8112D01*
X9588Y8122D01*
X9568Y8112D01*
X8118Y8312D02*
X8128Y8332D01*
X8118Y8352D01*
X8138Y8342D01*
X8158Y8352D01*
X8148Y8332D01*
X8158Y8312D01*
X8138Y8322D01*
X8118Y8312D01*
X10336Y8404D02*
X10346Y8424D01*
X10336Y8444D01*
X10356Y8434D01*
X10376Y8444D01*
X10366Y8424D01*
X10376Y8404D01*
X10356Y8414D01*
X10336Y8404D01*
X9348Y8652D02*
X9358Y8672D01*
X9348Y8692D01*
X9368Y8682D01*
X9388Y8692D01*
X9378Y8672D01*
X9388Y8652D01*
X9368Y8662D01*
X9348Y8652D01*
X9768Y8212D02*
X9778Y8232D01*
X9768Y8252D01*
X9788Y8242D01*
X9808Y8252D01*
X9798Y8232D01*
X9808Y8212D01*
X9788Y8222D01*
X9768Y8212D01*
X8423Y7912D02*
X8433Y7932D01*
X8423Y7952D01*
X8443Y7942D01*
X8463Y7952D01*
X8453Y7932D01*
X8463Y7912D01*
X8443Y7922D01*
X8423Y7912D01*
X9068Y8332D02*
X9078Y8352D01*
X9068Y8372D01*
X9088Y8362D01*
X9108Y8372D01*
X9098Y8352D01*
X9108Y8332D01*
X9088Y8342D01*
X9068Y8332D01*
X11530Y8282D02*
X11540Y8302D01*
X11530Y8322D01*
X11550Y8312D01*
X11570Y8322D01*
X11560Y8302D01*
X11570Y8282D01*
X11550Y8292D01*
X11530Y8282D01*
X11550Y8162D02*
X11560Y8172D01*
X11570D01*
X11560Y8182D01*
X11570Y8192D01*
X11560D01*
X11550Y8202D01*
X11540Y8192D01*
X11530D01*
X11540Y8182D01*
X11530Y8172D01*
X11540D01*
X11550Y8162D01*
X11530Y8042D02*
Y8082D01*
X11570D01*
Y8042D01*
X11530D01*
X11550Y7922D02*
X11530Y7962D01*
X11570D01*
X11550Y7922D01*
D78*
X7918Y7732D02*
X7916Y7741D01*
X7910Y7748D01*
X7901Y7752D01*
X7891Y7751D01*
X7884Y7745D01*
X7879Y7737D01*
Y7727D01*
X7884Y7719D01*
X7891Y7713D01*
X7901Y7712D01*
X7910Y7715D01*
X7916Y7723D01*
X7918Y7732D01*
X10618Y8652D02*
X10616Y8661D01*
X10610Y8668D01*
X10601Y8672D01*
X10591Y8671D01*
X10584Y8665D01*
X10579Y8657D01*
Y8647D01*
X10584Y8639D01*
X10591Y8633D01*
X10601Y8632D01*
X10610Y8635D01*
X10616Y8643D01*
X10618Y8652D01*
X10848Y7727D02*
X10846Y7736D01*
X10840Y7743D01*
X10831Y7747D01*
X10821Y7746D01*
X10814Y7740D01*
X10809Y7732D01*
Y7722D01*
X10814Y7714D01*
X10821Y7708D01*
X10831Y7707D01*
X10840Y7710D01*
X10846Y7718D01*
X10848Y7727D01*
X11570Y7822D02*
X11567Y7831D01*
X11561Y7838D01*
X11552Y7842D01*
X11543Y7841D01*
X11535Y7835D01*
X11530Y7827D01*
Y7817D01*
X11535Y7809D01*
X11543Y7803D01*
X11552Y7802D01*
X11561Y7805D01*
X11567Y7813D01*
X11570Y7822D01*
M02*
