M72
M48
T1F00S00C0.024
T2F00S00C0.035
T3F00S00C0.040
T4F00S00C0.126
T5F00S00C0.058
%
T01
X00545Y0033
X00715Y00375
X01175Y0036
X0118Y0048
X0131Y0063
X014Y00575
X0141Y00795
X0136
X0086Y00855
X00557Y00815
X0041Y00775
X00289Y00695
X0021Y01045
X007Y01095
X00755Y01155
X0068Y01215
X0164Y01115
X01755Y00975
X0198Y00875
X0206Y00675
X0202Y00477
X0224Y00455
X0242Y00671
X02628Y00867
X0292Y00375
X0186Y00575
X0164Y00573
Y00755
T02
X0136Y00375
X0129Y0101
X0159
X0156Y00375
T03
X0247Y00318
Y01105
X02225Y01195
X02125
X02025
X01925
X01825
X03095Y0115
Y0105
Y0095
Y0085
Y0075
Y0065
Y0055
Y0045
T04
X0017Y00175
X0287Y01095
X031Y0017
T05
X0069Y00145
X0082Y01225
X0318Y0121
M30
