%FSLAX23Y23*%
%MOIN*%
G70*
G01*
G75*
%ADD10C,0.010*%
%ADD11C,0.050*%
%ADD12R,0.157X0.079*%
%ADD13R,0.100X0.080*%
%ADD14C,0.012*%
%ADD15C,0.015*%
%ADD16C,0.008*%
%ADD17C,0.006*%
%ADD18C,0.009*%
%ADD19C,0.070*%
%ADD20R,0.070X0.070*%
%ADD21C,0.217*%
%ADD22C,0.217*%
%ADD23C,0.058*%
%ADD24C,0.100*%
%ADD25C,0.118*%
%ADD26R,0.118X0.118*%
%ADD27C,0.040*%
%ADD28R,0.083X0.060*%
%ADD29R,0.060X0.083*%
%ADD30R,0.157X0.079*%
%ADD31R,0.036X0.036*%
%ADD32R,0.036X0.050*%
%ADD33R,0.064X0.054*%
%ADD34R,0.060X0.083*%
%ADD35R,0.031X0.102*%
%ADD36O,0.031X0.102*%
%ADD37R,0.054X0.064*%
%ADD38O,0.031X0.087*%
%ADD39R,0.031X0.087*%
%ADD40R,0.197X0.244*%
%ADD41R,0.060X0.050*%
%ADD42C,0.016*%
%ADD43C,0.079*%
%ADD44C,0.010*%
%ADD45C,0.016*%
%ADD46C,0.039*%
%ADD47C,0.008*%
%ADD48R,0.591X0.354*%
%ADD49C,0.008*%
%ADD50C,0.003*%
%ADD51C,0.005*%
%ADD52R,0.165X0.087*%
%ADD53R,0.108X0.088*%
%ADD54C,0.078*%
%ADD55R,0.078X0.078*%
%ADD56C,0.225*%
%ADD57C,0.225*%
%ADD58C,0.066*%
%ADD59C,0.108*%
%ADD60C,0.126*%
%ADD61R,0.126X0.126*%
%ADD62R,0.091X0.068*%
%ADD63R,0.068X0.091*%
%ADD64R,0.165X0.087*%
%ADD65R,0.044X0.044*%
%ADD66R,0.044X0.058*%
%ADD67R,0.072X0.062*%
%ADD68R,0.068X0.091*%
%ADD69R,0.039X0.110*%
%ADD70O,0.039X0.110*%
%ADD71R,0.062X0.072*%
%ADD72O,0.039X0.095*%
%ADD73R,0.039X0.095*%
%ADD74R,0.205X0.252*%
%ADD75R,0.068X0.058*%
%ADD76C,0.025*%
%ADD77C,0.031*%
%ADD78C,0.007*%
D50*
X9933Y8752D02*
X9973D01*
X9953Y8732D02*
Y8772D01*
X9833Y8752D02*
X9873D01*
X9853Y8732D02*
Y8772D01*
X9733Y8752D02*
X9773D01*
X9753Y8732D02*
Y8772D01*
X9633Y8752D02*
X9673D01*
X9653Y8732D02*
Y8772D01*
X9533Y8752D02*
X9573D01*
X9553Y8732D02*
Y8772D01*
X7836Y7732D02*
X7961D01*
X7898Y7669D02*
Y7795D01*
X10536Y8652D02*
X10661D01*
X10598Y8589D02*
Y8715D01*
X8389Y7702D02*
X8447D01*
X8418Y7673D02*
Y7731D01*
X10879Y8767D02*
X10937D01*
X10908Y8738D02*
Y8796D01*
X10766Y7727D02*
X10891D01*
X10828Y7664D02*
Y7790D01*
X10803Y8707D02*
X10843D01*
X10823Y8687D02*
Y8727D01*
X10803Y8607D02*
X10843D01*
X10823Y8587D02*
Y8627D01*
X10803Y8507D02*
X10843D01*
X10823Y8487D02*
Y8527D01*
X10803Y8407D02*
X10843D01*
X10823Y8387D02*
Y8427D01*
X10803Y8307D02*
X10843D01*
X10823Y8287D02*
Y8327D01*
X10803Y8207D02*
X10843D01*
X10823Y8187D02*
Y8227D01*
X10803Y8007D02*
X10843D01*
X10823Y7987D02*
Y8027D01*
X10803Y8107D02*
X10843D01*
X10823Y8087D02*
Y8127D01*
X8519Y8782D02*
X8577D01*
X8548Y8753D02*
Y8811D01*
X9271Y7932D02*
X9306D01*
X9288Y7914D02*
Y7949D01*
X9071Y7932D02*
X9106D01*
X9088Y7914D02*
Y7949D01*
X9301Y8567D02*
X9336D01*
X9318Y8549D02*
Y8584D01*
X9001Y8567D02*
X9036D01*
X9018Y8549D02*
Y8584D01*
X10178Y7874D02*
X10218D01*
X10198Y7854D02*
Y7894D01*
X10178Y8662D02*
X10218D01*
X10198Y8642D02*
Y8682D01*
X9116Y8132D02*
X9140D01*
X9128Y8120D02*
Y8144D01*
X8891Y7917D02*
X8915D01*
X8903Y7905D02*
Y7929D01*
X8896Y8037D02*
X8920D01*
X8908Y8025D02*
Y8049D01*
X9026Y8187D02*
X9050D01*
X9038Y8175D02*
Y8199D01*
X8005Y8252D02*
X8029D01*
X8017Y8240D02*
Y8264D01*
X9471Y8532D02*
X9495D01*
X9483Y8520D02*
Y8544D01*
X8576Y8412D02*
X8600D01*
X8588Y8400D02*
Y8424D01*
X9126Y8352D02*
X9150D01*
X9138Y8340D02*
Y8364D01*
X9356Y8130D02*
X9380D01*
X9368Y8118D02*
Y8142D01*
X9736Y8034D02*
X9760D01*
X9748Y8022D02*
Y8046D01*
X8273Y8372D02*
X8297D01*
X8285Y8360D02*
Y8384D01*
X8416Y8652D02*
X8440D01*
X8428Y8640D02*
Y8664D01*
X9956Y8012D02*
X9980D01*
X9968Y8000D02*
Y8024D01*
X8396Y8772D02*
X8420D01*
X8408Y8760D02*
Y8784D01*
X7926Y8602D02*
X7950D01*
X7938Y8590D02*
Y8614D01*
X8471Y8712D02*
X8495D01*
X8483Y8700D02*
Y8724D01*
X8261Y7887D02*
X8285D01*
X8273Y7875D02*
Y7899D01*
X9696Y8432D02*
X9720D01*
X9708Y8420D02*
Y8444D01*
X10136Y8228D02*
X10160D01*
X10148Y8216D02*
Y8240D01*
X9356Y8312D02*
X9380D01*
X9368Y8300D02*
Y8324D01*
X10636Y7932D02*
X10660D01*
X10648Y7920D02*
Y7944D01*
X9576Y8132D02*
X9600D01*
X9588Y8120D02*
Y8144D01*
X8126Y8332D02*
X8150D01*
X8138Y8320D02*
Y8344D01*
X10344Y8424D02*
X10368D01*
X10356Y8412D02*
Y8436D01*
X9356Y8672D02*
X9380D01*
X9368Y8660D02*
Y8684D01*
X9776Y8232D02*
X9800D01*
X9788Y8220D02*
Y8244D01*
X8431Y7932D02*
X8455D01*
X8443Y7920D02*
Y7944D01*
X9076Y8352D02*
X9100D01*
X9088Y8340D02*
Y8364D01*
M02*
