%FSLAX23Y23*%
%MOIN*%
G70*
G01*
G75*
%ADD10C,0.010*%
%ADD11C,0.050*%
%ADD12R,0.157X0.079*%
%ADD13R,0.100X0.080*%
%ADD14C,0.012*%
%ADD15C,0.015*%
%ADD16C,0.008*%
%ADD17C,0.006*%
%ADD18C,0.009*%
%ADD19C,0.070*%
%ADD20R,0.070X0.070*%
%ADD21C,0.217*%
%ADD22C,0.217*%
%ADD23C,0.058*%
%ADD24C,0.100*%
%ADD25C,0.118*%
%ADD26R,0.118X0.118*%
%ADD27C,0.040*%
%ADD28R,0.083X0.060*%
%ADD29R,0.060X0.083*%
%ADD30R,0.157X0.079*%
%ADD31R,0.036X0.036*%
%ADD32R,0.036X0.050*%
%ADD33R,0.064X0.054*%
%ADD34R,0.060X0.083*%
%ADD35R,0.031X0.102*%
%ADD36O,0.031X0.102*%
%ADD37R,0.054X0.064*%
%ADD38O,0.031X0.087*%
%ADD39R,0.031X0.087*%
%ADD40R,0.197X0.244*%
%ADD41R,0.060X0.050*%
%ADD42C,0.016*%
%ADD43C,0.079*%
%ADD44C,0.010*%
%ADD45C,0.016*%
%ADD46C,0.039*%
%ADD47C,0.008*%
%ADD48R,0.591X0.354*%
%ADD49C,0.008*%
%ADD50C,0.003*%
%ADD51C,0.005*%
%ADD52R,0.165X0.087*%
%ADD53R,0.108X0.088*%
%ADD54C,0.078*%
%ADD55R,0.078X0.078*%
%ADD56C,0.225*%
%ADD57C,0.225*%
%ADD58C,0.066*%
%ADD59C,0.108*%
%ADD60C,0.126*%
%ADD61R,0.126X0.126*%
%ADD62R,0.091X0.068*%
%ADD63R,0.068X0.091*%
%ADD64R,0.165X0.087*%
%ADD65R,0.044X0.044*%
%ADD66R,0.044X0.058*%
%ADD67R,0.072X0.062*%
%ADD68R,0.068X0.091*%
%ADD69R,0.039X0.110*%
%ADD70O,0.039X0.110*%
%ADD71R,0.062X0.072*%
%ADD72O,0.039X0.095*%
%ADD73R,0.039X0.095*%
%ADD74R,0.205X0.252*%
%ADD75R,0.068X0.058*%
%ADD76C,0.025*%
%ADD77C,0.031*%
D11*
X9683Y8132D02*
D03*
D12*
X7868Y8425D02*
D03*
Y8313D02*
D03*
Y8202D02*
D03*
Y8094D02*
D03*
Y7982D02*
D03*
D13*
X9500Y8305D02*
D03*
Y8172D02*
D03*
D19*
X9953Y8752D02*
D03*
X9853D02*
D03*
X9753D02*
D03*
X9653D02*
D03*
X10823Y8607D02*
D03*
Y8507D02*
D03*
Y8407D02*
D03*
Y8307D02*
D03*
Y8207D02*
D03*
Y8007D02*
D03*
Y8107D02*
D03*
X9288Y7932D02*
D03*
X9088D02*
D03*
D20*
X9553Y8752D02*
D03*
X10823Y8707D02*
D03*
D21*
X7898Y7732D02*
D03*
D22*
X10598Y8652D02*
D03*
X10828Y7727D02*
D03*
D23*
X8418Y7702D02*
D03*
X10908Y8767D02*
D03*
X8548Y8782D02*
D03*
D24*
X9318Y8567D02*
D03*
X9018D02*
D03*
D25*
X10198Y7874D02*
D03*
D26*
Y8662D02*
D03*
M02*
