%FSLAX23Y23*%
%MOIN*%
G70*
G01*
G75*
%ADD10C,0.010*%
%ADD11C,0.050*%
%ADD12R,0.157X0.079*%
%ADD13R,0.100X0.080*%
%ADD14C,0.012*%
%ADD15C,0.015*%
%ADD16C,0.008*%
%ADD17C,0.006*%
%ADD18C,0.009*%
%ADD19C,0.070*%
%ADD20R,0.070X0.070*%
%ADD21C,0.217*%
%ADD22C,0.217*%
%ADD23C,0.058*%
%ADD24C,0.100*%
%ADD25C,0.118*%
%ADD26R,0.118X0.118*%
%ADD27C,0.040*%
%ADD28R,0.083X0.060*%
%ADD29R,0.060X0.083*%
%ADD30R,0.157X0.079*%
%ADD31R,0.036X0.036*%
%ADD32R,0.036X0.050*%
%ADD33R,0.064X0.054*%
%ADD34R,0.060X0.083*%
%ADD35R,0.031X0.102*%
%ADD36O,0.031X0.102*%
%ADD37R,0.054X0.064*%
%ADD38O,0.031X0.087*%
%ADD39R,0.031X0.087*%
%ADD40R,0.197X0.244*%
%ADD41R,0.060X0.050*%
%ADD42C,0.016*%
%ADD43C,0.079*%
%ADD44C,0.010*%
%ADD45C,0.016*%
%ADD46C,0.039*%
%ADD47C,0.008*%
%ADD48R,0.591X0.354*%
%ADD49C,0.008*%
%ADD50C,0.003*%
%ADD51C,0.005*%
%ADD52R,0.165X0.087*%
%ADD53R,0.108X0.088*%
%ADD54C,0.078*%
%ADD55R,0.078X0.078*%
%ADD56C,0.225*%
%ADD57C,0.225*%
%ADD58C,0.066*%
%ADD59C,0.108*%
%ADD60C,0.126*%
%ADD61R,0.126X0.126*%
D18*
X11443Y5515D02*
X11438Y5511D01*
X11443Y5507D01*
X11447Y5511D01*
X11443Y5515D01*
X11531Y5575D02*
X11527Y5584D01*
X11518Y5593D01*
X11510Y5597D01*
X11492D01*
X11484Y5593D01*
X11475Y5584D01*
X11471Y5575D01*
X11467Y5563D01*
Y5541D01*
X11471Y5528D01*
X11475Y5520D01*
X11484Y5511D01*
X11492Y5507D01*
X11510D01*
X11518Y5511D01*
X11527Y5520D01*
X11531Y5528D01*
Y5541D01*
X11510D02*
X11531D01*
X11582Y5597D02*
Y5507D01*
X11552Y5597D02*
X11612D01*
X11682Y5584D02*
X11674Y5593D01*
X11661Y5597D01*
X11644D01*
X11631Y5593D01*
X11622Y5584D01*
Y5575D01*
X11627Y5567D01*
X11631Y5563D01*
X11639Y5558D01*
X11665Y5550D01*
X11674Y5545D01*
X11678Y5541D01*
X11682Y5533D01*
Y5520D01*
X11674Y5511D01*
X11661Y5507D01*
X11644D01*
X11631Y5511D01*
X11622Y5520D01*
D23*
X9683Y8132D02*
D03*
D52*
X7868Y8425D02*
D03*
Y8313D02*
D03*
Y8202D02*
D03*
Y8094D02*
D03*
Y7982D02*
D03*
D53*
X9500Y8305D02*
D03*
Y8172D02*
D03*
D54*
X9953Y8752D02*
D03*
X9853D02*
D03*
X9753D02*
D03*
X9653D02*
D03*
X10823Y8607D02*
D03*
Y8507D02*
D03*
Y8407D02*
D03*
Y8307D02*
D03*
Y8207D02*
D03*
Y8007D02*
D03*
Y8107D02*
D03*
X9288Y7932D02*
D03*
X9088D02*
D03*
D55*
X9553Y8752D02*
D03*
X10823Y8707D02*
D03*
D56*
X7898Y7732D02*
D03*
D57*
X10598Y8652D02*
D03*
X10828Y7727D02*
D03*
D58*
X8418Y7702D02*
D03*
X10908Y8767D02*
D03*
X8548Y8782D02*
D03*
D59*
X9318Y8567D02*
D03*
X9018D02*
D03*
D60*
X10198Y7874D02*
D03*
D61*
Y8662D02*
D03*
M02*
