%FSLAX23Y23*%
%MOIN*%
G70*
G01*
G75*
%ADD10C,0.010*%
%ADD11C,0.050*%
%ADD12R,0.157X0.079*%
%ADD13R,0.100X0.080*%
%ADD14C,0.012*%
%ADD15C,0.015*%
%ADD16C,0.008*%
%ADD17C,0.006*%
%ADD18C,0.009*%
%ADD19C,0.070*%
%ADD20R,0.070X0.070*%
%ADD21C,0.217*%
%ADD22C,0.217*%
%ADD23C,0.058*%
%ADD24C,0.100*%
%ADD25C,0.118*%
%ADD26R,0.118X0.118*%
%ADD27C,0.040*%
%ADD28R,0.083X0.060*%
%ADD29R,0.060X0.083*%
%ADD30R,0.157X0.079*%
%ADD31R,0.036X0.036*%
%ADD32R,0.036X0.050*%
%ADD33R,0.064X0.054*%
%ADD34R,0.060X0.083*%
%ADD35R,0.031X0.102*%
%ADD36O,0.031X0.102*%
%ADD37R,0.054X0.064*%
%ADD38O,0.031X0.087*%
%ADD39R,0.031X0.087*%
%ADD40R,0.197X0.244*%
%ADD41R,0.060X0.050*%
%ADD42C,0.016*%
%ADD43C,0.079*%
%ADD44C,0.010*%
%ADD45C,0.016*%
%ADD46C,0.039*%
%ADD47C,0.008*%
%ADD48R,0.591X0.354*%
%ADD49C,0.008*%
%ADD50C,0.003*%
%ADD51C,0.005*%
%ADD52R,0.165X0.087*%
%ADD53R,0.108X0.088*%
%ADD54C,0.078*%
%ADD55R,0.078X0.078*%
%ADD56C,0.225*%
%ADD57C,0.225*%
%ADD58C,0.066*%
%ADD59C,0.108*%
%ADD60C,0.126*%
%ADD61R,0.126X0.126*%
%ADD62R,0.091X0.068*%
%ADD63R,0.068X0.091*%
%ADD64R,0.165X0.087*%
%ADD65R,0.044X0.044*%
%ADD66R,0.044X0.058*%
%ADD67R,0.072X0.062*%
%ADD68R,0.068X0.091*%
%ADD69R,0.039X0.110*%
%ADD70O,0.039X0.110*%
%ADD71R,0.062X0.072*%
%ADD72O,0.039X0.095*%
%ADD73R,0.039X0.095*%
%ADD74R,0.205X0.252*%
%ADD75R,0.068X0.058*%
%ADD76C,0.025*%
%ADD77C,0.031*%
D10*
X11818Y6607D02*
X11818Y6617D01*
X11817Y6626D01*
X11814Y6636D01*
X11811Y6645D01*
X11807Y6654D01*
X11802Y6662D01*
X11796Y6670D01*
X11789Y6678D01*
X11782Y6684D01*
X11774Y6690D01*
X11766Y6695D01*
X11757Y6699D01*
X11748Y6702D01*
X11738Y6705D01*
X11728Y6706D01*
X11718Y6707D01*
Y5407D02*
X11728Y5407D01*
X11738Y5409D01*
X11748Y5411D01*
X11757Y5414D01*
X11766Y5419D01*
X11774Y5424D01*
X11782Y5430D01*
X11789Y5436D01*
X11796Y5443D01*
X11802Y5451D01*
X11807Y5460D01*
X11811Y5469D01*
X11814Y5478D01*
X11817Y5487D01*
X11818Y5497D01*
X11818Y5507D01*
X7418Y5508D02*
X7419Y5498D01*
X7420Y5488D01*
X7423Y5479D01*
X7426Y5470D01*
X7430Y5461D01*
X7435Y5452D01*
X7441Y5444D01*
X7447Y5437D01*
X7455Y5430D01*
X7462Y5424D01*
X7471Y5419D01*
X7480Y5415D01*
X7489Y5412D01*
X7498Y5409D01*
X7508Y5407D01*
X7518Y5407D01*
X7518Y6707D02*
X7509Y6706D01*
X7499Y6705D01*
X7489Y6702D01*
X7480Y6699D01*
X7471Y6695D01*
X7463Y6690D01*
X7455Y6684D01*
X7448Y6678D01*
X7441Y6670D01*
X7435Y6662D01*
X7430Y6654D01*
X7426Y6645D01*
X7423Y6636D01*
X7420Y6626D01*
X7419Y6617D01*
X7418Y6607D01*
X10985Y7557D02*
Y8860D01*
X7728D02*
X10977D01*
X7728Y7557D02*
Y8860D01*
Y7552D02*
X10977D01*
X7583Y7557D02*
Y7852D01*
Y8564D02*
Y8860D01*
X7563Y7617D02*
X7583Y7557D01*
X7603Y7617D01*
X7563Y8800D02*
X7583Y8860D01*
X7603Y8800D01*
X7573Y7557D02*
X7593D01*
X7573Y8860D02*
X7593D01*
X7583D02*
X7663D01*
X7578Y7557D02*
X7658D01*
X10985Y7452D02*
Y7532D01*
X7728Y7452D02*
Y7532D01*
Y7472D02*
X9068D01*
X9629D02*
X10968D01*
X7728D02*
X7788Y7492D01*
X7728Y7472D02*
X7788Y7452D01*
X10908Y7492D02*
X10968Y7472D01*
X10908Y7452D02*
X10968Y7472D01*
X7728Y7462D02*
Y7482D01*
X10968Y7462D02*
Y7482D01*
X7418Y5507D02*
Y6607D01*
X11818Y5507D02*
Y6607D01*
X7518Y6707D02*
X11718D01*
X7518Y5407D02*
X11718D01*
D14*
X10878Y6341D02*
Y6421D01*
X10838Y6381D02*
X10878Y6341D01*
X10838Y6381D02*
X10878Y6421D01*
X10828Y6341D02*
Y6421D01*
X10778D02*
X10818Y6381D01*
X10778Y6341D02*
X10818Y6381D01*
X10778Y6341D02*
Y6421D01*
D16*
X7134Y5432D02*
X7130Y5441D01*
X7121Y5447D01*
X7111Y5445D01*
X7104Y5437D01*
Y5427D01*
X7111Y5419D01*
X7121Y5417D01*
X7130Y5422D01*
X7134Y5432D01*
X7129D02*
X7124Y5440D01*
X7114D01*
X7109Y5432D01*
X7114Y5423D01*
X7124D01*
X7129Y5432D01*
X7139D02*
X7136Y5441D01*
X7130Y5448D01*
X7121Y5452D01*
X7111Y5450D01*
X7104Y5445D01*
X7099Y5437D01*
Y5427D01*
X7104Y5419D01*
X7111Y5413D01*
X7121Y5412D01*
X7130Y5415D01*
X7136Y5422D01*
X7139Y5432D01*
X7124D02*
X7116Y5436D01*
Y5427D01*
X7124Y5432D01*
X7121D02*
X7116D01*
X7121D01*
X7194D02*
X7193Y5442D01*
X7191Y5452D01*
X7188Y5461D01*
X7183Y5470D01*
X7177Y5478D01*
X7171Y5486D01*
X7163Y5492D01*
X7155Y5498D01*
X7145Y5502D01*
X7136Y5505D01*
X7126Y5506D01*
X7116Y5507D01*
X7106Y5506D01*
X7096Y5503D01*
X7087Y5500D01*
X7078Y5495D01*
X7070Y5489D01*
X7063Y5482D01*
X7057Y5474D01*
X7052Y5466D01*
X7048Y5456D01*
X7045Y5447D01*
X7044Y5437D01*
Y5427D01*
X7045Y5417D01*
X7048Y5407D01*
X7052Y5398D01*
X7057Y5389D01*
X7063Y5381D01*
X7070Y5375D01*
X7078Y5369D01*
X7087Y5364D01*
X7096Y5360D01*
X7106Y5358D01*
X7116Y5357D01*
X7126Y5357D01*
X7136Y5359D01*
X7145Y5362D01*
X7155Y5366D01*
X7163Y5371D01*
X7171Y5378D01*
X7177Y5385D01*
X7183Y5394D01*
X7188Y5403D01*
X7191Y5412D01*
X7193Y5422D01*
X7194Y5432D01*
X7169D02*
X7167Y5442D01*
X7164Y5452D01*
X7160Y5460D01*
X7153Y5468D01*
X7145Y5474D01*
X7136Y5479D01*
X7126Y5481D01*
X7116Y5482D01*
X7106Y5480D01*
X7096Y5477D01*
X7088Y5471D01*
X7081Y5464D01*
X7075Y5456D01*
X7071Y5447D01*
X7069Y5437D01*
Y5427D01*
X7071Y5417D01*
X7075Y5408D01*
X7081Y5399D01*
X7088Y5392D01*
X7096Y5387D01*
X7106Y5383D01*
X7116Y5382D01*
X7126Y5382D01*
X7136Y5385D01*
X7145Y5389D01*
X7153Y5396D01*
X7160Y5403D01*
X7164Y5412D01*
X7167Y5422D01*
X7169Y5432D01*
X7168Y11432D02*
X7167Y11442D01*
X7164Y11452D01*
X7160Y11460D01*
X7153Y11468D01*
X7145Y11474D01*
X7136Y11479D01*
X7126Y11481D01*
X7116Y11482D01*
X7106Y11480D01*
X7096Y11477D01*
X7088Y11471D01*
X7081Y11464D01*
X7075Y11456D01*
X7071Y11447D01*
X7069Y11437D01*
Y11427D01*
X7071Y11417D01*
X7075Y11408D01*
X7081Y11399D01*
X7088Y11392D01*
X7096Y11387D01*
X7106Y11383D01*
X7116Y11382D01*
X7126Y11382D01*
X7136Y11385D01*
X7145Y11389D01*
X7153Y11396D01*
X7160Y11403D01*
X7164Y11412D01*
X7167Y11422D01*
X7168Y11432D01*
X7138D02*
X7136Y11441D01*
X7130Y11448D01*
X7121Y11452D01*
X7111Y11451D01*
X7104Y11445D01*
X7099Y11437D01*
Y11427D01*
X7104Y11419D01*
X7111Y11413D01*
X7121Y11412D01*
X7130Y11415D01*
X7136Y11423D01*
X7138Y11432D01*
X7133D02*
X7130Y11441D01*
X7121Y11447D01*
X7111Y11445D01*
X7104Y11437D01*
Y11427D01*
X7111Y11419D01*
X7121Y11417D01*
X7130Y11422D01*
X7133Y11432D01*
X7128D02*
X7123Y11440D01*
X7113D01*
X7108Y11432D01*
X7113Y11423D01*
X7123D01*
X7128Y11432D01*
X7123D02*
X7116Y11436D01*
Y11427D01*
X7123Y11432D01*
X7121D02*
X7116D01*
X7121D01*
X7193D02*
X7193Y11442D01*
X7191Y11452D01*
X7188Y11461D01*
X7183Y11470D01*
X7177Y11478D01*
X7171Y11486D01*
X7163Y11492D01*
X7155Y11498D01*
X7145Y11502D01*
X7136Y11505D01*
X7126Y11506D01*
X7116Y11507D01*
X7106Y11506D01*
X7096Y11503D01*
X7087Y11500D01*
X7078Y11495D01*
X7070Y11489D01*
X7063Y11482D01*
X7057Y11474D01*
X7052Y11466D01*
X7048Y11456D01*
X7045Y11447D01*
X7044Y11437D01*
Y11427D01*
X7045Y11417D01*
X7048Y11407D01*
X7052Y11398D01*
X7057Y11389D01*
X7063Y11381D01*
X7070Y11375D01*
X7078Y11369D01*
X7087Y11364D01*
X7096Y11360D01*
X7106Y11358D01*
X7116Y11357D01*
X7126Y11357D01*
X7136Y11359D01*
X7145Y11362D01*
X7155Y11366D01*
X7163Y11371D01*
X7171Y11378D01*
X7177Y11385D01*
X7183Y11394D01*
X7188Y11403D01*
X7191Y11412D01*
X7193Y11422D01*
X7193Y11432D01*
X14129Y5432D02*
X14124Y5440D01*
X14114D01*
X14109Y5432D01*
X14114Y5423D01*
X14124D01*
X14129Y5432D01*
X14134D02*
X14130Y5441D01*
X14121Y5447D01*
X14111Y5445D01*
X14104Y5437D01*
Y5427D01*
X14111Y5419D01*
X14121Y5417D01*
X14130Y5422D01*
X14134Y5432D01*
X14139D02*
X14136Y5441D01*
X14130Y5448D01*
X14121Y5452D01*
X14111Y5450D01*
X14104Y5445D01*
X14099Y5437D01*
Y5427D01*
X14104Y5419D01*
X14111Y5413D01*
X14121Y5412D01*
X14130Y5415D01*
X14136Y5422D01*
X14139Y5432D01*
X14124D02*
X14116Y5436D01*
Y5427D01*
X14124Y5432D01*
X14121D02*
X14116D01*
X14121D01*
X14194D02*
X14193Y5442D01*
X14191Y5452D01*
X14188Y5461D01*
X14183Y5470D01*
X14177Y5478D01*
X14171Y5486D01*
X14163Y5492D01*
X14155Y5498D01*
X14145Y5502D01*
X14136Y5505D01*
X14126Y5506D01*
X14116Y5507D01*
X14106Y5506D01*
X14096Y5503D01*
X14087Y5500D01*
X14078Y5495D01*
X14070Y5489D01*
X14063Y5482D01*
X14057Y5474D01*
X14052Y5466D01*
X14048Y5456D01*
X14045Y5447D01*
X14044Y5437D01*
Y5427D01*
X14045Y5417D01*
X14048Y5407D01*
X14052Y5398D01*
X14057Y5389D01*
X14063Y5381D01*
X14070Y5375D01*
X14078Y5369D01*
X14087Y5364D01*
X14096Y5360D01*
X14106Y5358D01*
X14116Y5357D01*
X14126Y5357D01*
X14136Y5359D01*
X14145Y5362D01*
X14155Y5366D01*
X14163Y5371D01*
X14171Y5378D01*
X14177Y5385D01*
X14183Y5394D01*
X14188Y5403D01*
X14191Y5412D01*
X14193Y5422D01*
X14194Y5432D01*
X14169D02*
X14167Y5442D01*
X14164Y5452D01*
X14160Y5460D01*
X14153Y5468D01*
X14145Y5474D01*
X14136Y5479D01*
X14126Y5481D01*
X14116Y5482D01*
X14106Y5480D01*
X14096Y5477D01*
X14088Y5471D01*
X14081Y5464D01*
X14075Y5456D01*
X14071Y5447D01*
X14069Y5437D01*
Y5427D01*
X14071Y5417D01*
X14075Y5408D01*
X14081Y5399D01*
X14088Y5392D01*
X14096Y5387D01*
X14106Y5383D01*
X14116Y5382D01*
X14126Y5382D01*
X14136Y5385D01*
X14145Y5389D01*
X14153Y5396D01*
X14160Y5403D01*
X14164Y5412D01*
X14167Y5422D01*
X14169Y5432D01*
X7058Y5127D02*
X7071Y5132D01*
X7058Y5136D02*
X7071Y5132D01*
X7048Y5112D02*
X7106Y5132D01*
X7048Y5151D02*
X7106Y5132D01*
X7055Y5122D02*
X7083Y5132D01*
X7055Y5141D02*
X7083Y5132D01*
X6818Y5385D02*
X6823Y5372D01*
X6814D02*
X6818Y5385D01*
Y5419D02*
X6838Y5361D01*
X6799D02*
X6818Y5419D01*
Y5396D02*
X6828Y5368D01*
X6809D02*
X6818Y5396D01*
Y5408D02*
X6833Y5365D01*
X6804D02*
X6818Y5408D01*
X6793Y5357D02*
X6818Y5432D01*
X6843Y5357D01*
X7051Y5117D02*
X7094Y5132D01*
X7051Y5146D02*
X7094Y5132D01*
X7043Y5157D02*
X7118Y5132D01*
X7043Y5107D02*
X7118Y5132D01*
X14083Y5467D02*
X14118Y5432D01*
X14153Y5397D01*
X7083Y5467D02*
X7118Y5432D01*
X7153Y5397D01*
X14118Y5432D02*
X14153Y5467D01*
X14083Y5397D02*
X14118Y5432D01*
X7083Y5397D02*
X7118Y5432D01*
X7153Y5467D01*
X14119Y5207D02*
Y5357D01*
Y5507D02*
Y5557D01*
X7118Y11307D02*
Y11357D01*
Y11507D02*
Y11557D01*
Y11432D02*
Y11482D01*
Y11382D02*
Y11432D01*
X14118Y4932D02*
Y5132D01*
X14018Y5057D02*
Y5132D01*
X13918Y5057D02*
Y5132D01*
X13818Y5057D02*
Y5132D01*
X13718Y5057D02*
Y5132D01*
X13618Y4982D02*
Y5132D01*
X13518Y5057D02*
Y5132D01*
X13418Y5057D02*
Y5132D01*
X13318Y5057D02*
Y5132D01*
X13218Y5057D02*
Y5132D01*
X13118Y4932D02*
Y5132D01*
X13018Y5057D02*
Y5132D01*
X12918Y5057D02*
Y5132D01*
X12818Y5057D02*
Y5132D01*
X12718Y5057D02*
Y5132D01*
X12618Y4982D02*
Y5132D01*
X12518Y5057D02*
Y5132D01*
X12418Y5057D02*
Y5132D01*
X12318Y5057D02*
Y5132D01*
X12218Y5057D02*
Y5132D01*
X12118Y4932D02*
Y5132D01*
X12018Y5057D02*
Y5132D01*
X11918Y5057D02*
Y5132D01*
X11818Y5057D02*
Y5132D01*
X11718Y5057D02*
Y5132D01*
X11618Y4982D02*
Y5132D01*
X11518Y5057D02*
Y5132D01*
X11418Y5057D02*
Y5132D01*
X11318Y5057D02*
Y5132D01*
X11218Y5057D02*
Y5132D01*
X11118Y4932D02*
Y5132D01*
X11018Y5057D02*
Y5132D01*
X10918Y5057D02*
Y5132D01*
X10818Y5057D02*
Y5132D01*
X10718Y5057D02*
Y5132D01*
X10618Y4982D02*
Y5132D01*
X10518Y5057D02*
Y5132D01*
X10418Y5057D02*
Y5132D01*
X10318Y5057D02*
Y5132D01*
X10218Y5057D02*
Y5132D01*
X10118Y4932D02*
Y5132D01*
X10018Y5057D02*
Y5132D01*
X9918Y5057D02*
Y5132D01*
X9818Y5057D02*
Y5132D01*
X9718Y5057D02*
Y5132D01*
X9618Y4982D02*
Y5132D01*
X9518Y5057D02*
Y5132D01*
X9418Y5057D02*
Y5132D01*
X9318Y5057D02*
Y5132D01*
X9218Y5057D02*
Y5132D01*
X9118Y4932D02*
Y5132D01*
X9018Y5057D02*
Y5132D01*
X8918Y5057D02*
Y5132D01*
X8818Y5057D02*
Y5132D01*
X8718Y5057D02*
Y5132D01*
X8618Y4982D02*
Y5132D01*
X8518Y5057D02*
Y5132D01*
X8418Y5057D02*
Y5132D01*
X8318Y5057D02*
Y5132D01*
X8218Y5057D02*
Y5132D01*
X8118Y4932D02*
Y5132D01*
X8018Y5057D02*
Y5132D01*
X7918Y5057D02*
Y5132D01*
X7818Y5057D02*
Y5132D01*
X7718Y5057D02*
Y5132D01*
X7618Y4982D02*
Y5132D01*
X7518Y5057D02*
Y5132D01*
X7418Y5057D02*
Y5132D01*
X7318Y5057D02*
Y5132D01*
X7218Y5057D02*
Y5132D01*
X7118Y4932D02*
Y5132D01*
X7058Y5127D02*
Y5136D01*
X7048Y5112D02*
Y5151D01*
X7055Y5122D02*
Y5141D01*
X6818Y5332D02*
Y5357D01*
X7051Y5117D02*
Y5146D01*
X7043Y5107D02*
Y5157D01*
X6818Y5132D02*
Y5207D01*
X7119Y5507D02*
Y5557D01*
Y5207D02*
Y5357D01*
X14194Y5432D02*
X14244D01*
X13994D02*
X14044D01*
X7193Y11432D02*
X7243D01*
X6893D02*
X7043D01*
X7068D02*
X7118D01*
X7168D01*
X6618D02*
X6818D01*
X6743Y11332D02*
X6818D01*
X6743Y11232D02*
X6818D01*
X6743Y11132D02*
X6818D01*
X6743Y11032D02*
X6818D01*
X6668Y10932D02*
X6818D01*
X6743Y10832D02*
X6818D01*
X6743Y10732D02*
X6818D01*
X6743Y10632D02*
X6818D01*
X6743Y10532D02*
X6818D01*
X6618Y10432D02*
X6818D01*
X6743Y10332D02*
X6818D01*
X6743Y10232D02*
X6818D01*
X6743Y10132D02*
X6818D01*
X6743Y10032D02*
X6818D01*
X6668Y9932D02*
X6818D01*
X6743Y9832D02*
X6818D01*
X6743Y9732D02*
X6818D01*
X6743Y9632D02*
X6818D01*
X6743Y9532D02*
X6818D01*
X6618Y9432D02*
X6818D01*
X6743Y9332D02*
X6818D01*
X6743Y9232D02*
X6818D01*
X6743Y9132D02*
X6818D01*
X6743Y9032D02*
X6818D01*
X6668Y8932D02*
X6818D01*
X6743Y8832D02*
X6818D01*
X6743Y8732D02*
X6818D01*
X6743Y8632D02*
X6818D01*
X6743Y8532D02*
X6818D01*
X6618Y8432D02*
X6818D01*
X6743Y8332D02*
X6818D01*
X6743Y8232D02*
X6818D01*
X6743Y8132D02*
X6818D01*
X6743Y8032D02*
X6818D01*
X6668Y7932D02*
X6818D01*
X6743Y7832D02*
X6818D01*
X6743Y7732D02*
X6818D01*
X6743Y7632D02*
X6818D01*
X6743Y7532D02*
X6818D01*
X6618Y7432D02*
X6818D01*
X6743Y7332D02*
X6818D01*
X6743Y7232D02*
X6818D01*
X6743Y7132D02*
X6818D01*
X6743Y7032D02*
X6818D01*
X6668Y6932D02*
X6818D01*
X6743Y6832D02*
X6818D01*
X6743Y6732D02*
X6818D01*
X6743Y6632D02*
X6818D01*
X6743Y6532D02*
X6818D01*
X6618Y6432D02*
X6818D01*
X6743Y6332D02*
X6818D01*
X6743Y6232D02*
X6818D01*
X6743Y6132D02*
X6818D01*
X6743Y6032D02*
X6818D01*
X6668Y5932D02*
X6818D01*
X6743Y5832D02*
X6818D01*
X6743Y5732D02*
X6818D01*
X6743Y5632D02*
X6818D01*
X6743Y5532D02*
X6818D01*
X6618Y5432D02*
X6818D01*
X7018Y5132D02*
X7043D01*
X6814Y5372D02*
X6823D01*
X6799Y5361D02*
X6838D01*
X6809Y5368D02*
X6828D01*
X6804Y5365D02*
X6833D01*
X6793Y5357D02*
X6843D01*
X6818Y5132D02*
X6893D01*
X6894Y5432D02*
X7044D01*
X7194D02*
X7244D01*
X7518Y6267D02*
Y6207D01*
Y6235D02*
X7527Y6244D01*
X7533Y6247D01*
X7541D01*
X7547Y6244D01*
X7550Y6235D01*
Y6207D01*
X7600Y6247D02*
Y6201D01*
X7597Y6193D01*
X7594Y6190D01*
X7588Y6187D01*
X7580D01*
X7574Y6190D01*
X7600Y6238D02*
X7594Y6244D01*
X7588Y6247D01*
X7580D01*
X7574Y6244D01*
X7568Y6238D01*
X7566Y6230D01*
Y6224D01*
X7568Y6215D01*
X7574Y6210D01*
X7580Y6207D01*
X7588D01*
X7594Y6210D01*
X7600Y6215D01*
X7616Y6247D02*
Y6207D01*
Y6235D02*
X7624Y6244D01*
X7630Y6247D01*
X7639D01*
X7644Y6244D01*
X7647Y6235D01*
Y6207D01*
Y6235D02*
X7656Y6244D01*
X7662Y6247D01*
X7670D01*
X7676Y6244D01*
X7679Y6235D01*
Y6207D01*
D17*
X7619Y7862D02*
Y7882D01*
Y7872D01*
X7560D01*
X7570Y7862D01*
Y7912D02*
X7560Y7922D01*
Y7942D01*
X7570Y7952D01*
X7579D01*
X7589Y7942D01*
Y7932D01*
Y7942D01*
X7599Y7952D01*
X7609D01*
X7619Y7942D01*
Y7922D01*
X7609Y7912D01*
X7570Y7972D02*
X7560Y7982D01*
Y8002D01*
X7570Y8012D01*
X7609D01*
X7619Y8002D01*
Y7982D01*
X7609Y7972D01*
X7570D01*
Y8032D02*
X7560Y8042D01*
Y8062D01*
X7570Y8072D01*
X7579D01*
X7589Y8062D01*
Y8052D01*
Y8062D01*
X7599Y8072D01*
X7609D01*
X7619Y8062D01*
Y8042D01*
X7609Y8032D01*
X7619Y8092D02*
X7609D01*
Y8102D01*
X7619D01*
Y8092D01*
Y8142D02*
Y8162D01*
Y8152D01*
X7560D01*
X7570Y8142D01*
X7560Y8232D02*
Y8192D01*
X7589D01*
X7579Y8212D01*
Y8222D01*
X7589Y8232D01*
X7609D01*
X7619Y8222D01*
Y8202D01*
X7609Y8192D01*
X7619Y8332D02*
X7599Y8312D01*
X7579D01*
X7560Y8332D01*
X7619Y8362D02*
X7579D01*
Y8372D01*
X7589Y8382D01*
X7619D01*
X7589D01*
X7579Y8392D01*
X7589Y8402D01*
X7619D01*
Y8422D02*
Y8442D01*
Y8432D01*
X7579D01*
Y8422D01*
X7619Y8472D02*
Y8492D01*
Y8482D01*
X7560D01*
Y8472D01*
X7619Y8522D02*
X7599Y8542D01*
X7579D01*
X7560Y8522D01*
X9078Y7486D02*
X9088Y7496D01*
X9108D01*
X9118Y7486D01*
Y7476D01*
X9108Y7466D01*
X9098D01*
X9108D01*
X9118Y7456D01*
Y7446D01*
X9108Y7436D01*
X9088D01*
X9078Y7446D01*
X9178Y7436D02*
X9138D01*
X9178Y7476D01*
Y7486D01*
X9168Y7496D01*
X9148D01*
X9138Y7486D01*
X9228Y7436D02*
Y7496D01*
X9198Y7466D01*
X9238D01*
X9258Y7486D02*
X9268Y7496D01*
X9288D01*
X9298Y7486D01*
Y7446D01*
X9288Y7436D01*
X9268D01*
X9258Y7446D01*
Y7486D01*
X9397Y7436D02*
X9377Y7456D01*
Y7476D01*
X9397Y7496D01*
X9427Y7436D02*
Y7476D01*
X9437D01*
X9447Y7466D01*
Y7436D01*
Y7466D01*
X9457Y7476D01*
X9467Y7466D01*
Y7436D01*
X9487D02*
X9507D01*
X9497D01*
Y7476D01*
X9487D01*
X9537Y7436D02*
X9557D01*
X9547D01*
Y7496D01*
X9537D01*
X9587Y7436D02*
X9607Y7456D01*
Y7476D01*
X9587Y7496D01*
X7669Y7837D02*
Y7877D01*
X7649Y7857D02*
X7688D01*
X7669Y7897D02*
Y7937D01*
X7649Y8017D02*
X7639Y8027D01*
Y8047D01*
X7649Y8057D01*
X7688D01*
X7698Y8047D01*
Y8027D01*
X7688Y8017D01*
X7649D01*
X7698Y8077D02*
X7688D01*
Y8087D01*
X7698D01*
Y8077D01*
X7649Y8127D02*
X7639Y8137D01*
Y8157D01*
X7649Y8167D01*
X7659D01*
X7669Y8157D01*
Y8147D01*
Y8157D01*
X7679Y8167D01*
X7688D01*
X7698Y8157D01*
Y8137D01*
X7688Y8127D01*
X7698Y8267D02*
X7679Y8247D01*
X7659D01*
X7639Y8267D01*
X7698Y8297D02*
X7659D01*
Y8307D01*
X7669Y8317D01*
X7698D01*
X7669D01*
X7659Y8327D01*
X7669Y8337D01*
X7698D01*
Y8357D02*
X7659D01*
Y8367D01*
X7669Y8377D01*
X7698D01*
X7669D01*
X7659Y8387D01*
X7669Y8397D01*
X7698D01*
Y8417D02*
X7679Y8437D01*
X7659D01*
X7639Y8417D01*
D18*
X9044Y5859D02*
X9031Y5855D01*
X9023Y5842D01*
X9018Y5821D01*
Y5808D01*
X9023Y5786D01*
X9031Y5774D01*
X9044Y5769D01*
X9053D01*
X9066Y5774D01*
X9074Y5786D01*
X9078Y5808D01*
Y5821D01*
X9074Y5842D01*
X9066Y5855D01*
X9053Y5859D01*
X9044D01*
X9154Y5829D02*
X9150Y5816D01*
X9141Y5808D01*
X9129Y5804D01*
X9124D01*
X9111Y5808D01*
X9103Y5816D01*
X9099Y5829D01*
Y5834D01*
X9103Y5846D01*
X9111Y5855D01*
X9124Y5859D01*
X9129D01*
X9141Y5855D01*
X9150Y5846D01*
X9154Y5829D01*
Y5808D01*
X9150Y5786D01*
X9141Y5774D01*
X9129Y5769D01*
X9120D01*
X9107Y5774D01*
X9103Y5782D01*
X9204Y5859D02*
X9192Y5855D01*
X9183Y5842D01*
X9179Y5821D01*
Y5808D01*
X9183Y5786D01*
X9192Y5774D01*
X9204Y5769D01*
X9213D01*
X9226Y5774D01*
X9234Y5786D01*
X9239Y5808D01*
Y5821D01*
X9234Y5842D01*
X9226Y5855D01*
X9213Y5859D01*
X9204D01*
X9259Y5808D02*
X9336D01*
X9388Y5859D02*
X9375Y5855D01*
X9367Y5842D01*
X9363Y5821D01*
Y5808D01*
X9367Y5786D01*
X9375Y5774D01*
X9388Y5769D01*
X9397D01*
X9410Y5774D01*
X9418Y5786D01*
X9423Y5808D01*
Y5821D01*
X9418Y5842D01*
X9410Y5855D01*
X9397Y5859D01*
X9388D01*
X9486D02*
X9443Y5799D01*
X9507D01*
X9486Y5859D02*
Y5769D01*
X9583Y5859D02*
X9540Y5769D01*
X9523Y5859D02*
X9583D01*
X9607Y5838D02*
Y5842D01*
X9612Y5851D01*
X9616Y5855D01*
X9624Y5859D01*
X9642D01*
X9650Y5855D01*
X9654Y5851D01*
X9659Y5842D01*
Y5834D01*
X9654Y5825D01*
X9646Y5812D01*
X9603Y5769D01*
X9663D01*
X8591Y6602D02*
Y6533D01*
X8587Y6520D01*
X8583Y6516D01*
X8574Y6512D01*
X8566D01*
X8557Y6516D01*
X8553Y6520D01*
X8548Y6533D01*
Y6542D01*
X8683Y6512D02*
X8649Y6602D01*
X8614Y6512D01*
X8627Y6542D02*
X8670D01*
X8704Y6602D02*
Y6512D01*
Y6602D02*
X8764Y6512D01*
Y6602D02*
Y6512D01*
X8789Y6602D02*
Y6538D01*
X8793Y6525D01*
X8802Y6516D01*
X8815Y6512D01*
X8823D01*
X8836Y6516D01*
X8845Y6525D01*
X8849Y6538D01*
Y6602D01*
X8934Y6589D02*
X8925Y6597D01*
X8912Y6602D01*
X8895D01*
X8882Y6597D01*
X8874Y6589D01*
Y6580D01*
X8878Y6572D01*
X8882Y6568D01*
X8891Y6563D01*
X8917Y6555D01*
X8925Y6550D01*
X8929Y6546D01*
X8934Y6538D01*
Y6525D01*
X8925Y6516D01*
X8912Y6512D01*
X8895D01*
X8882Y6516D01*
X8874Y6525D01*
X9025Y6550D02*
X9102D01*
X9199Y6572D02*
X9216Y6512D01*
X9233Y6572D02*
X9216Y6512D01*
X9233Y6572D02*
X9250Y6512D01*
X9267Y6572D02*
X9250Y6512D01*
X9288Y6572D02*
X9306Y6512D01*
X9323Y6572D02*
X9306Y6512D01*
X9323Y6572D02*
X9340Y6512D01*
X9357Y6572D02*
X9340Y6512D01*
X9378Y6572D02*
X9395Y6512D01*
X9412Y6572D02*
X9395Y6512D01*
X9412Y6572D02*
X9429Y6512D01*
X9447Y6572D02*
X9429Y6512D01*
X9472Y6520D02*
X9468Y6516D01*
X9472Y6512D01*
X9476Y6516D01*
X9472Y6520D01*
X9496Y6546D02*
X9547D01*
Y6555D01*
X9543Y6563D01*
X9539Y6568D01*
X9530Y6572D01*
X9517D01*
X9509Y6568D01*
X9500Y6559D01*
X9496Y6546D01*
Y6538D01*
X9500Y6525D01*
X9509Y6516D01*
X9517Y6512D01*
X9530D01*
X9539Y6516D01*
X9547Y6525D01*
X9584Y6602D02*
X9588Y6597D01*
X9592Y6602D01*
X9588Y6606D01*
X9584Y6602D01*
X9588Y6572D02*
Y6499D01*
X9584Y6486D01*
X9575Y6482D01*
X9567D01*
X9660Y6572D02*
Y6512D01*
Y6559D02*
X9652Y6568D01*
X9643Y6572D01*
X9630D01*
X9622Y6568D01*
X9613Y6559D01*
X9609Y6546D01*
Y6538D01*
X9613Y6525D01*
X9622Y6516D01*
X9630Y6512D01*
X9643D01*
X9652Y6516D01*
X9660Y6525D01*
X9684Y6572D02*
Y6512D01*
Y6555D02*
X9697Y6568D01*
X9706Y6572D01*
X9719D01*
X9727Y6568D01*
X9732Y6555D01*
Y6512D01*
X9755Y6572D02*
Y6529D01*
X9759Y6516D01*
X9768Y6512D01*
X9781D01*
X9789Y6516D01*
X9802Y6529D01*
Y6572D02*
Y6512D01*
X9873Y6559D02*
X9869Y6568D01*
X9856Y6572D01*
X9843D01*
X9830Y6568D01*
X9826Y6559D01*
X9830Y6550D01*
X9839Y6546D01*
X9860Y6542D01*
X9869Y6538D01*
X9873Y6529D01*
Y6525D01*
X9869Y6516D01*
X9856Y6512D01*
X9843D01*
X9830Y6516D01*
X9826Y6525D01*
X9896Y6520D02*
X9892Y6516D01*
X9896Y6512D01*
X9900Y6516D01*
X9896Y6520D01*
X9971Y6559D02*
X9963Y6568D01*
X9954Y6572D01*
X9941D01*
X9933Y6568D01*
X9924Y6559D01*
X9920Y6546D01*
Y6538D01*
X9924Y6525D01*
X9933Y6516D01*
X9941Y6512D01*
X9954D01*
X9963Y6516D01*
X9971Y6525D01*
X10012Y6572D02*
X10004Y6568D01*
X9995Y6559D01*
X9991Y6546D01*
Y6538D01*
X9995Y6525D01*
X10004Y6516D01*
X10012Y6512D01*
X10025D01*
X10034Y6516D01*
X10042Y6525D01*
X10046Y6538D01*
Y6546D01*
X10042Y6559D01*
X10034Y6568D01*
X10025Y6572D01*
X10012D01*
X10066D02*
Y6512D01*
Y6555D02*
X10079Y6568D01*
X10088Y6572D01*
X10100D01*
X10109Y6568D01*
X10113Y6555D01*
Y6512D01*
Y6555D02*
X10126Y6568D01*
X10135Y6572D01*
X10148D01*
X10156Y6568D01*
X10160Y6555D01*
Y6512D01*
X10193Y6520D02*
X10189Y6516D01*
X10193Y6512D01*
X10197Y6516D01*
X10193Y6520D01*
X10268Y6572D02*
Y6512D01*
Y6559D02*
X10260Y6568D01*
X10251Y6572D01*
X10238D01*
X10230Y6568D01*
X10221Y6559D01*
X10217Y6546D01*
Y6538D01*
X10221Y6525D01*
X10230Y6516D01*
X10238Y6512D01*
X10251D01*
X10260Y6516D01*
X10268Y6525D01*
X10292Y6572D02*
Y6512D01*
Y6546D02*
X10297Y6559D01*
X10305Y6568D01*
X10314Y6572D01*
X10327D01*
X8807Y6132D02*
X8773Y6222D01*
X8738Y6132D01*
X8751Y6162D02*
X8794D01*
X8828Y6222D02*
Y6132D01*
Y6222D02*
X8858D01*
X8871Y6218D01*
X8879Y6209D01*
X8884Y6200D01*
X8888Y6188D01*
Y6166D01*
X8884Y6153D01*
X8879Y6145D01*
X8871Y6136D01*
X8858Y6132D01*
X8828D01*
X8934Y6222D02*
X8925Y6218D01*
X8917Y6209D01*
X8912Y6200D01*
X8908Y6188D01*
Y6166D01*
X8912Y6153D01*
X8917Y6145D01*
X8925Y6136D01*
X8934Y6132D01*
X8951D01*
X8960Y6136D01*
X8968Y6145D01*
X8972Y6153D01*
X8977Y6166D01*
Y6188D01*
X8972Y6200D01*
X8968Y6209D01*
X8960Y6218D01*
X8951Y6222D01*
X8934D01*
X8947Y6149D02*
X8972Y6123D01*
X8998Y6205D02*
X9006Y6209D01*
X9019Y6222D01*
Y6132D01*
X9068Y6200D02*
Y6205D01*
X9072Y6213D01*
X9077Y6218D01*
X9085Y6222D01*
X9102D01*
X9111Y6218D01*
X9115Y6213D01*
X9119Y6205D01*
Y6196D01*
X9115Y6188D01*
X9107Y6175D01*
X9064Y6132D01*
X9124D01*
X9165Y6222D02*
X9152Y6218D01*
X9148Y6209D01*
Y6200D01*
X9152Y6192D01*
X9161Y6188D01*
X9178Y6183D01*
X9191Y6179D01*
X9200Y6170D01*
X9204Y6162D01*
Y6149D01*
X9200Y6140D01*
X9195Y6136D01*
X9182Y6132D01*
X9165D01*
X9152Y6136D01*
X9148Y6140D01*
X9144Y6149D01*
Y6162D01*
X9148Y6170D01*
X9157Y6179D01*
X9170Y6183D01*
X9187Y6188D01*
X9195Y6192D01*
X9200Y6200D01*
Y6209D01*
X9195Y6218D01*
X9182Y6222D01*
X9165D01*
X7944Y5597D02*
X7931Y5593D01*
X7923Y5580D01*
X7918Y5558D01*
Y5545D01*
X7923Y5524D01*
X7931Y5511D01*
X7944Y5507D01*
X7953D01*
X7966Y5511D01*
X7974Y5524D01*
X7978Y5545D01*
Y5558D01*
X7974Y5580D01*
X7966Y5593D01*
X7953Y5597D01*
X7944D01*
X8054Y5567D02*
X8050Y5554D01*
X8041Y5545D01*
X8029Y5541D01*
X8024D01*
X8011Y5545D01*
X8003Y5554D01*
X7999Y5567D01*
Y5571D01*
X8003Y5584D01*
X8011Y5593D01*
X8024Y5597D01*
X8029D01*
X8041Y5593D01*
X8050Y5584D01*
X8054Y5567D01*
Y5545D01*
X8050Y5524D01*
X8041Y5511D01*
X8029Y5507D01*
X8020D01*
X8007Y5511D01*
X8003Y5520D01*
X8104Y5597D02*
X8092Y5593D01*
X8083Y5580D01*
X8079Y5558D01*
Y5545D01*
X8083Y5524D01*
X8092Y5511D01*
X8104Y5507D01*
X8113D01*
X8126Y5511D01*
X8134Y5524D01*
X8139Y5545D01*
Y5558D01*
X8134Y5580D01*
X8126Y5593D01*
X8113Y5597D01*
X8104D01*
X8159Y5545D02*
X8236D01*
X8288Y5597D02*
X8275Y5593D01*
X8267Y5580D01*
X8263Y5558D01*
Y5545D01*
X8267Y5524D01*
X8275Y5511D01*
X8288Y5507D01*
X8297D01*
X8310Y5511D01*
X8318Y5524D01*
X8323Y5545D01*
Y5558D01*
X8318Y5580D01*
X8310Y5593D01*
X8297Y5597D01*
X8288D01*
X8386D02*
X8343Y5537D01*
X8407D01*
X8386Y5597D02*
Y5507D01*
X8483Y5597D02*
X8440Y5507D01*
X8423Y5597D02*
X8483D01*
X8507Y5575D02*
Y5580D01*
X8512Y5588D01*
X8516Y5593D01*
X8524Y5597D01*
X8542D01*
X8550Y5593D01*
X8554Y5588D01*
X8559Y5580D01*
Y5571D01*
X8554Y5563D01*
X8546Y5550D01*
X8503Y5507D01*
X8563D01*
X8587Y5515D02*
X8583Y5511D01*
X8587Y5507D01*
X8592Y5511D01*
X8587Y5515D01*
X8611Y5550D02*
X8650D01*
X8663Y5554D01*
X8667Y5558D01*
X8671Y5567D01*
Y5580D01*
X8667Y5588D01*
X8663Y5593D01*
X8650Y5597D01*
X8611D01*
Y5507D01*
X8756Y5575D02*
X8751Y5584D01*
X8743Y5593D01*
X8734Y5597D01*
X8717D01*
X8709Y5593D01*
X8700Y5584D01*
X8696Y5575D01*
X8691Y5563D01*
Y5541D01*
X8696Y5528D01*
X8700Y5520D01*
X8709Y5511D01*
X8717Y5507D01*
X8734D01*
X8743Y5511D01*
X8751Y5520D01*
X8756Y5528D01*
X8781Y5597D02*
Y5507D01*
Y5597D02*
X8820D01*
X8832Y5593D01*
X8837Y5588D01*
X8841Y5580D01*
Y5571D01*
X8837Y5563D01*
X8832Y5558D01*
X8820Y5554D01*
X8781D02*
X8820D01*
X8832Y5550D01*
X8837Y5545D01*
X8841Y5537D01*
Y5524D01*
X8837Y5515D01*
X8832Y5511D01*
X8820Y5507D01*
X8781D01*
X9598Y5597D02*
Y5507D01*
Y5597D02*
X9633Y5507D01*
X9667Y5597D02*
X9633Y5507D01*
X9667Y5597D02*
Y5507D01*
X9693Y5541D02*
X9744D01*
Y5550D01*
X9740Y5558D01*
X9736Y5563D01*
X9727Y5567D01*
X9714D01*
X9706Y5563D01*
X9697Y5554D01*
X9693Y5541D01*
Y5533D01*
X9697Y5520D01*
X9706Y5511D01*
X9714Y5507D01*
X9727D01*
X9736Y5511D01*
X9744Y5520D01*
X9815Y5554D02*
X9806Y5563D01*
X9798Y5567D01*
X9785D01*
X9776Y5563D01*
X9768Y5554D01*
X9763Y5541D01*
Y5533D01*
X9768Y5520D01*
X9776Y5511D01*
X9785Y5507D01*
X9798D01*
X9806Y5511D01*
X9815Y5520D01*
X9834Y5597D02*
Y5507D01*
Y5550D02*
X9847Y5563D01*
X9856Y5567D01*
X9868D01*
X9877Y5563D01*
X9881Y5550D01*
Y5507D01*
X9956Y5567D02*
Y5507D01*
Y5554D02*
X9948Y5563D01*
X9939Y5567D01*
X9926D01*
X9918Y5563D01*
X9909Y5554D01*
X9905Y5541D01*
Y5533D01*
X9909Y5520D01*
X9918Y5511D01*
X9926Y5507D01*
X9939D01*
X9948Y5511D01*
X9956Y5520D01*
X9980Y5567D02*
Y5507D01*
Y5550D02*
X9993Y5563D01*
X10002Y5567D01*
X10015D01*
X10023Y5563D01*
X10027Y5550D01*
Y5507D01*
X10060Y5597D02*
X10064Y5593D01*
X10068Y5597D01*
X10064Y5601D01*
X10060Y5597D01*
X10064Y5567D02*
Y5507D01*
X10135Y5554D02*
X10127Y5563D01*
X10118Y5567D01*
X10105D01*
X10097Y5563D01*
X10088Y5554D01*
X10084Y5541D01*
Y5533D01*
X10088Y5520D01*
X10097Y5511D01*
X10105Y5507D01*
X10118D01*
X10127Y5511D01*
X10135Y5520D01*
X10206Y5567D02*
Y5507D01*
Y5554D02*
X10198Y5563D01*
X10189Y5567D01*
X10176D01*
X10168Y5563D01*
X10159Y5554D01*
X10155Y5541D01*
Y5533D01*
X10159Y5520D01*
X10168Y5511D01*
X10176Y5507D01*
X10189D01*
X10198Y5511D01*
X10206Y5520D01*
X10230Y5597D02*
Y5507D01*
X10292Y5597D02*
X10249Y5537D01*
X10313D01*
X10292Y5597D02*
Y5507D01*
X10331Y5859D02*
Y5769D01*
Y5859D02*
X10370D01*
X10382Y5855D01*
X10387Y5851D01*
X10391Y5842D01*
Y5834D01*
X10387Y5825D01*
X10382Y5821D01*
X10370Y5816D01*
X10331D02*
X10370D01*
X10382Y5812D01*
X10387Y5808D01*
X10391Y5799D01*
Y5786D01*
X10387Y5778D01*
X10382Y5774D01*
X10370Y5769D01*
X10331D01*
X10903Y5859D02*
X10861Y5769D01*
X10843Y5859D02*
X10903D01*
X10924Y5808D02*
X11001D01*
X11070Y5859D02*
Y5791D01*
X11066Y5778D01*
X11062Y5774D01*
X11053Y5769D01*
X11044D01*
X11036Y5774D01*
X11032Y5778D01*
X11027Y5791D01*
Y5799D01*
X11093Y5829D02*
Y5786D01*
X11098Y5774D01*
X11106Y5769D01*
X11119D01*
X11128Y5774D01*
X11140Y5786D01*
Y5829D02*
Y5769D01*
X11164Y5859D02*
Y5769D01*
X11183Y5808D02*
X11260D01*
X11291Y5838D02*
Y5842D01*
X11295Y5851D01*
X11299Y5855D01*
X11308Y5859D01*
X11325D01*
X11334Y5855D01*
X11338Y5851D01*
X11342Y5842D01*
Y5834D01*
X11338Y5825D01*
X11329Y5812D01*
X11287Y5769D01*
X11347D01*
X11392Y5859D02*
X11380Y5855D01*
X11371Y5842D01*
X11367Y5821D01*
Y5808D01*
X11371Y5786D01*
X11380Y5774D01*
X11392Y5769D01*
X11401D01*
X11414Y5774D01*
X11422Y5786D01*
X11427Y5808D01*
Y5821D01*
X11422Y5842D01*
X11414Y5855D01*
X11401Y5859D01*
X11392D01*
X11473D02*
X11460Y5855D01*
X11451Y5842D01*
X11447Y5821D01*
Y5808D01*
X11451Y5786D01*
X11460Y5774D01*
X11473Y5769D01*
X11481D01*
X11494Y5774D01*
X11502Y5786D01*
X11507Y5808D01*
Y5821D01*
X11502Y5842D01*
X11494Y5855D01*
X11481Y5859D01*
X11473D01*
X11570D02*
X11527Y5799D01*
X11591D01*
X11570Y5859D02*
Y5769D01*
X6858Y5294D02*
X6816Y5260D01*
X6768D01*
X6858Y5226D02*
X6816Y5260D01*
X6931Y5172D02*
X6991Y5082D01*
Y5172D02*
X6931Y5082D01*
X13146Y4830D02*
X13154Y4835D01*
X13158Y4848D01*
Y4856D01*
X13154Y4869D01*
X13141Y4878D01*
X13120Y4882D01*
X13098D01*
X13081Y4878D01*
X13073Y4869D01*
X13068Y4856D01*
Y4852D01*
X13073Y4839D01*
X13081Y4830D01*
X13094Y4826D01*
X13098D01*
X13111Y4830D01*
X13120Y4839D01*
X13124Y4852D01*
Y4856D01*
X13120Y4869D01*
X13111Y4878D01*
X13098Y4882D01*
X13077Y4802D02*
X13073Y4806D01*
X13068Y4802D01*
X13073Y4798D01*
X13077Y4802D01*
X13158Y4752D02*
X13154Y4765D01*
X13141Y4774D01*
X13120Y4778D01*
X13107D01*
X13086Y4774D01*
X13073Y4765D01*
X13068Y4752D01*
Y4744D01*
X13073Y4731D01*
X13086Y4722D01*
X13107Y4718D01*
X13120D01*
X13141Y4722D01*
X13154Y4731D01*
X13158Y4744D01*
Y4752D01*
X11158Y4839D02*
X11098Y4882D01*
Y4818D01*
X11158Y4839D02*
X11068D01*
X11077Y4797D02*
X11073Y4802D01*
X11068Y4797D01*
X11073Y4793D01*
X11077Y4797D01*
X11158Y4748D02*
X11154Y4761D01*
X11141Y4769D01*
X11120Y4773D01*
X11107D01*
X11086Y4769D01*
X11073Y4761D01*
X11068Y4748D01*
Y4739D01*
X11073Y4726D01*
X11086Y4718D01*
X11107Y4713D01*
X11120D01*
X11141Y4718D01*
X11154Y4726D01*
X11158Y4739D01*
Y4748D01*
X9137Y4878D02*
X9141D01*
X9150Y4873D01*
X9154Y4869D01*
X9158Y4860D01*
Y4843D01*
X9154Y4835D01*
X9150Y4830D01*
X9141Y4826D01*
X9133D01*
X9124Y4830D01*
X9111Y4839D01*
X9068Y4882D01*
Y4822D01*
X9077Y4797D02*
X9073Y4802D01*
X9068Y4797D01*
X9073Y4793D01*
X9077Y4797D01*
X9158Y4748D02*
X9154Y4761D01*
X9141Y4769D01*
X9120Y4773D01*
X9107D01*
X9086Y4769D01*
X9073Y4761D01*
X9068Y4748D01*
Y4739D01*
X9073Y4726D01*
X9086Y4718D01*
X9107Y4713D01*
X9120D01*
X9141Y4718D01*
X9154Y4726D01*
X9158Y4739D01*
Y4748D01*
X7158Y4856D02*
X7154Y4869D01*
X7141Y4878D01*
X7120Y4882D01*
X7107D01*
X7086Y4878D01*
X7073Y4869D01*
X7068Y4856D01*
Y4848D01*
X7073Y4835D01*
X7086Y4826D01*
X7107Y4822D01*
X7120D01*
X7141Y4826D01*
X7154Y4835D01*
X7158Y4848D01*
Y4856D01*
X8141Y4882D02*
X8146Y4873D01*
X8158Y4860D01*
X8068D01*
X8077Y4812D02*
X8073Y4816D01*
X8068Y4812D01*
X8073Y4807D01*
X8077Y4812D01*
X8158Y4762D02*
X8154Y4775D01*
X8141Y4783D01*
X8120Y4788D01*
X8107D01*
X8086Y4783D01*
X8073Y4775D01*
X8068Y4762D01*
Y4753D01*
X8073Y4740D01*
X8086Y4732D01*
X8107Y4728D01*
X8120D01*
X8141Y4732D01*
X8154Y4740D01*
X8158Y4753D01*
Y4762D01*
X10158Y4873D02*
Y4826D01*
X10124Y4852D01*
Y4839D01*
X10120Y4830D01*
X10116Y4826D01*
X10103Y4822D01*
X10094D01*
X10081Y4826D01*
X10073Y4835D01*
X10068Y4848D01*
Y4860D01*
X10073Y4873D01*
X10077Y4878D01*
X10086Y4882D01*
X10077Y4797D02*
X10073Y4802D01*
X10068Y4797D01*
X10073Y4793D01*
X10077Y4797D01*
X10158Y4748D02*
X10154Y4761D01*
X10141Y4769D01*
X10120Y4773D01*
X10107D01*
X10086Y4769D01*
X10073Y4761D01*
X10068Y4748D01*
Y4739D01*
X10073Y4726D01*
X10086Y4718D01*
X10107Y4713D01*
X10120D01*
X10141Y4718D01*
X10154Y4726D01*
X10158Y4739D01*
Y4748D01*
X12158Y4830D02*
Y4873D01*
X12120Y4878D01*
X12124Y4873D01*
X12128Y4860D01*
Y4848D01*
X12124Y4835D01*
X12116Y4826D01*
X12103Y4822D01*
X12094D01*
X12081Y4826D01*
X12073Y4835D01*
X12068Y4848D01*
Y4860D01*
X12073Y4873D01*
X12077Y4878D01*
X12086Y4882D01*
X12077Y4797D02*
X12073Y4802D01*
X12068Y4797D01*
X12073Y4793D01*
X12077Y4797D01*
X12158Y4748D02*
X12154Y4761D01*
X12141Y4769D01*
X12120Y4773D01*
X12107D01*
X12086Y4769D01*
X12073Y4761D01*
X12068Y4748D01*
Y4739D01*
X12073Y4726D01*
X12086Y4718D01*
X12107Y4713D01*
X12120D01*
X12141Y4718D01*
X12154Y4726D01*
X12158Y4739D01*
Y4748D01*
X14158Y4822D02*
X14068Y4865D01*
X14158Y4882D02*
Y4822D01*
X14077Y4797D02*
X14073Y4802D01*
X14068Y4797D01*
X14073Y4793D01*
X14077Y4797D01*
X14158Y4748D02*
X14154Y4761D01*
X14141Y4769D01*
X14120Y4773D01*
X14107D01*
X14086Y4769D01*
X14073Y4761D01*
X14068Y4748D01*
Y4739D01*
X14073Y4726D01*
X14086Y4718D01*
X14107Y4713D01*
X14120D01*
X14141Y4718D01*
X14154Y4726D01*
X14158Y4739D01*
Y4748D01*
X6445Y10472D02*
X6402D01*
X6398Y10433D01*
X6402Y10438D01*
X6415Y10442D01*
X6428D01*
X6441Y10438D01*
X6449Y10429D01*
X6453Y10416D01*
Y10408D01*
X6449Y10395D01*
X6441Y10386D01*
X6428Y10382D01*
X6415D01*
X6402Y10386D01*
X6398Y10390D01*
X6393Y10399D01*
X6478Y10390D02*
X6474Y10386D01*
X6478Y10382D01*
X6482Y10386D01*
X6478Y10390D01*
X6528Y10472D02*
X6515Y10467D01*
X6506Y10455D01*
X6502Y10433D01*
Y10420D01*
X6506Y10399D01*
X6515Y10386D01*
X6528Y10382D01*
X6536D01*
X6549Y10386D01*
X6558Y10399D01*
X6562Y10420D01*
Y10433D01*
X6558Y10455D01*
X6549Y10467D01*
X6536Y10472D01*
X6528D01*
X6402Y8472D02*
X6449D01*
X6423Y8438D01*
X6436D01*
X6445Y8433D01*
X6449Y8429D01*
X6453Y8416D01*
Y8408D01*
X6449Y8395D01*
X6441Y8386D01*
X6428Y8382D01*
X6415D01*
X6402Y8386D01*
X6398Y8390D01*
X6393Y8399D01*
X6478Y8390D02*
X6474Y8386D01*
X6478Y8382D01*
X6482Y8386D01*
X6478Y8390D01*
X6528Y8472D02*
X6515Y8467D01*
X6506Y8455D01*
X6502Y8433D01*
Y8420D01*
X6506Y8399D01*
X6515Y8386D01*
X6528Y8382D01*
X6536D01*
X6549Y8386D01*
X6558Y8399D01*
X6562Y8420D01*
Y8433D01*
X6558Y8455D01*
X6549Y8467D01*
X6536Y8472D01*
X6528D01*
X6418Y6455D02*
X6427Y6459D01*
X6440Y6472D01*
Y6382D01*
X6489Y6390D02*
X6484Y6386D01*
X6489Y6382D01*
X6493Y6386D01*
X6489Y6390D01*
X6538Y6472D02*
X6526Y6468D01*
X6517Y6455D01*
X6513Y6433D01*
Y6420D01*
X6517Y6399D01*
X6526Y6386D01*
X6538Y6382D01*
X6547D01*
X6560Y6386D01*
X6568Y6399D01*
X6573Y6420D01*
Y6433D01*
X6568Y6455D01*
X6560Y6468D01*
X6547Y6472D01*
X6538D01*
X6532Y5472D02*
X6519Y5468D01*
X6510Y5455D01*
X6506Y5433D01*
Y5420D01*
X6510Y5399D01*
X6519Y5386D01*
X6532Y5382D01*
X6540D01*
X6553Y5386D01*
X6562Y5399D01*
X6566Y5420D01*
Y5433D01*
X6562Y5455D01*
X6553Y5468D01*
X6540Y5472D01*
X6532D01*
X6398Y7450D02*
Y7455D01*
X6402Y7463D01*
X6406Y7468D01*
X6415Y7472D01*
X6432D01*
X6441Y7468D01*
X6445Y7463D01*
X6449Y7455D01*
Y7446D01*
X6445Y7438D01*
X6436Y7425D01*
X6393Y7382D01*
X6453D01*
X6478Y7390D02*
X6474Y7386D01*
X6478Y7382D01*
X6482Y7386D01*
X6478Y7390D01*
X6528Y7472D02*
X6515Y7468D01*
X6506Y7455D01*
X6502Y7433D01*
Y7420D01*
X6506Y7399D01*
X6515Y7386D01*
X6528Y7382D01*
X6536D01*
X6549Y7386D01*
X6558Y7399D01*
X6562Y7420D01*
Y7433D01*
X6558Y7455D01*
X6549Y7468D01*
X6536Y7472D01*
X6528D01*
X6436Y9472D02*
X6393Y9412D01*
X6458D01*
X6436Y9472D02*
Y9382D01*
X6478Y9390D02*
X6474Y9386D01*
X6478Y9382D01*
X6482Y9386D01*
X6478Y9390D01*
X6528Y9472D02*
X6515Y9467D01*
X6506Y9455D01*
X6502Y9433D01*
Y9420D01*
X6506Y9399D01*
X6515Y9386D01*
X6528Y9382D01*
X6536D01*
X6549Y9386D01*
X6558Y9399D01*
X6562Y9420D01*
Y9433D01*
X6558Y9455D01*
X6549Y9467D01*
X6536Y9472D01*
X6528D01*
X6445Y11459D02*
X6441Y11467D01*
X6428Y11472D01*
X6419D01*
X6406Y11467D01*
X6398Y11455D01*
X6393Y11433D01*
Y11412D01*
X6398Y11395D01*
X6406Y11386D01*
X6419Y11382D01*
X6423D01*
X6436Y11386D01*
X6445Y11395D01*
X6449Y11408D01*
Y11412D01*
X6445Y11425D01*
X6436Y11433D01*
X6423Y11438D01*
X6419D01*
X6406Y11433D01*
X6398Y11425D01*
X6393Y11412D01*
X6473Y11390D02*
X6469Y11386D01*
X6473Y11382D01*
X6477Y11386D01*
X6473Y11390D01*
X6523Y11472D02*
X6510Y11467D01*
X6501Y11455D01*
X6497Y11433D01*
Y11420D01*
X6501Y11399D01*
X6510Y11386D01*
X6523Y11382D01*
X6531D01*
X6544Y11386D01*
X6553Y11399D01*
X6557Y11420D01*
Y11433D01*
X6553Y11455D01*
X6544Y11467D01*
X6531Y11472D01*
X6523D01*
D51*
X11211Y5601D02*
X11208Y5605D01*
X11204Y5610D01*
X11200Y5612D01*
X11191D01*
X11187Y5610D01*
X11183Y5605D01*
X11181Y5601D01*
X11178Y5595D01*
Y5584D01*
X11181Y5578D01*
X11183Y5573D01*
X11187Y5569D01*
X11191Y5567D01*
X11200D01*
X11204Y5569D01*
X11208Y5573D01*
X11211Y5578D01*
Y5584D01*
X11200D02*
X11211D01*
X11249Y5612D02*
X11221D01*
Y5567D01*
X11249D01*
X11221Y5590D02*
X11238D01*
X11256Y5612D02*
Y5567D01*
Y5612D02*
X11276D01*
X11282Y5610D01*
X11284Y5608D01*
X11286Y5603D01*
Y5599D01*
X11284Y5595D01*
X11282Y5593D01*
X11276Y5590D01*
X11256D01*
X11271D02*
X11286Y5567D01*
X11296Y5612D02*
Y5567D01*
Y5612D02*
X11316D01*
X11322Y5610D01*
X11324Y5608D01*
X11326Y5603D01*
Y5599D01*
X11324Y5595D01*
X11322Y5593D01*
X11316Y5590D01*
X11296D02*
X11316D01*
X11322Y5588D01*
X11324Y5586D01*
X11326Y5582D01*
Y5575D01*
X11324Y5571D01*
X11322Y5569D01*
X11316Y5567D01*
X11296D01*
X11364Y5612D02*
X11336D01*
Y5567D01*
X11364D01*
X11336Y5590D02*
X11354D01*
X11372Y5612D02*
Y5567D01*
Y5612D02*
X11391D01*
X11397Y5610D01*
X11400Y5608D01*
X11402Y5603D01*
Y5599D01*
X11400Y5595D01*
X11397Y5593D01*
X11391Y5590D01*
X11372D01*
X11387D02*
X11402Y5567D01*
X11414Y5597D02*
X11412Y5595D01*
X11414Y5593D01*
X11416Y5595D01*
X11414Y5597D01*
Y5571D02*
X11412Y5569D01*
X11414Y5567D01*
X11416Y5569D01*
X11414Y5571D01*
X7518Y5612D02*
Y5567D01*
Y5612D02*
X7546D01*
X7518Y5590D02*
X7536D01*
X7551Y5612D02*
Y5567D01*
X7561Y5612D02*
Y5567D01*
X7587D01*
X7619Y5612D02*
X7592D01*
Y5567D01*
X7619D01*
X7592Y5590D02*
X7609D01*
X7662Y5612D02*
Y5567D01*
Y5612D02*
X7692Y5567D01*
Y5612D02*
Y5567D01*
X7739D02*
X7722Y5612D01*
X7705Y5567D01*
X7711Y5582D02*
X7733D01*
X7749Y5612D02*
Y5567D01*
Y5612D02*
X7767Y5567D01*
X7784Y5612D02*
X7767Y5567D01*
X7784Y5612D02*
Y5567D01*
X7824Y5612D02*
X7797D01*
Y5567D01*
X7824D01*
X7797Y5590D02*
X7814D01*
X7834Y5597D02*
X7832Y5595D01*
X7834Y5593D01*
X7836Y5595D01*
X7834Y5597D01*
Y5571D02*
X7832Y5569D01*
X7834Y5567D01*
X7836Y5569D01*
X7834Y5571D01*
X7546Y5972D02*
X7518D01*
Y5927D01*
X7546D01*
X7518Y5950D02*
X7536D01*
X7554Y5972D02*
Y5927D01*
Y5972D02*
X7584Y5927D01*
Y5972D02*
Y5927D01*
X7628Y5961D02*
X7626Y5965D01*
X7622Y5970D01*
X7618Y5972D01*
X7609D01*
X7605Y5970D01*
X7601Y5965D01*
X7598Y5961D01*
X7596Y5955D01*
Y5944D01*
X7598Y5938D01*
X7601Y5933D01*
X7605Y5929D01*
X7609Y5927D01*
X7618D01*
X7622Y5929D01*
X7626Y5933D01*
X7628Y5938D01*
Y5944D01*
X7618D02*
X7628D01*
X7639Y5972D02*
Y5927D01*
X7648Y5972D02*
Y5927D01*
Y5972D02*
X7678Y5927D01*
Y5972D02*
Y5927D01*
X7718Y5972D02*
X7691D01*
Y5927D01*
X7718D01*
X7691Y5950D02*
X7708D01*
X7754Y5972D02*
X7726D01*
Y5927D01*
X7754D01*
X7726Y5950D02*
X7743D01*
X7761Y5972D02*
Y5927D01*
Y5972D02*
X7781D01*
X7787Y5970D01*
X7789Y5968D01*
X7791Y5963D01*
Y5959D01*
X7789Y5955D01*
X7787Y5953D01*
X7781Y5950D01*
X7761D01*
X7776D02*
X7791Y5927D01*
X7803Y5957D02*
X7801Y5955D01*
X7803Y5953D01*
X7806Y5955D01*
X7803Y5957D01*
Y5931D02*
X7801Y5929D01*
X7803Y5927D01*
X7806Y5929D01*
X7803Y5931D01*
X8421Y6364D02*
Y6319D01*
X8406Y6364D02*
X8436D01*
X8441D02*
Y6319D01*
X8466Y6364D02*
Y6319D01*
X8451Y6364D02*
X8481D01*
X8486D02*
Y6319D01*
X8512D01*
X8545Y6364D02*
X8517D01*
Y6319D01*
X8545D01*
X8517Y6343D02*
X8534D01*
X8554Y6349D02*
X8552Y6347D01*
X8554Y6345D01*
X8556Y6347D01*
X8554Y6349D01*
Y6324D02*
X8552Y6321D01*
X8554Y6319D01*
X8556Y6321D01*
X8554Y6324D01*
X8418Y5866D02*
X8438D01*
X8444Y5868D01*
X8446Y5870D01*
X8448Y5874D01*
Y5881D01*
X8446Y5885D01*
X8444Y5887D01*
X8438Y5889D01*
X8418D01*
Y5844D01*
X8493D02*
X8476Y5889D01*
X8459Y5844D01*
X8465Y5859D02*
X8486D01*
X8503Y5889D02*
Y5844D01*
Y5889D02*
X8523D01*
X8529Y5887D01*
X8531Y5885D01*
X8533Y5881D01*
Y5876D01*
X8531Y5872D01*
X8529Y5870D01*
X8523Y5868D01*
X8503D01*
X8518D02*
X8533Y5844D01*
X8558Y5889D02*
Y5844D01*
X8543Y5889D02*
X8573D01*
X8614D02*
Y5844D01*
Y5889D02*
X8644Y5844D01*
Y5889D02*
Y5844D01*
X8669Y5889D02*
X8665Y5887D01*
X8661Y5883D01*
X8659Y5879D01*
X8657Y5872D01*
Y5861D01*
X8659Y5855D01*
X8661Y5851D01*
X8665Y5846D01*
X8669Y5844D01*
X8678D01*
X8682Y5846D01*
X8687Y5851D01*
X8689Y5855D01*
X8691Y5861D01*
Y5872D01*
X8689Y5879D01*
X8687Y5883D01*
X8682Y5887D01*
X8678Y5889D01*
X8669D01*
X8703Y5849D02*
X8701Y5846D01*
X8703Y5844D01*
X8706Y5846D01*
X8703Y5849D01*
X8718Y5874D02*
X8715Y5872D01*
X8718Y5870D01*
X8720Y5872D01*
X8718Y5874D01*
Y5849D02*
X8715Y5846D01*
X8718Y5844D01*
X8720Y5846D01*
X8718Y5849D01*
X7546Y6352D02*
X7518D01*
Y6307D01*
X7546D01*
X7518Y6330D02*
X7536D01*
X7554Y6352D02*
Y6307D01*
Y6352D02*
X7584Y6307D01*
Y6352D02*
Y6307D01*
X7628Y6341D02*
X7626Y6345D01*
X7622Y6350D01*
X7618Y6352D01*
X7609D01*
X7605Y6350D01*
X7601Y6345D01*
X7598Y6341D01*
X7596Y6335D01*
Y6324D01*
X7598Y6318D01*
X7601Y6313D01*
X7605Y6309D01*
X7609Y6307D01*
X7618D01*
X7622Y6309D01*
X7626Y6313D01*
X7628Y6318D01*
Y6324D01*
X7618D02*
X7628D01*
X7639Y6352D02*
Y6307D01*
X7648Y6352D02*
Y6307D01*
Y6352D02*
X7678Y6307D01*
Y6352D02*
Y6307D01*
X7718Y6352D02*
X7691D01*
Y6307D01*
X7718D01*
X7691Y6330D02*
X7708D01*
X7754Y6352D02*
X7726D01*
Y6307D01*
X7754D01*
X7726Y6330D02*
X7743D01*
X7761Y6352D02*
Y6307D01*
Y6352D02*
X7781D01*
X7787Y6350D01*
X7789Y6348D01*
X7791Y6343D01*
Y6339D01*
X7789Y6335D01*
X7787Y6333D01*
X7781Y6330D01*
X7761D01*
X7776D02*
X7791Y6307D01*
X7803Y6337D02*
X7801Y6335D01*
X7803Y6333D01*
X7806Y6335D01*
X7803Y6337D01*
Y6311D02*
X7801Y6309D01*
X7803Y6307D01*
X7806Y6309D01*
X7803Y6311D01*
X9358Y5612D02*
Y5567D01*
X9384D01*
X9423D02*
X9406Y5612D01*
X9389Y5567D01*
X9396Y5582D02*
X9417D01*
X9434Y5612D02*
X9451Y5590D01*
Y5567D01*
X9468Y5612D02*
X9451Y5590D01*
X9502Y5612D02*
X9474D01*
Y5567D01*
X9502D01*
X9474Y5590D02*
X9491D01*
X9509Y5612D02*
Y5567D01*
Y5612D02*
X9529D01*
X9535Y5610D01*
X9537Y5608D01*
X9539Y5603D01*
Y5599D01*
X9537Y5595D01*
X9535Y5593D01*
X9529Y5590D01*
X9509D01*
X9524D02*
X9539Y5567D01*
X9552Y5597D02*
X9549Y5595D01*
X9552Y5593D01*
X9554Y5595D01*
X9552Y5597D01*
Y5571D02*
X9549Y5569D01*
X9552Y5567D01*
X9554Y5569D01*
X9552Y5571D01*
X7518Y5766D02*
X7538D01*
X7544Y5768D01*
X7546Y5770D01*
X7548Y5774D01*
Y5781D01*
X7546Y5785D01*
X7544Y5787D01*
X7538Y5789D01*
X7518D01*
Y5744D01*
X7559Y5789D02*
Y5744D01*
X7589Y5789D02*
Y5744D01*
X7559Y5768D02*
X7589D01*
X7614Y5789D02*
X7610Y5787D01*
X7605Y5783D01*
X7603Y5779D01*
X7601Y5772D01*
Y5761D01*
X7603Y5755D01*
X7605Y5751D01*
X7610Y5746D01*
X7614Y5744D01*
X7622D01*
X7627Y5746D01*
X7631Y5751D01*
X7633Y5755D01*
X7635Y5761D01*
Y5772D01*
X7633Y5779D01*
X7631Y5783D01*
X7627Y5787D01*
X7622Y5789D01*
X7614D01*
X7646D02*
Y5744D01*
Y5789D02*
X7676Y5744D01*
Y5789D02*
Y5744D01*
X7716Y5789D02*
X7688D01*
Y5744D01*
X7716D01*
X7688Y5768D02*
X7705D01*
X7726Y5774D02*
X7724Y5772D01*
X7726Y5770D01*
X7728Y5772D01*
X7726Y5774D01*
Y5749D02*
X7724Y5746D01*
X7726Y5744D01*
X7728Y5746D01*
X7726Y5749D01*
X7518Y6141D02*
X7538D01*
X7544Y6143D01*
X7546Y6145D01*
X7548Y6149D01*
Y6156D01*
X7546Y6160D01*
X7544Y6162D01*
X7538Y6164D01*
X7518D01*
Y6119D01*
X7559Y6164D02*
Y6119D01*
X7589Y6164D02*
Y6119D01*
X7559Y6143D02*
X7589D01*
X7614Y6164D02*
X7610Y6162D01*
X7605Y6158D01*
X7603Y6154D01*
X7601Y6147D01*
Y6136D01*
X7603Y6130D01*
X7605Y6126D01*
X7610Y6121D01*
X7614Y6119D01*
X7622D01*
X7627Y6121D01*
X7631Y6126D01*
X7633Y6130D01*
X7635Y6136D01*
Y6147D01*
X7633Y6154D01*
X7631Y6158D01*
X7627Y6162D01*
X7622Y6164D01*
X7614D01*
X7646D02*
Y6119D01*
Y6164D02*
X7676Y6119D01*
Y6164D02*
Y6119D01*
X7716Y6164D02*
X7688D01*
Y6119D01*
X7716D01*
X7688Y6143D02*
X7705D01*
X7726Y6149D02*
X7724Y6147D01*
X7726Y6145D01*
X7728Y6147D01*
X7726Y6149D01*
Y6124D02*
X7724Y6121D01*
X7726Y6119D01*
X7728Y6121D01*
X7726Y6124D01*
X7794Y6164D02*
X7773Y6134D01*
X7805D01*
X7794Y6164D02*
Y6119D01*
X7841Y6149D02*
X7839Y6143D01*
X7834Y6139D01*
X7828Y6136D01*
X7826D01*
X7820Y6139D01*
X7815Y6143D01*
X7813Y6149D01*
Y6151D01*
X7815Y6158D01*
X7820Y6162D01*
X7826Y6164D01*
X7828D01*
X7834Y6162D01*
X7839Y6158D01*
X7841Y6149D01*
Y6139D01*
X7839Y6128D01*
X7834Y6121D01*
X7828Y6119D01*
X7824D01*
X7817Y6121D01*
X7815Y6126D01*
X7879Y6164D02*
X7857D01*
X7855Y6145D01*
X7857Y6147D01*
X7864Y6149D01*
X7870D01*
X7877Y6147D01*
X7881Y6143D01*
X7883Y6136D01*
Y6132D01*
X7881Y6126D01*
X7877Y6121D01*
X7870Y6119D01*
X7864D01*
X7857Y6121D01*
X7855Y6124D01*
X7853Y6128D01*
X7895Y6154D02*
Y6156D01*
X7897Y6160D01*
X7900Y6162D01*
X7904Y6164D01*
X7912D01*
X7917Y6162D01*
X7919Y6160D01*
X7921Y6156D01*
Y6151D01*
X7919Y6147D01*
X7915Y6141D01*
X7893Y6119D01*
X7923D01*
X7933Y6139D02*
X7972D01*
X7996Y6164D02*
X7989Y6162D01*
X7987Y6158D01*
Y6154D01*
X7989Y6149D01*
X7994Y6147D01*
X8002Y6145D01*
X8009Y6143D01*
X8013Y6139D01*
X8015Y6134D01*
Y6128D01*
X8013Y6124D01*
X8011Y6121D01*
X8004Y6119D01*
X7996D01*
X7989Y6121D01*
X7987Y6124D01*
X7985Y6128D01*
Y6134D01*
X7987Y6139D01*
X7992Y6143D01*
X7998Y6145D01*
X8007Y6147D01*
X8011Y6149D01*
X8013Y6154D01*
Y6158D01*
X8011Y6162D01*
X8004Y6164D01*
X7996D01*
X8055D02*
X8034Y6119D01*
X8025Y6164D02*
X8055D01*
X8091D02*
X8070D01*
X8067Y6145D01*
X8070Y6147D01*
X8076Y6149D01*
X8082D01*
X8089Y6147D01*
X8093Y6143D01*
X8095Y6136D01*
Y6132D01*
X8093Y6126D01*
X8089Y6121D01*
X8082Y6119D01*
X8076D01*
X8070Y6121D01*
X8067Y6124D01*
X8065Y6128D01*
X8131Y6164D02*
X8110D01*
X8107Y6145D01*
X8110Y6147D01*
X8116Y6149D01*
X8122D01*
X8129Y6147D01*
X8133Y6143D01*
X8135Y6136D01*
Y6132D01*
X8133Y6126D01*
X8129Y6121D01*
X8122Y6119D01*
X8116D01*
X8110Y6121D01*
X8107Y6124D01*
X8105Y6128D01*
X10156Y5889D02*
Y5844D01*
Y5889D02*
X10175D01*
X10182Y5887D01*
X10184Y5885D01*
X10186Y5881D01*
Y5876D01*
X10184Y5872D01*
X10182Y5870D01*
X10175Y5868D01*
X10156D01*
X10171D02*
X10186Y5844D01*
X10224Y5889D02*
X10196D01*
Y5844D01*
X10224D01*
X10196Y5868D02*
X10213D01*
X10231Y5889D02*
X10249Y5844D01*
X10266Y5889D02*
X10249Y5844D01*
X10274Y5874D02*
X10271Y5872D01*
X10274Y5870D01*
X10276Y5872D01*
X10274Y5874D01*
Y5849D02*
X10271Y5846D01*
X10274Y5844D01*
X10276Y5846D01*
X10274Y5849D01*
X10618Y5889D02*
Y5844D01*
Y5889D02*
X10633D01*
X10640Y5887D01*
X10644Y5883D01*
X10646Y5879D01*
X10648Y5872D01*
Y5861D01*
X10646Y5855D01*
X10644Y5851D01*
X10640Y5846D01*
X10633Y5844D01*
X10618D01*
X10693D02*
X10676Y5889D01*
X10659Y5844D01*
X10665Y5859D02*
X10686D01*
X10718Y5889D02*
Y5844D01*
X10703Y5889D02*
X10733D01*
X10767D02*
X10739D01*
Y5844D01*
X10767D01*
X10739Y5868D02*
X10756D01*
X10776Y5874D02*
X10774Y5872D01*
X10776Y5870D01*
X10778Y5872D01*
X10776Y5874D01*
Y5849D02*
X10774Y5846D01*
X10776Y5844D01*
X10778Y5846D01*
X10776Y5849D01*
D76*
X9243Y5607D02*
X9243Y5617D01*
X9240Y5626D01*
X9235Y5635D01*
X9229Y5642D01*
X9221Y5648D01*
X9213Y5653D01*
X9203Y5656D01*
X9193Y5657D01*
X9195Y5457D02*
X9204Y5458D01*
X9214Y5460D01*
X9222Y5465D01*
X9230Y5471D01*
X9236Y5479D01*
X9240Y5487D01*
X9243Y5497D01*
X9243Y5506D01*
X9343Y5657D02*
X9334Y5656D01*
X9324Y5653D01*
X9316Y5648D01*
X9308Y5642D01*
X9302Y5635D01*
X9297Y5626D01*
X9294Y5617D01*
X9293Y5607D01*
Y5507D02*
X9294Y5497D01*
X9297Y5488D01*
X9302Y5479D01*
X9308Y5472D01*
X9315Y5466D01*
X9324Y5461D01*
X9333Y5458D01*
X9343Y5457D01*
X11068Y5607D02*
X11068Y5617D01*
X11065Y5626D01*
X11060Y5635D01*
X11054Y5642D01*
X11046Y5648D01*
X11038Y5653D01*
X11028Y5656D01*
X11018Y5657D01*
X11020Y5457D02*
X11029Y5458D01*
X11039Y5460D01*
X11047Y5465D01*
X11055Y5471D01*
X11061Y5479D01*
X11065Y5487D01*
X11068Y5497D01*
X11068Y5506D01*
X11118Y5506D02*
X11119Y5496D01*
X11122Y5487D01*
X11127Y5478D01*
X11133Y5471D01*
X11141Y5465D01*
X11149Y5460D01*
X11159Y5458D01*
X11168Y5457D01*
X11168Y5657D02*
X11159Y5656D01*
X11149Y5653D01*
X11141Y5648D01*
X11133Y5642D01*
X11127Y5635D01*
X11122Y5626D01*
X11119Y5617D01*
X11118Y5607D01*
X8318Y6358D02*
X8318Y6367D01*
X8315Y6377D01*
X8310Y6385D01*
X8304Y6392D01*
X8297Y6399D01*
X8288Y6403D01*
X8279Y6406D01*
X8269Y6407D01*
X8270Y6082D02*
X8280Y6083D01*
X8289Y6085D01*
X8297Y6090D01*
X8304Y6096D01*
X8310Y6103D01*
X8315Y6111D01*
X8318Y6120D01*
X8318Y6130D01*
Y5983D02*
X8318Y5993D01*
X8315Y6002D01*
X8310Y6011D01*
X8304Y6018D01*
X8296Y6024D01*
X8287Y6029D01*
X8278Y6031D01*
X8268Y6032D01*
X8368Y6031D02*
X8369Y6021D01*
X8372Y6012D01*
X8377Y6004D01*
X8383Y5996D01*
X8390Y5990D01*
X8399Y5986D01*
X8408Y5983D01*
X8417Y5982D01*
X8368Y5756D02*
X8369Y5746D01*
X8372Y5737D01*
X8377Y5729D01*
X8383Y5721D01*
X8390Y5715D01*
X8399Y5711D01*
X8408Y5708D01*
X8417Y5707D01*
X8269D02*
X8279Y5708D01*
X8288Y5711D01*
X8297Y5715D01*
X8304Y5721D01*
X8310Y5729D01*
X8315Y5737D01*
X8318Y5746D01*
X8318Y5756D01*
X10068Y5883D02*
X10068Y5892D01*
X10065Y5902D01*
X10060Y5910D01*
X10054Y5917D01*
X10047Y5924D01*
X10038Y5928D01*
X10029Y5931D01*
X10019Y5932D01*
Y5707D02*
X10029Y5708D01*
X10038Y5711D01*
X10047Y5715D01*
X10054Y5721D01*
X10061Y5729D01*
X10065Y5738D01*
X10068Y5747D01*
X10068Y5757D01*
X10118Y5758D02*
X10119Y5748D01*
X10122Y5738D01*
X10127Y5730D01*
X10133Y5722D01*
X10141Y5716D01*
X10149Y5711D01*
X10159Y5708D01*
X10169Y5707D01*
X10166Y5932D02*
X10157Y5931D01*
X10148Y5928D01*
X10139Y5923D01*
X10132Y5917D01*
X10126Y5909D01*
X10121Y5900D01*
X10119Y5891D01*
X10119Y5881D01*
X8418Y5932D02*
X8409Y5931D01*
X8399Y5928D01*
X8391Y5923D01*
X8383Y5917D01*
X8377Y5910D01*
X8372Y5901D01*
X8369Y5892D01*
X8368Y5882D01*
X8418Y6407D02*
X8409Y6406D01*
X8399Y6403D01*
X8391Y6398D01*
X8383Y6392D01*
X8377Y6385D01*
X8372Y6376D01*
X8369Y6367D01*
X8368Y6357D01*
X7468Y5757D02*
X7469Y5747D01*
X7472Y5738D01*
X7477Y5729D01*
X7483Y5722D01*
X7490Y5716D01*
X7499Y5711D01*
X7508Y5708D01*
X7518Y5707D01*
X7518Y6032D02*
X7509Y6031D01*
X7499Y6028D01*
X7491Y6023D01*
X7483Y6017D01*
X7477Y6010D01*
X7472Y6001D01*
X7469Y5992D01*
X7468Y5982D01*
Y6132D02*
X7469Y6122D01*
X7472Y6113D01*
X7477Y6104D01*
X7483Y6096D01*
X7491Y6090D01*
X7499Y6086D01*
X7509Y6083D01*
X7518Y6082D01*
Y6407D02*
X7509Y6406D01*
X7499Y6403D01*
X7491Y6398D01*
X7483Y6392D01*
X7477Y6385D01*
X7472Y6376D01*
X7469Y6367D01*
X7468Y6357D01*
Y6507D02*
X7469Y6497D01*
X7472Y6488D01*
X7477Y6479D01*
X7483Y6471D01*
X7491Y6465D01*
X7499Y6461D01*
X7509Y6458D01*
X7518Y6457D01*
Y6657D02*
X7509Y6656D01*
X7499Y6653D01*
X7491Y6648D01*
X7483Y6642D01*
X7477Y6635D01*
X7472Y6626D01*
X7469Y6617D01*
X7468Y6607D01*
X10518D02*
X10518Y6617D01*
X10515Y6626D01*
X10510Y6635D01*
X10504Y6642D01*
X10496Y6648D01*
X10488Y6653D01*
X10478Y6656D01*
X10468Y6657D01*
X10618D02*
X10609Y6656D01*
X10599Y6653D01*
X10591Y6648D01*
X10583Y6642D01*
X10577Y6635D01*
X10572Y6626D01*
X10569Y6617D01*
X10568Y6607D01*
X10468Y6457D02*
X10478Y6458D01*
X10488Y6461D01*
X10496Y6465D01*
X10504Y6471D01*
X10510Y6479D01*
X10515Y6488D01*
X10518Y6497D01*
X10518Y6507D01*
Y6357D02*
X10518Y6367D01*
X10515Y6376D01*
X10510Y6385D01*
X10504Y6392D01*
X10496Y6398D01*
X10488Y6403D01*
X10478Y6406D01*
X10468Y6407D01*
X7518Y5657D02*
X7509Y5656D01*
X7499Y5653D01*
X7491Y5648D01*
X7483Y5642D01*
X7477Y5635D01*
X7472Y5626D01*
X7469Y5617D01*
X7468Y5607D01*
X10469Y5982D02*
X10479Y5983D01*
X10488Y5986D01*
X10497Y5991D01*
X10504Y5997D01*
X10510Y6004D01*
X10515Y6013D01*
X10518Y6022D01*
X10519Y6032D01*
X7468Y5507D02*
X7469Y5497D01*
X7472Y5488D01*
X7477Y5479D01*
X7483Y5472D01*
X7490Y5466D01*
X7499Y5461D01*
X7508Y5458D01*
X7518Y5457D01*
X10518Y5883D02*
X10518Y5892D01*
X10515Y5902D01*
X10510Y5910D01*
X10504Y5917D01*
X10497Y5924D01*
X10488Y5928D01*
X10479Y5931D01*
X10469Y5932D01*
X10568Y5756D02*
X10569Y5746D01*
X10572Y5737D01*
X10577Y5728D01*
X10583Y5721D01*
X10591Y5715D01*
X10599Y5710D01*
X10609Y5708D01*
X10618Y5707D01*
X10468Y5707D02*
X10478Y5708D01*
X10488Y5711D01*
X10496Y5715D01*
X10504Y5721D01*
X10510Y5729D01*
X10515Y5738D01*
X10518Y5747D01*
X10518Y5757D01*
X11718Y5457D02*
X11728Y5458D01*
X11738Y5461D01*
X11746Y5465D01*
X11754Y5471D01*
X11760Y5479D01*
X11765Y5488D01*
X11768Y5497D01*
X11768Y5507D01*
X11768Y5608D02*
X11767Y5617D01*
X11764Y5627D01*
X11760Y5635D01*
X11754Y5642D01*
X11746Y5649D01*
X11737Y5653D01*
X11728Y5656D01*
X11718Y5657D01*
Y5707D02*
X11728Y5708D01*
X11738Y5711D01*
X11746Y5715D01*
X11754Y5721D01*
X11760Y5729D01*
X11765Y5738D01*
X11768Y5747D01*
X11768Y5757D01*
Y6608D02*
X11768Y6618D01*
X11765Y6627D01*
X11760Y6636D01*
X11754Y6643D01*
X11746Y6649D01*
X11737Y6654D01*
X11728Y6656D01*
X11718Y6657D01*
X10568Y6032D02*
X10569Y6022D01*
X10572Y6013D01*
X10577Y6004D01*
X10583Y5996D01*
X10591Y5990D01*
X10599Y5986D01*
X10609Y5983D01*
X10618Y5982D01*
X11718D02*
X11728Y5983D01*
X11738Y5986D01*
X11746Y5990D01*
X11754Y5996D01*
X11760Y6004D01*
X11765Y6013D01*
X11768Y6022D01*
X11768Y6032D01*
X10618Y5932D02*
X10609Y5931D01*
X10599Y5928D01*
X10591Y5923D01*
X10583Y5917D01*
X10577Y5910D01*
X10572Y5901D01*
X10569Y5892D01*
X10568Y5882D01*
X11768Y5883D02*
X11768Y5892D01*
X11765Y5902D01*
X11760Y5910D01*
X11754Y5917D01*
X11747Y5924D01*
X11738Y5928D01*
X11729Y5931D01*
X11719Y5932D01*
X10568Y5757D02*
Y5882D01*
X11768Y6032D02*
Y6607D01*
X10568Y6032D02*
Y6607D01*
X7468Y5507D02*
Y5607D01*
X11768Y5757D02*
Y5857D01*
Y5507D02*
Y5607D01*
X10518Y5757D02*
Y5882D01*
X10118Y5757D02*
Y5882D01*
X8368Y5757D02*
Y5882D01*
X10068Y5757D02*
Y5882D01*
X8368Y6032D02*
Y6357D01*
X10518Y6032D02*
Y6357D01*
Y6507D02*
Y6607D01*
X7468Y6507D02*
Y6607D01*
X8318Y6132D02*
Y6357D01*
X7468Y6132D02*
Y6357D01*
X8318Y5757D02*
Y5982D01*
X7468Y5757D02*
Y5982D01*
X11118Y5507D02*
Y5607D01*
X11068Y5507D02*
Y5607D01*
X9293Y5507D02*
Y5607D01*
X9243Y5507D02*
Y5607D01*
X10618Y5932D02*
X11718D01*
X10618Y5982D02*
X11718D01*
X8418D02*
X10468D01*
X10618Y6657D02*
X11718D01*
X10618Y5707D02*
X11718D01*
X10168Y5932D02*
X10468D01*
X10168Y5707D02*
X10468D01*
X8418D02*
X10018D01*
X8418Y5932D02*
X10018D01*
X8418Y6407D02*
X10468D01*
X7518Y6457D02*
X10468D01*
X7518Y6407D02*
X8268D01*
X7518Y6082D02*
X8268D01*
X7518Y6032D02*
X8268D01*
X7518Y5707D02*
X8268D01*
X7518Y6657D02*
X10468D01*
X11168Y5657D02*
X11718D01*
X11168Y5457D02*
X11718D01*
X9343Y5657D02*
X11018D01*
X7518D02*
X9193D01*
X7518Y5457D02*
X9193D01*
X9343D02*
X11018D01*
D77*
X10953Y6379D02*
Y6259D01*
X10946Y6237D01*
X10938Y6229D01*
X10923Y6222D01*
X10908D01*
X10893Y6229D01*
X10886Y6237D01*
X10878Y6259D01*
Y6274D01*
X11114Y6222D02*
X11054Y6379D01*
X10994Y6222D01*
X11016Y6274D02*
X11091D01*
X11151Y6379D02*
Y6222D01*
Y6379D02*
X11256Y6222D01*
Y6379D02*
Y6222D01*
X11299Y6379D02*
Y6267D01*
X11307Y6244D01*
X11322Y6229D01*
X11344Y6222D01*
X11359D01*
X11382Y6229D01*
X11397Y6244D01*
X11404Y6267D01*
Y6379D01*
X11553Y6357D02*
X11538Y6372D01*
X11515Y6379D01*
X11485D01*
X11463Y6372D01*
X11448Y6357D01*
Y6342D01*
X11455Y6327D01*
X11463Y6319D01*
X11478Y6312D01*
X11523Y6297D01*
X11538Y6289D01*
X11545Y6282D01*
X11553Y6267D01*
Y6244D01*
X11538Y6229D01*
X11515Y6222D01*
X11485D01*
X11463Y6229D01*
X11448Y6244D01*
M02*
