%FSLAX23Y23*%
%MOIN*%
G70*
G01*
G75*
%ADD10C,0.010*%
%ADD11C,0.050*%
%ADD12R,0.157X0.079*%
%ADD13R,0.100X0.080*%
%ADD14C,0.012*%
%ADD15C,0.015*%
%ADD16C,0.008*%
%ADD17C,0.006*%
%ADD18C,0.009*%
%ADD19C,0.070*%
%ADD20R,0.070X0.070*%
%ADD21C,0.217*%
%ADD22C,0.217*%
%ADD23C,0.058*%
%ADD24C,0.100*%
%ADD25C,0.118*%
%ADD26R,0.118X0.118*%
%ADD27C,0.040*%
%ADD28R,0.083X0.060*%
%ADD29R,0.060X0.083*%
%ADD30R,0.157X0.079*%
%ADD31R,0.036X0.036*%
%ADD32R,0.036X0.050*%
%ADD33R,0.064X0.054*%
%ADD34R,0.060X0.083*%
%ADD35R,0.031X0.102*%
%ADD36O,0.031X0.102*%
%ADD37R,0.054X0.064*%
%ADD38O,0.031X0.087*%
%ADD39R,0.031X0.087*%
%ADD40R,0.197X0.244*%
%ADD41R,0.060X0.050*%
D10*
X10888Y8711D02*
X10898Y8709D01*
X10908Y8708D01*
X10918Y8709D01*
X10852Y8785D02*
X10850Y8772D01*
X10888Y8607D02*
X10888Y8616D01*
X10886Y8625D01*
X10883Y8634D01*
X10878Y8642D01*
X10865Y8557D02*
X10872Y8563D01*
X10878Y8571D01*
X10882Y8579D01*
X10886Y8588D01*
X10888Y8597D01*
X10888Y8607D01*
X10769Y8642D02*
X10764Y8633D01*
X10760Y8623D01*
X10759Y8612D01*
X10759Y8602D01*
X10760Y8592D01*
X10764Y8582D01*
X10768Y8572D01*
X10774Y8564D01*
X10782Y8557D01*
X10888Y8507D02*
X10888Y8516D01*
X10886Y8526D01*
X10882Y8534D01*
X10878Y8543D01*
X10872Y8550D01*
X10865Y8557D01*
Y8457D02*
X10872Y8463D01*
X10878Y8471D01*
X10882Y8479D01*
X10886Y8488D01*
X10888Y8497D01*
X10888Y8507D01*
X10782Y8557D02*
X10775Y8550D01*
X10768Y8541D01*
X10764Y8532D01*
X10760Y8522D01*
X10759Y8512D01*
Y8502D01*
X10760Y8491D01*
X10764Y8482D01*
X10768Y8472D01*
X10775Y8464D01*
X10782Y8457D01*
X10737Y8652D02*
X10736Y8662D01*
X10735Y8672D01*
X10734Y8681D01*
X10731Y8691D01*
X10728Y8700D01*
X10724Y8710D01*
X10720Y8718D01*
X10715Y8727D01*
X10709Y8735D01*
X10703Y8743D01*
X10696Y8750D01*
X10688Y8757D01*
X10681Y8763D01*
X10672Y8769D01*
X10664Y8774D01*
X10655Y8778D01*
X10646Y8782D01*
X10636Y8785D01*
X10561D02*
X10551Y8782D01*
X10542Y8778D01*
X10533Y8773D01*
X10524Y8768D01*
X10516Y8763D01*
X10508Y8756D01*
X10501Y8750D01*
X10494Y8742D01*
X10488Y8734D01*
X10482Y8726D01*
X10477Y8717D01*
X10472Y8708D01*
X10469Y8699D01*
X10465Y8689D01*
X10463Y8680D01*
X10461Y8670D01*
X10460Y8660D01*
X10460Y8650D01*
X10461Y8640D01*
X10462Y8630D01*
X10464Y8620D01*
X10467Y8610D01*
X10470Y8601D01*
X10474Y8592D01*
X10479Y8583D01*
X10484Y8574D01*
X10490Y8566D01*
X10497Y8558D01*
X10504Y8551D01*
X10511Y8545D01*
X10519Y8539D01*
X10528Y8533D01*
X10536Y8528D01*
X10546Y8524D01*
X10555Y8521D01*
X10565Y8518D01*
X10575Y8516D01*
X10584Y8514D01*
X10595Y8514D01*
X10605Y8514D01*
X10615Y8514D01*
X10625Y8516D01*
X10634Y8518D01*
X10644Y8521D01*
X10653Y8525D01*
X10662Y8529D01*
X10671Y8534D01*
X10679Y8540D01*
X10687Y8546D01*
X10695Y8553D01*
X10702Y8560D01*
X10708Y8568D01*
X10714Y8576D01*
X10719Y8584D01*
X10724Y8593D01*
X10728Y8603D01*
X10731Y8612D01*
X10733Y8622D01*
X10735Y8632D01*
X10736Y8642D01*
X10737Y8652D01*
X10888Y8407D02*
X10888Y8416D01*
X10886Y8426D01*
X10882Y8434D01*
X10878Y8443D01*
X10872Y8450D01*
X10865Y8457D01*
Y8357D02*
X10872Y8363D01*
X10878Y8371D01*
X10882Y8379D01*
X10886Y8388D01*
X10888Y8397D01*
X10888Y8407D01*
X10782Y8457D02*
X10775Y8450D01*
X10768Y8441D01*
X10764Y8432D01*
X10760Y8422D01*
X10759Y8412D01*
Y8402D01*
X10760Y8391D01*
X10764Y8382D01*
X10768Y8372D01*
X10775Y8364D01*
X10782Y8357D01*
X10888Y8307D02*
X10888Y8316D01*
X10886Y8326D01*
X10882Y8334D01*
X10878Y8343D01*
X10872Y8350D01*
X10865Y8357D01*
X10782D02*
X10775Y8350D01*
X10769Y8343D01*
X10865Y8257D02*
X10872Y8263D01*
X10878Y8271D01*
X10882Y8279D01*
X10886Y8288D01*
X10888Y8297D01*
X10888Y8307D01*
Y8207D02*
X10888Y8216D01*
X10886Y8226D01*
X10882Y8234D01*
X10878Y8243D01*
X10872Y8250D01*
X10865Y8257D01*
X10769Y8271D02*
X10775Y8263D01*
X10782Y8257D01*
X10865Y8157D02*
X10872Y8163D01*
X10878Y8171D01*
X10882Y8179D01*
X10886Y8188D01*
X10888Y8197D01*
X10888Y8207D01*
X10782Y8257D02*
X10775Y8250D01*
X10768Y8241D01*
X10764Y8232D01*
X10760Y8222D01*
X10759Y8212D01*
Y8202D01*
X10760Y8191D01*
X10764Y8182D01*
X10768Y8172D01*
X10775Y8164D01*
X10782Y8157D01*
X10775Y8150D01*
X10769Y8143D01*
X10588Y8343D02*
X10579Y8342D01*
X10570Y8338D01*
X10563Y8332D01*
X10588Y8343D02*
X10579Y8342D01*
X10570Y8338D01*
X10563Y8332D01*
X10523Y8292D02*
X10517Y8285D01*
X10514Y8276D01*
X10512Y8267D01*
X10523Y8292D02*
X10517Y8285D01*
X10514Y8276D01*
X10512Y8267D01*
X10011Y8721D02*
X10015Y8731D01*
X10018Y8741D01*
X10018Y8752D01*
X10017Y8763D01*
X10014Y8774D01*
X10009Y8785D01*
X10406Y8424D02*
X10406Y8433D01*
X10403Y8442D01*
X10399Y8450D01*
X10393Y8458D01*
X10386Y8464D01*
X10378Y8469D01*
X10392Y8389D02*
X10398Y8397D01*
X10403Y8405D01*
X10406Y8414D01*
X10406Y8424D01*
X10335Y8469D02*
X10326Y8463D01*
X10318Y8456D01*
X10312Y8447D01*
X10308Y8438D01*
X10307Y8427D01*
X10307Y8417D01*
X10309Y8407D01*
X10314Y8397D01*
X10320Y8389D01*
X10198Y8229D02*
X10198Y8232D01*
X10888Y8107D02*
X10888Y8116D01*
X10886Y8126D01*
X10882Y8134D01*
X10878Y8143D01*
X10872Y8150D01*
X10865Y8157D01*
Y8057D02*
X10872Y8063D01*
X10878Y8071D01*
X10882Y8079D01*
X10886Y8088D01*
X10888Y8097D01*
X10888Y8107D01*
X10769Y8071D02*
X10775Y8063D01*
X10782Y8057D01*
X10888Y8007D02*
X10888Y8016D01*
X10886Y8026D01*
X10882Y8034D01*
X10878Y8043D01*
X10872Y8050D01*
X10865Y8057D01*
X10782D02*
X10775Y8050D01*
X10769Y8042D01*
X10764Y8033D01*
X10761Y8023D01*
X10759Y8014D01*
X10759Y8004D01*
X10760Y7994D01*
X10763Y7984D01*
X10767Y7975D01*
X10772Y7967D01*
X10779Y7959D01*
X10787Y7953D01*
X10796Y7948D01*
X10805Y7944D01*
X10815Y7942D01*
X10825Y7942D01*
X10835Y7943D01*
X10845Y7945D01*
X10854Y7949D01*
X10862Y7955D01*
X10870Y7961D01*
X10876Y7969D01*
X10882Y7978D01*
X10885Y7987D01*
X10888Y7997D01*
X10888Y8007D01*
X10282Y8146D02*
X10284Y8137D01*
X10287Y8128D01*
X10292Y8121D01*
X10282Y8146D02*
X10284Y8137D01*
X10287Y8128D01*
X10292Y8121D01*
X10574Y8016D02*
X10580Y8024D01*
X10583Y8032D01*
X10584Y8042D01*
X10574Y8016D02*
X10580Y8024D01*
X10583Y8032D01*
X10584Y8042D01*
X10560Y8003D02*
X10564Y8006D01*
X10560Y8003D02*
X10564Y8006D01*
X10698Y7932D02*
X10696Y7946D01*
X10601D02*
X10599Y7935D01*
X10599Y7924D01*
X10602Y7914D01*
X10607Y7904D01*
X10609Y7901D01*
X10617Y7893D01*
X10625Y7888D01*
X10635Y7884D01*
X10645Y7882D01*
X10655Y7882D01*
X10665Y7885D01*
X10674Y7889D01*
X10683Y7895D01*
X10689Y7903D01*
X10694Y7912D01*
X10697Y7922D01*
X10698Y7932D01*
X10918Y7832D02*
X10911Y7838D01*
X10902Y7844D01*
X10894Y7849D01*
X10885Y7853D01*
X10875Y7857D01*
X10866Y7860D01*
X10856Y7862D01*
X10846Y7864D01*
X10836Y7865D01*
X10826Y7865D01*
X10816Y7864D01*
X10806Y7863D01*
X10796Y7861D01*
X10786Y7858D01*
X10777Y7855D01*
X10767Y7851D01*
X10759Y7846D01*
X10750Y7841D01*
X10742Y7835D01*
X10734Y7828D01*
X10727Y7821D01*
X10721Y7813D01*
X10715Y7805D01*
X10709Y7797D01*
X10704Y7788D01*
X10700Y7779D01*
X10697Y7769D01*
X10694Y7760D01*
X10692Y7750D01*
X10691Y7740D01*
X10690Y7730D01*
X10690Y7720D01*
X10691Y7709D01*
X10693Y7700D01*
X10695Y7690D01*
X10698Y7680D01*
X10702Y7671D01*
X10707Y7662D01*
X10712Y7653D01*
X10717Y7645D01*
X10724Y7637D01*
X9968Y7962D02*
X9978Y7963D01*
X9988Y7966D01*
X9996Y7970D01*
X10283Y7904D02*
X10278Y7914D01*
X10273Y7923D01*
X10267Y7932D01*
X10259Y7940D01*
X10251Y7946D01*
X10146D02*
X10139Y7940D01*
X10132Y7933D01*
X10126Y7925D01*
X10120Y7917D01*
X10116Y7908D01*
X10113Y7899D01*
X10111Y7889D01*
X10110Y7879D01*
X10110Y7869D01*
X10111Y7860D01*
X10113Y7850D01*
X10116Y7841D01*
X10120Y7832D01*
X10126Y7823D01*
X10132Y7816D01*
X10139Y7809D01*
X10146Y7802D01*
X10155Y7797D01*
X10163Y7793D01*
X10173Y7789D01*
X10182Y7787D01*
X10192Y7786D01*
X10202Y7785D01*
X10212Y7786D01*
X10222Y7788D01*
X10231Y7792D01*
X10240Y7796D01*
X10248Y7801D01*
X10256Y7807D01*
X10263Y7813D01*
X10270Y7821D01*
X10275Y7829D01*
X10280Y7838D01*
X9749Y7984D02*
X9759Y7985D01*
X9768Y7988D01*
X9777Y7993D01*
X9784Y7999D01*
X9790Y8006D01*
X9795Y8015D01*
X9798Y8024D01*
X9798Y8034D01*
X9718Y7958D02*
X9726Y7961D01*
X9732Y7966D01*
X9718Y7958D02*
X9726Y7961D01*
X9732Y7966D01*
X9539Y8134D02*
X9539Y8130D01*
X9530Y8129D01*
X9521Y8127D01*
X9513Y8123D01*
X9511Y7989D02*
X9513Y7986D01*
X9511Y7989D02*
X9513Y7986D01*
X9824Y7888D02*
X9823Y7899D01*
X9817Y7909D01*
X9824Y7888D02*
X9823Y7899D01*
X9817Y7909D01*
X9793Y7943D02*
X9785Y7951D01*
X9775Y7956D01*
X9763Y7958D01*
X9792Y7943D02*
X9785Y7951D01*
X9775Y7956D01*
X9763Y7958D01*
X9533Y7966D02*
X9539Y7961D01*
X9547Y7958D01*
X9533Y7966D02*
X9539Y7961D01*
X9547Y7958D01*
X9814Y7736D02*
X9820Y7744D01*
X9823Y7752D01*
X9824Y7762D01*
X9814Y7736D02*
X9820Y7744D01*
X9823Y7752D01*
X9824Y7762D01*
X9653Y7726D02*
X9662Y7720D01*
X9673Y7716D01*
X9653Y7726D02*
X9662Y7720D01*
X9673Y7716D01*
X9188Y8361D02*
X9201Y8363D01*
Y8506D02*
X9191Y8508D01*
X9182Y8508D01*
X9172Y8505D01*
X9163Y8501D01*
X9154Y8505D01*
X9144Y8508D01*
X9133D01*
X9123Y8505D01*
X9113Y8501D01*
X9063Y8501D02*
X9071Y8507D01*
X9078Y8513D01*
X9084Y8521D01*
X9089Y8529D01*
X9093Y8538D01*
X9096Y8548D01*
X9098Y8557D01*
X9098Y8567D01*
X9113Y8501D02*
X9104Y8505D01*
X9094Y8508D01*
X9083D01*
X9073Y8505D01*
X9063Y8501D01*
X8943Y8407D02*
X8944Y8398D01*
X8947Y8389D01*
X8951Y8381D01*
X8958Y8373D01*
X8965Y8368D01*
X8890Y8546D02*
X8878Y8548D01*
X8864Y8584D02*
X8863Y8594D01*
X8860Y8604D01*
X8855Y8612D01*
X8848Y8619D01*
X8840Y8625D01*
X8831Y8628D01*
X8822Y8630D01*
X8812Y8630D01*
X8802Y8627D01*
X8793Y8623D01*
X9098Y8567D02*
X9098Y8577D01*
X9096Y8587D01*
X9093Y8596D01*
X9089Y8605D01*
X9083Y8614D01*
X9077Y8622D01*
X9069Y8629D01*
X9061Y8634D01*
X9052Y8639D01*
X9043Y8643D01*
X9033Y8645D01*
X9023Y8647D01*
X9013Y8647D01*
X9003Y8645D01*
X8994Y8643D01*
X8984Y8639D01*
X8975Y8634D01*
X8967Y8628D01*
X8960Y8621D01*
X8954Y8614D01*
X8948Y8605D01*
X8944Y8596D01*
X8941Y8586D01*
X8939Y8576D01*
X8938Y8566D01*
X8939Y8556D01*
X8941Y8546D01*
X8944Y8537D01*
X8949Y8528D01*
X8940D02*
X8933Y8534D01*
X8926Y8540D01*
X8917Y8544D01*
X8908Y8546D01*
X8899Y8547D01*
X8890Y8546D01*
X8846Y8476D02*
X8850Y8467D01*
X8855Y8458D01*
X8861Y8451D01*
X8869Y8445D01*
X8878Y8441D01*
X8887Y8438D01*
X8897Y8437D01*
X8907Y8437D01*
X8916Y8440D01*
X8925Y8444D01*
X8933Y8449D01*
X8940Y8456D01*
X8945Y8368D02*
X8938Y8375D01*
X8930Y8380D01*
X8921Y8384D01*
X8911Y8386D01*
X8902Y8387D01*
X8892Y8386D01*
X8882Y8383D01*
X8874Y8378D01*
X8866Y8372D01*
X8859Y8365D01*
X8854Y8356D01*
X8851Y8347D01*
X8849Y8338D01*
X8849Y8328D01*
X8890Y8546D02*
X8878Y8548D01*
X9201Y8232D02*
X9202Y8222D01*
X9206Y8213D01*
X9212Y8205D01*
X9201Y8232D02*
X9202Y8222D01*
X9206Y8213D01*
X9212Y8205D01*
X9188Y8352D02*
X9188Y8361D01*
X9113Y8309D02*
X9123Y8304D01*
X9133Y8302D01*
X9144D01*
X9154Y8304D01*
X9163Y8309D01*
X9172Y8315D01*
X9179Y8322D01*
X9184Y8331D01*
X9187Y8341D01*
X9188Y8352D01*
X9074Y8152D02*
X9080Y8160D01*
X9085Y8168D01*
X9088Y8177D01*
X9088Y8187D01*
X9418Y8130D02*
X9418Y8134D01*
X9420Y8126D02*
X9418Y8130D01*
X9420Y8126D02*
X9418Y8130D01*
X9178Y8132D02*
X9177Y8142D01*
X9175Y8151D01*
X9170Y8160D01*
X9163Y8168D01*
X9156Y8174D01*
X9147Y8178D01*
X9137Y8181D01*
X9127Y8182D01*
X9117Y8181D01*
X9108Y8177D01*
X9099Y8172D01*
X9092Y8166D01*
X9086Y8158D01*
X9081Y8149D01*
X9079Y8139D01*
X9079Y8129D01*
X9272Y8145D02*
X9280Y8139D01*
X9289Y8136D01*
X9298Y8134D01*
X9272Y8145D02*
X9280Y8139D01*
X9289Y8136D01*
X9298Y8134D01*
X9045Y8327D02*
X9051Y8319D01*
X9058Y8312D01*
X9066Y8307D01*
X9075Y8304D01*
X9085Y8302D01*
X9095Y8302D01*
X9104Y8304D01*
X9113Y8309D01*
X8998Y8296D02*
X9008Y8297D01*
X9017Y8301D01*
X9024Y8306D01*
X8998Y8296D02*
X9008Y8297D01*
X9016Y8301D01*
X9024Y8306D01*
X8900Y8277D02*
X8910Y8277D01*
X8920Y8279D01*
X8929Y8283D01*
X8938Y8289D01*
X8945Y8296D01*
X9088Y8187D02*
X9088Y8197D01*
X9085Y8206D01*
X9080Y8214D01*
X9074Y8222D01*
X9066Y8228D01*
X9058Y8233D01*
X9049Y8236D01*
X9039Y8237D01*
X9029Y8236D01*
X9020Y8233D01*
X9011Y8229D01*
X9004Y8223D01*
X8997Y8215D01*
X8993Y8207D01*
X8990Y8197D01*
X8988Y8188D01*
X8989Y8178D01*
X8992Y8168D01*
X8996Y8160D01*
X9002Y8152D01*
X9079Y8129D02*
X9074Y8128D01*
X9002Y8139D02*
X8995Y8144D01*
X8987Y8147D01*
X8978Y8148D01*
X9002Y8139D02*
X8995Y8144D01*
X8987Y8147D01*
X8978Y8148D01*
X8940D02*
X8932Y8155D01*
X8924Y8161D01*
X8914Y8165D01*
X8904Y8167D01*
X8893Y8167D01*
X8883Y8165D01*
X8873Y8161D01*
X8864Y8155D01*
X8731Y8785D02*
X8722Y8778D01*
X8731Y8785D02*
X8722Y8778D01*
X8607Y8782D02*
X8607Y8785D01*
X8490D02*
X8490Y8775D01*
X8492Y8765D01*
X8495Y8756D01*
X8501Y8747D01*
X8507Y8740D01*
X8515Y8734D01*
X8523Y8729D01*
X8532Y8725D01*
X8542Y8723D01*
X8552Y8723D01*
X8562Y8724D01*
X8571Y8727D01*
X8580Y8732D01*
X8588Y8738D01*
X8595Y8745D01*
X8600Y8753D01*
X8604Y8762D01*
X8607Y8772D01*
X8607Y8782D01*
X8478Y8652D02*
X8478Y8661D01*
X8475Y8671D01*
X8470Y8679D01*
X8464Y8687D01*
X8457Y8693D01*
X8448Y8698D01*
X8439Y8701D01*
X8429Y8702D01*
X8473Y8630D02*
X8477Y8641D01*
X8478Y8652D01*
X8374Y8757D02*
X8366Y8763D01*
X8374Y8757D02*
X8366Y8763D01*
X8063Y8657D02*
X8056Y8646D01*
X8063Y8657D02*
X8056Y8646D01*
X8793Y8475D02*
X8803Y8470D01*
X8814Y8468D01*
X8824Y8468D01*
X8835Y8471D01*
X8844Y8476D01*
X8793Y8623D02*
X8784Y8627D01*
X8774Y8630D01*
X8763D01*
X8753Y8627D01*
X8743Y8623D01*
X8756Y8470D02*
X8766Y8468D01*
X8775Y8468D01*
X8785Y8471D01*
X8793Y8475D01*
X8743Y8623D02*
X8735Y8627D01*
X8725Y8630D01*
X8716Y8630D01*
X8706Y8628D01*
X8793Y8272D02*
X8789Y8268D01*
X8793Y8272D02*
X8789Y8268D01*
X8787Y8264D01*
X8789Y8268D02*
X8787Y8264D01*
X8773Y8268D01*
X8764Y8268D01*
X8756Y8266D01*
X8283Y8186D02*
X8290Y8181D01*
X8298Y8177D01*
X8283Y8186D02*
X8290Y8181D01*
X8298Y8177D01*
X9513Y8123D02*
X9504Y8127D01*
X9494Y8130D01*
X9483D01*
X9473Y8127D01*
X9463Y8123D01*
X9319Y8134D02*
X9319Y8126D01*
X9463Y8123D02*
X9456Y8127D01*
X9447Y8129D01*
X9438Y8130D01*
X9429Y8129D01*
X9420Y8126D01*
X9319Y8126D02*
X9313Y8123D01*
X9304Y8127D01*
X9294Y8130D01*
X9283D01*
X9273Y8127D01*
X9263Y8123D01*
X9474Y7986D02*
X9484Y7984D01*
X9493Y7984D01*
X9502Y7986D01*
X9511Y7989D01*
X9263Y8123D02*
X9254Y8127D01*
X9244Y8130D01*
X9233D01*
X9223Y8127D01*
X9213Y8123D01*
X9225Y7945D02*
X9224Y7936D01*
Y7928D01*
X9225Y7919D01*
X9214Y7936D02*
X9222Y7948D01*
X9214Y7936D02*
X9222Y7948D01*
X9304Y7869D02*
X9314Y7872D01*
X9323Y7877D01*
X9331Y7883D01*
X9338Y7890D01*
X9344Y7898D01*
X9348Y7907D01*
X9352Y7916D01*
X9353Y7926D01*
X9219Y7913D02*
X9213Y7906D01*
X9210Y7897D01*
X9208Y7888D01*
X9219Y7913D02*
X9213Y7906D01*
X9210Y7897D01*
X9208Y7888D01*
X9213Y8123D02*
X9205Y8127D01*
X9197Y8129D01*
X9187Y8130D01*
X9178Y8129D01*
X9158Y7896D02*
X9168Y7897D01*
X9177Y7901D01*
X9184Y7906D01*
X9158Y7896D02*
X9168Y7897D01*
X9176Y7901D01*
X9184Y7906D01*
X9024Y7941D02*
X9023Y7932D01*
X9024Y7922D01*
X9026Y7913D01*
X9030Y7904D01*
X9034Y7896D01*
X9040Y7889D01*
X9047Y7882D01*
X9130D02*
X9137Y7889D01*
X9143Y7896D01*
X8466Y8096D02*
X8467Y8094D01*
X8466Y8096D02*
X8467Y8094D01*
X8252Y8106D02*
X8257Y8113D01*
X8261Y8122D01*
X8252Y8106D02*
X8257Y8113D01*
X8261Y8122D01*
X8138Y7817D02*
X8151Y7824D01*
X8138Y7817D02*
X8151Y7824D01*
X7921Y7868D02*
X7911Y7870D01*
X7900Y7870D01*
X7889Y7870D01*
X8508Y7714D02*
X8518Y7716D01*
X8527Y7719D01*
X8535Y7725D01*
X8508Y7714D02*
X8518Y7716D01*
X8527Y7719D01*
X8535Y7725D01*
X8477Y7702D02*
X8476Y7714D01*
X8348Y7789D02*
X8339Y7788D01*
X8330Y7784D01*
X8322Y7778D01*
X8348Y7789D02*
X8339Y7788D01*
X8330Y7784D01*
X8322Y7778D01*
X8360Y7710D02*
X8360Y7700D01*
X8361Y7690D01*
X8364Y7680D01*
X8368Y7671D01*
X8374Y7663D01*
X8381Y7656D01*
X8390Y7650D01*
X8399Y7646D01*
X8409Y7644D01*
X8419Y7643D01*
X8429Y7644D01*
X8439Y7647D01*
X8448Y7651D01*
X8457Y7657D01*
X8464Y7664D01*
X8470Y7673D01*
X8474Y7682D01*
X8477Y7692D01*
X8477Y7702D01*
X8310Y7661D02*
X8315Y7665D01*
X8310Y7661D02*
X8315Y7665D01*
X8137Y7754D02*
X8133Y7758D01*
X8137Y7754D02*
X8133Y7758D01*
X8037Y7732D02*
X8036Y7743D01*
X8035Y7754D01*
X7999Y7637D02*
X8006Y7645D01*
X8012Y7653D01*
X8018Y7662D01*
X8023Y7671D01*
X8027Y7681D01*
X8030Y7691D01*
X8033Y7701D01*
X8035Y7711D01*
X8036Y7721D01*
X8037Y7732D01*
X10888Y8642D02*
Y8711D01*
Y8642D02*
Y8711D01*
X10758Y8772D02*
X10850D01*
X10888Y8692D02*
X10918D01*
X10888Y8672D02*
X10918D01*
X10888Y8652D02*
X10918D01*
X10888Y8612D02*
X10918D01*
X10878Y8642D02*
X10888D01*
X10883Y8632D02*
X10918D01*
X10848Y8772D02*
Y8785D01*
X10828Y8772D02*
Y8785D01*
X10808Y8772D02*
Y8785D01*
X10788Y8772D02*
Y8785D01*
X10768Y8772D02*
Y8785D01*
X10758Y8772D02*
X10850D01*
X10758Y8642D02*
Y8772D01*
Y8642D02*
X10769D01*
X10735Y8672D02*
X10758D01*
X10737Y8652D02*
X10758D01*
X10887Y8592D02*
X10918D01*
X10888Y8607D02*
Y8642D01*
Y8507D02*
Y8607D01*
X10878Y8572D02*
X10918D01*
X10883Y8532D02*
X10918D01*
X10888Y8512D02*
X10918D01*
X10887Y8492D02*
X10918D01*
X10870Y8552D02*
X10918D01*
X10878Y8472D02*
X10918D01*
X10823Y8607D02*
X10883D01*
X10763D02*
X10823D01*
X10768Y8541D02*
Y8572D01*
X10748Y8343D02*
Y8785D01*
X10868Y8554D02*
Y8560D01*
X10888Y8407D02*
Y8507D01*
X10694Y8752D02*
X10758D01*
X10711Y8732D02*
X10758D01*
X10723Y8712D02*
X10758D01*
X10636Y8785D02*
X10852D01*
X10667Y8772D02*
X10758D01*
X10735Y8632D02*
X10763D01*
X10731Y8692D02*
X10758D01*
X10731Y8612D02*
X10759D01*
X10598Y8652D02*
X10732D01*
X10723Y8592D02*
X10760D01*
X10708Y8736D02*
Y8785D01*
X10688Y8757D02*
Y8785D01*
X10728Y8699D02*
Y8785D01*
X10648Y8781D02*
Y8785D01*
X10668Y8771D02*
Y8785D01*
X10548Y8781D02*
Y8785D01*
X10528Y8771D02*
Y8785D01*
X10465Y8652D02*
X10598D01*
X10009Y8785D02*
X10561D01*
X10015Y8772D02*
X10530D01*
X10711Y8572D02*
X10769D01*
X10728Y8343D02*
Y8605D01*
X10708Y8343D02*
Y8568D01*
X10694Y8552D02*
X10777D01*
X10667Y8532D02*
X10763D01*
X10440Y8512D02*
X10759D01*
X10688Y8343D02*
Y8547D01*
X10440Y8492D02*
X10760D01*
X10440Y8472D02*
X10769D01*
X10668Y8343D02*
Y8533D01*
X10598Y8519D02*
Y8652D01*
X10648Y8343D02*
Y8523D01*
X10440Y8532D02*
X10530D01*
X10528Y8298D02*
Y8533D01*
X10628Y8343D02*
Y8517D01*
X10608Y8343D02*
Y8514D01*
X10588Y8343D02*
Y8514D01*
X10568Y8337D02*
Y8517D01*
X10548Y8318D02*
Y8523D01*
X10883Y8432D02*
X10918D01*
X10888Y8412D02*
X10918D01*
X10887Y8392D02*
X10918D01*
X10870Y8452D02*
X10918D01*
X10883Y8332D02*
X10918D01*
X10888Y8312D02*
X10918D01*
X10887Y8292D02*
X10918D01*
X10878Y8372D02*
X10918D01*
X10870Y8352D02*
X10918D01*
X10823Y8407D02*
X10883D01*
X10868Y8454D02*
Y8460D01*
X10888Y8307D02*
Y8407D01*
X10768Y8441D02*
Y8472D01*
X10868Y8354D02*
Y8360D01*
X10768Y8343D02*
Y8372D01*
X10763Y8407D02*
X10823D01*
X10878Y8272D02*
X10918D01*
X10870Y8252D02*
X10918D01*
X10888Y8207D02*
Y8307D01*
X10883Y8232D02*
X10918D01*
X10888Y8212D02*
X10918D01*
X10887Y8192D02*
X10918D01*
X10878Y8172D02*
X10918D01*
X10870Y8152D02*
X10918D01*
X10868Y8254D02*
Y8260D01*
X10768Y8241D02*
Y8271D01*
X10748Y8143D02*
Y8271D01*
X10728Y8143D02*
Y8271D01*
X10868Y8154D02*
Y8160D01*
X10768Y8143D02*
Y8172D01*
X10441Y8372D02*
X10769D01*
X10406Y8432D02*
X10763D01*
X10441Y8352D02*
X10777D01*
X10398Y8452D02*
X10777D01*
X10405Y8412D02*
X10759D01*
X10395Y8392D02*
X10760D01*
X10588Y8343D02*
X10769D01*
X10603Y8271D02*
X10769D01*
X10584Y8252D02*
X10603Y8271D01*
X10584Y8252D02*
X10777D01*
X10584Y8232D02*
X10763D01*
X10523Y8292D02*
X10563Y8332D01*
X10441Y8332D02*
X10563D01*
X10441Y8312D02*
X10543D01*
X10441Y8292D02*
X10523D01*
X10404Y8272D02*
X10513D01*
X10404Y8252D02*
X10512D01*
X10708Y8201D02*
Y8271D01*
X10688Y8201D02*
Y8271D01*
X10708Y8143D02*
Y8201D01*
X10584Y8212D02*
X10759D01*
X10588Y8201D02*
X10708D01*
Y8172D02*
X10769D01*
X10708Y8192D02*
X10760D01*
X10708Y8143D02*
Y8201D01*
Y8152D02*
X10777D01*
X10708Y8143D02*
X10769D01*
X10668Y8201D02*
Y8271D01*
X10648Y8201D02*
Y8271D01*
X10628Y8201D02*
Y8271D01*
X10608Y8201D02*
Y8271D01*
X10588Y8201D02*
Y8256D01*
X10584Y8192D02*
X10588D01*
X10584Y8172D02*
X10588D01*
X10584Y8152D02*
X10588D01*
X10404Y8232D02*
X10512D01*
X10404Y8212D02*
X10512D01*
X10508Y8757D02*
Y8785D01*
X10488Y8736D02*
Y8785D01*
X10468Y8699D02*
Y8785D01*
X10287Y8732D02*
X10486D01*
X10428Y8729D02*
Y8785D01*
X10408Y8729D02*
Y8785D01*
X10440Y8712D02*
X10474D01*
X10440Y8692D02*
X10466D01*
X10440Y8672D02*
X10462D01*
X10316Y8729D02*
X10440D01*
Y8652D02*
X10460D01*
X10388Y8729D02*
Y8785D01*
X10368Y8729D02*
Y8785D01*
X10348Y8729D02*
Y8785D01*
X10328Y8729D02*
Y8785D01*
X10308Y8709D02*
Y8785D01*
X10316Y8709D02*
Y8729D01*
X10288Y8709D02*
Y8785D01*
X10287Y8709D02*
Y8751D01*
Y8712D02*
X10316D01*
X10287Y8709D02*
X10316D01*
X10440Y8632D02*
X10462D01*
X10440Y8615D02*
Y8729D01*
X10448Y8202D02*
Y8785D01*
X10316Y8615D02*
X10440D01*
X10428Y8583D02*
Y8615D01*
X10488Y8202D02*
Y8568D01*
X10440Y8469D02*
Y8583D01*
X10468Y8202D02*
Y8605D01*
X10316Y8583D02*
X10440D01*
Y8572D02*
X10486D01*
X10408Y8583D02*
Y8615D01*
X10316D02*
Y8634D01*
X10388Y8583D02*
Y8615D01*
X10308Y8438D02*
Y8634D01*
X10288Y8385D02*
Y8634D01*
X10368Y8583D02*
Y8615D01*
X10348Y8583D02*
Y8615D01*
X10378Y8526D02*
Y8578D01*
X10328Y8583D02*
Y8615D01*
X10316Y8469D02*
Y8583D01*
X10268Y8751D02*
Y8785D01*
X10248Y8751D02*
Y8785D01*
X10228Y8751D02*
Y8785D01*
X10208Y8751D02*
Y8785D01*
X10188Y8751D02*
Y8785D01*
X10168Y8751D02*
Y8785D01*
X10148Y8751D02*
Y8785D01*
X10128Y8751D02*
Y8785D01*
X10109Y8751D02*
X10287D01*
X10018Y8752D02*
X10503D01*
X10015Y8732D02*
X10109D01*
X10108Y8721D02*
Y8785D01*
X10088Y8721D02*
Y8785D01*
X10068Y8721D02*
Y8785D01*
X10048Y8721D02*
Y8785D01*
X10028Y8721D02*
Y8785D01*
X10109Y8699D02*
Y8751D01*
X10108Y8699D02*
Y8721D01*
X10011D02*
X10108D01*
X10287Y8634D02*
X10316D01*
X10287Y8632D02*
X10316D01*
X10287Y8573D02*
Y8634D01*
Y8612D02*
X10466D01*
X10287Y8592D02*
X10474D01*
X10248Y8487D02*
Y8573D01*
X10228Y8487D02*
Y8573D01*
X10268Y8348D02*
Y8573D01*
X10108Y8572D02*
X10316D01*
X10109Y8573D02*
X10287D01*
X10108Y8609D02*
Y8624D01*
Y8579D02*
Y8609D01*
X10109Y8573D02*
Y8624D01*
X10108Y8579D02*
Y8609D01*
Y8466D02*
Y8579D01*
X10208Y8487D02*
Y8573D01*
X10188Y8487D02*
Y8573D01*
X10168Y8487D02*
Y8573D01*
X10148Y8487D02*
Y8573D01*
X10128Y8393D02*
Y8573D01*
X10440Y8552D02*
X10503D01*
X10428Y8385D02*
Y8469D01*
X10408Y8385D02*
Y8469D01*
X10378D02*
X10440D01*
X10378Y8526D02*
X10435D01*
X10392Y8385D02*
Y8389D01*
Y8385D02*
X10441D01*
X10393Y8337D02*
Y8380D01*
Y8337D02*
X10436D01*
X10321Y8526D02*
X10378D01*
Y8474D02*
Y8526D01*
X10388Y8462D02*
Y8469D01*
X10316D02*
X10335D01*
X10328Y8465D02*
Y8469D01*
X10320Y8385D02*
Y8389D01*
X10308Y8385D02*
Y8410D01*
X10270Y8385D02*
X10320D01*
X10270Y8348D02*
Y8385D01*
X10512Y8202D02*
Y8267D01*
X10441Y8289D02*
Y8385D01*
X10508Y8202D02*
Y8547D01*
X10404Y8289D02*
X10441D01*
X10440Y8202D02*
X10512D01*
X10412Y8192D02*
X10440D01*
X10412Y8172D02*
X10440D01*
Y8148D02*
Y8202D01*
X10412Y8152D02*
X10440D01*
X10412Y8148D02*
X10440D01*
X10408Y8201D02*
Y8289D01*
X10404Y8202D02*
Y8289D01*
X10428Y8148D02*
Y8289D01*
X10354Y8202D02*
X10404D01*
X10282Y8146D02*
Y8276D01*
X10354Y8201D02*
X10412D01*
X10264Y8192D02*
X10282D01*
X10412Y8148D02*
Y8201D01*
X10264Y8172D02*
X10282D01*
X10264Y8152D02*
X10282D01*
X10108Y8552D02*
X10316D01*
X10143Y8487D02*
X10263D01*
Y8472D02*
X10316D01*
X10108Y8532D02*
X10316D01*
X10108Y8512D02*
X10316D01*
X10108Y8492D02*
X10316D01*
X10263Y8452D02*
X10315D01*
X10263Y8432D02*
X10307D01*
X10263Y8412D02*
X10308D01*
X10108Y8472D02*
X10143D01*
X10263Y8392D02*
X10318D01*
X10108Y8413D02*
Y8466D01*
X10088Y8433D02*
Y8466D01*
X10143Y8405D02*
Y8487D01*
X10048Y8538D02*
X10103D01*
X10055Y8466D02*
X10108D01*
X10090Y8432D02*
X10143D01*
X10110Y8412D02*
X10143D01*
X10130Y8391D02*
X10143Y8405D01*
X10068Y8453D02*
Y8466D01*
X10070Y8452D02*
X10143D01*
X10263Y8372D02*
X10270D01*
X10263Y8375D02*
Y8487D01*
Y8348D02*
Y8375D01*
Y8352D02*
X10270D01*
X10263Y8348D02*
X10270D01*
X10263Y8276D02*
X10282D01*
X10263Y8272D02*
X10282D01*
X10263Y8252D02*
X10282D01*
X10198Y8232D02*
X10282D01*
X10215Y8212D02*
X10282D01*
X10263Y8348D02*
Y8375D01*
Y8232D02*
Y8276D01*
X10248Y8201D02*
Y8232D01*
X10055Y8466D02*
X10130Y8391D01*
X10198Y8232D02*
X10263D01*
X10228Y8201D02*
Y8232D01*
X10208Y8219D02*
Y8232D01*
X10226Y8201D02*
X10264D01*
X10198Y8229D02*
X10226Y8201D01*
X10888Y8112D02*
X10918D01*
X10888Y8107D02*
Y8207D01*
X10887Y8092D02*
X10918D01*
X10883Y8132D02*
X10918D01*
X10878Y8072D02*
X10918D01*
X10868Y8054D02*
Y8060D01*
X10870Y8052D02*
X10918D01*
X10708D02*
X10777D01*
X10588Y8089D02*
Y8201D01*
Y8059D02*
Y8089D01*
X10584Y8042D02*
Y8252D01*
Y8132D02*
X10588D01*
X10584Y8112D02*
X10588D01*
X10708Y8071D02*
X10769D01*
X10708Y8059D02*
Y8071D01*
X10768Y8041D02*
Y8071D01*
X10708Y8059D02*
Y8071D01*
X10588Y8059D02*
Y8089D01*
X10908Y7840D02*
Y8708D01*
X10888Y8007D02*
Y8107D01*
X10918Y7832D02*
Y8709D01*
X10888Y8012D02*
X10918D01*
X10887Y7992D02*
X10918D01*
X10888Y7851D02*
Y8007D01*
X10883Y8032D02*
X10918D01*
X10878Y7972D02*
X10918D01*
X10748Y7840D02*
Y8071D01*
X10708Y7946D02*
Y8071D01*
X10728Y7822D02*
Y8071D01*
X10708Y7946D02*
Y8059D01*
X10588Y7946D02*
Y8201D01*
X10708Y8032D02*
X10763D01*
X10708Y8012D02*
X10759D01*
X10708Y7992D02*
X10760D01*
X10708Y7972D02*
X10769D01*
X10588Y7946D02*
Y8059D01*
X10584Y8092D02*
X10588D01*
X10584Y8072D02*
X10588D01*
X10440Y8060D02*
Y8076D01*
X10412D02*
X10440D01*
Y8060D02*
Y8076D01*
X10412Y8059D02*
Y8076D01*
X10584Y8052D02*
X10588D01*
X10412Y8072D02*
X10440D01*
X10583Y8032D02*
X10588D01*
X10412Y8052D02*
X10440D01*
X10412Y8032D02*
X10440D01*
X10292Y8089D02*
Y8121D01*
X10264Y8112D02*
X10292D01*
X10264Y8092D02*
X10292D01*
X10412Y8059D02*
Y8076D01*
X10292Y8059D02*
Y8089D01*
Y8059D02*
Y8089D01*
X10264Y8072D02*
X10292D01*
X10264Y8052D02*
X10292D01*
X10569Y8012D02*
X10588D01*
X10564Y8006D02*
X10574Y8016D01*
X10568Y7904D02*
Y8011D01*
X10560Y7947D02*
Y8003D01*
X10412Y8012D02*
X10440D01*
X10560Y7992D02*
X10588D01*
X10440Y7947D02*
Y8060D01*
X10412Y7946D02*
Y8059D01*
X10428Y7904D02*
Y8076D01*
X10264Y8032D02*
X10292D01*
X10352Y8018D02*
X10407D01*
X10412Y7992D02*
X10440D01*
X10297Y8018D02*
X10352D01*
Y7951D02*
Y8018D01*
X10264Y8012D02*
X10292D01*
X10264Y7992D02*
X10292D01*
X10858Y7952D02*
X10918D01*
X10848Y7864D02*
Y7947D01*
X10868Y7859D02*
Y7960D01*
X10708Y7952D02*
X10789D01*
X10696Y7946D02*
X10708D01*
X10808Y7864D02*
Y7944D01*
X10698Y7932D02*
X10918D01*
X10694Y7912D02*
X10918D01*
X10828Y7865D02*
Y7942D01*
X10678Y7892D02*
X10918D01*
X10609Y7872D02*
X10918D01*
X10588Y7946D02*
X10601D01*
X10560Y7972D02*
X10588D01*
X10560Y7952D02*
X10588D01*
X10609Y7892D02*
X10618D01*
X10588Y7904D02*
Y7946D01*
X10548Y7904D02*
Y7947D01*
X10788Y7859D02*
Y7952D01*
X10768Y7851D02*
Y7972D01*
X10828Y7727D02*
Y7860D01*
X10708Y7795D02*
Y7946D01*
X10888Y7852D02*
X10918D01*
X10609D02*
X10769D01*
X10695Y7727D02*
X10828D01*
X10609Y7832D02*
X10739D01*
X10609Y7812D02*
X10719D01*
X10688Y7637D02*
Y7902D01*
X10668Y7637D02*
Y7886D01*
X10648Y7637D02*
Y7882D01*
X10609Y7796D02*
Y7901D01*
X10628Y7637D02*
Y7886D01*
X10708Y7637D02*
Y7658D01*
X10608Y7637D02*
Y7796D01*
X10588Y7637D02*
Y7796D01*
X10568Y7637D02*
Y7796D01*
X10548Y7637D02*
Y7796D01*
X10528Y7904D02*
Y7947D01*
X10508Y7904D02*
Y7947D01*
X10488Y7904D02*
Y7947D01*
X10440D02*
X10560D01*
X10468Y7904D02*
Y7947D01*
X10448Y7904D02*
Y7947D01*
X10283Y7904D02*
X10607D01*
X10279Y7912D02*
X10603D01*
X10280Y7796D02*
X10609D01*
X10267Y7932D02*
X10598D01*
X10232Y7792D02*
X10706D01*
X10412Y7972D02*
X10440D01*
X10412Y7952D02*
X10440D01*
X10408Y7904D02*
Y7946D01*
X10264Y7972D02*
X10292D01*
Y7946D02*
X10412D01*
X10388Y7904D02*
Y7946D01*
X10368Y7904D02*
Y7946D01*
X10348Y7904D02*
Y7946D01*
X10328Y7904D02*
Y7946D01*
X10308Y7904D02*
Y7946D01*
X9968Y7772D02*
X10698D01*
X10528Y7637D02*
Y7796D01*
X10508Y7637D02*
Y7796D01*
X9968Y7752D02*
X10693D01*
X9968Y7732D02*
X10690D01*
X9968Y7692D02*
X10695D01*
X9968Y7712D02*
X10691D01*
X9968Y7672D02*
X10702D01*
X9968Y7652D02*
X10712D01*
X9968Y7637D02*
X10724D01*
X10488D02*
Y7796D01*
X10468Y7637D02*
Y7796D01*
X10448Y7637D02*
Y7796D01*
X10428Y7637D02*
Y7796D01*
X10408Y7637D02*
Y7796D01*
X10388Y7637D02*
Y7796D01*
X10368Y7637D02*
Y7796D01*
X10348Y7637D02*
Y7796D01*
X10328Y7637D02*
Y7796D01*
X10308Y7637D02*
Y7796D01*
X10264Y8132D02*
X10285D01*
X10264Y8089D02*
Y8201D01*
X10292Y7946D02*
Y8059D01*
X10264Y8059D02*
Y8089D01*
Y8059D02*
Y8089D01*
Y7946D02*
Y8059D01*
Y7952D02*
X10292D01*
X10116Y7996D02*
X10144D01*
X10251Y7946D02*
X10264D01*
X10116Y7992D02*
X10144D01*
X10116Y7972D02*
X10144D01*
Y7946D02*
Y7996D01*
X10116Y7947D02*
Y7996D01*
X9996Y7947D02*
Y7970D01*
X9968Y7947D02*
Y7962D01*
X10116Y7952D02*
X10144D01*
X9996Y7947D02*
X10116D01*
X9968D02*
Y7962D01*
Y7952D02*
X9996D01*
X9946Y7947D02*
X9968D01*
X10288Y7904D02*
Y8126D01*
X10268Y7929D02*
Y8276D01*
X10128Y7929D02*
Y7996D01*
X10108Y7637D02*
Y7947D01*
X10088Y7637D02*
Y7947D01*
X10068Y7637D02*
Y7947D01*
X9946Y7932D02*
X10130D01*
X9946Y7912D02*
X10118D01*
X10048Y7637D02*
Y7947D01*
X10028Y7637D02*
Y7947D01*
X10008Y7637D02*
Y7947D01*
X9848D02*
Y8034D01*
X9988Y7637D02*
Y7966D01*
X9968Y7881D02*
Y7947D01*
X9948Y7881D02*
Y7947D01*
X9946Y7881D02*
Y7947D01*
X9871Y7881D02*
Y7947D01*
X9868Y7881D02*
Y7947D01*
X9798Y8034D02*
X9848D01*
X9798Y8032D02*
X9848D01*
X9793Y8012D02*
X9848D01*
X9776Y7992D02*
X9848D01*
X9768Y7957D02*
Y7988D01*
X9737Y7972D02*
X9848D01*
X9732Y7966D02*
X9749Y7984D01*
X9748Y7958D02*
Y7983D01*
X9528Y8129D02*
Y8134D01*
X9508Y8126D02*
Y8134D01*
X9488Y8057D02*
Y8125D01*
X9513Y7986D02*
X9533Y7966D01*
X9728Y7958D02*
Y7963D01*
X9488Y7988D02*
Y8057D01*
X9848Y7947D02*
X9871D01*
X9848D02*
Y8034D01*
Y7881D02*
Y7947D01*
X9783Y7952D02*
X9848D01*
X9828Y7637D02*
Y8034D01*
X9816Y7912D02*
X9871D01*
X9801Y7932D02*
X9871D01*
X9793Y7943D02*
X9817Y7909D01*
X9788Y7948D02*
Y8004D01*
X9528Y7958D02*
Y7971D01*
X9808Y7921D02*
Y8034D01*
X9508Y7958D02*
Y7988D01*
X9488Y7958D02*
Y7983D01*
X9718Y7958D02*
X9763D01*
X10280Y7796D02*
Y7838D01*
X10114Y7874D02*
X10198D01*
Y7790D02*
Y7874D01*
X9946Y7892D02*
X10111D01*
X9968Y7872D02*
X10110D01*
X9968Y7852D02*
X10112D01*
X10277Y7832D02*
X10280D01*
X9968D02*
X10120D01*
X10262Y7812D02*
X10280D01*
X9968D02*
X10135D01*
X9968Y7792D02*
X10165D01*
X9946Y7881D02*
X9968D01*
X9848D02*
X9871D01*
X9968Y7769D02*
Y7881D01*
X9824Y7892D02*
X9871D01*
X9848Y7769D02*
Y7881D01*
X9824Y7872D02*
X9848D01*
X9824Y7852D02*
X9848D01*
X9824Y7832D02*
X9848D01*
X9824Y7812D02*
X9848D01*
X9824Y7792D02*
X9848D01*
X10288Y7637D02*
Y7796D01*
X10268Y7637D02*
Y7819D01*
X10248Y7637D02*
Y7801D01*
X10148Y7637D02*
Y7801D01*
X10128Y7637D02*
Y7819D01*
X10228Y7637D02*
Y7791D01*
X10208Y7637D02*
Y7786D01*
X10188Y7637D02*
Y7786D01*
X9968Y7739D02*
Y7769D01*
X10168Y7637D02*
Y7791D01*
X9968Y7739D02*
Y7769D01*
Y7637D02*
Y7881D01*
X9848Y7637D02*
Y7881D01*
X9824Y7762D02*
Y7888D01*
X9848Y7739D02*
Y7769D01*
X9908Y7698D02*
X9963D01*
X9853D02*
X9908D01*
X9968Y7637D02*
Y7739D01*
X9848D02*
Y7769D01*
Y7637D02*
Y7739D01*
X9824Y7772D02*
X9848D01*
X9823Y7752D02*
X9848D01*
X9605Y7775D02*
X9653Y7726D01*
X9794Y7716D02*
X9814Y7736D01*
X9809Y7732D02*
X9848D01*
X9793Y7712D02*
X9848D01*
X9620D02*
X9673D01*
X9588Y7743D02*
Y7775D01*
X9568Y7743D02*
Y7775D01*
X9548Y7743D02*
Y7775D01*
X9496D02*
Y7796D01*
Y7775D02*
X9605D01*
X9608Y7743D02*
Y7771D01*
X9528Y7743D02*
Y7775D01*
X9620Y7732D02*
X9648D01*
X9508Y7743D02*
Y7775D01*
X9496Y7743D02*
X9620D01*
X9793Y7692D02*
X9848D01*
X9808Y7637D02*
Y7731D01*
X9793Y7637D02*
Y7716D01*
X9620Y7692D02*
X9673D01*
Y7637D02*
Y7716D01*
X9793Y7672D02*
X9848D01*
X9793Y7652D02*
X9848D01*
X9793Y7637D02*
X9848D01*
X9620Y7672D02*
X9673D01*
X9620Y7652D02*
X9673D01*
X9628Y7637D02*
Y7751D01*
X9558Y7686D02*
Y7738D01*
X9620Y7637D02*
Y7743D01*
X9496Y7637D02*
Y7743D01*
X9488Y7637D02*
Y7796D01*
X9668Y7637D02*
Y7717D01*
X9648Y7637D02*
Y7731D01*
X9620Y7637D02*
X9673D01*
X9558Y7686D02*
X9615D01*
X9501D02*
X9558D01*
X9113Y8623D02*
X9168D01*
X9108Y8694D02*
Y8714D01*
Y8551D02*
Y8714D01*
Y8664D02*
Y8694D01*
Y8664D02*
Y8694D01*
X9065Y8632D02*
X9108D01*
X9168Y8556D02*
Y8623D01*
X9098Y8572D02*
X9108D01*
Y8551D02*
X9201D01*
X9085Y8612D02*
X9108D01*
X9094Y8592D02*
X9108D01*
X9068Y8629D02*
Y8714D01*
X9048Y8641D02*
Y8714D01*
X9088Y8606D02*
Y8714D01*
X9028Y8646D02*
Y8714D01*
X9008Y8646D02*
Y8714D01*
X9108Y8551D02*
Y8664D01*
X8988Y8641D02*
Y8714D01*
X9097Y8552D02*
X9108D01*
X8968Y8629D02*
Y8714D01*
X8948Y8606D02*
Y8714D01*
X9201Y8506D02*
Y8551D01*
X9188Y8508D02*
Y8551D01*
X9168Y8503D02*
Y8551D01*
X9090Y8532D02*
X9201D01*
X9077Y8512D02*
X9201D01*
X9148Y8507D02*
Y8551D01*
X9188Y8435D02*
Y8503D01*
Y8366D02*
Y8435D01*
X9128Y8507D02*
Y8551D01*
X9088Y8508D02*
Y8528D01*
X9108Y8503D02*
Y8551D01*
X8940Y8528D02*
X8949D01*
X8943Y8407D02*
Y8456D01*
X8948Y8368D02*
Y8385D01*
X8945Y8368D02*
X8965D01*
X8874Y8714D02*
X9108D01*
X8874Y8712D02*
X9108D01*
X8908Y8546D02*
Y8714D01*
X8874Y8692D02*
X9108D01*
X8874Y8672D02*
X9108D01*
X8874Y8652D02*
X9108D01*
X8864Y8592D02*
X8943D01*
X8864Y8572D02*
X8939D01*
X8864Y8552D02*
X8940D01*
X8706Y8632D02*
X8972D01*
X8855Y8612D02*
X8952D01*
X8874Y8637D02*
Y8714D01*
X8868Y8548D02*
Y8637D01*
X8888Y8546D02*
Y8714D01*
X8803Y8697D02*
X8869D01*
X8762Y8637D02*
X8874D01*
X8864Y8548D02*
X8878D01*
X8864D02*
Y8584D01*
X8848Y8619D02*
Y8637D01*
X8936Y8532D02*
X8947D01*
X8936Y8452D02*
X8943D01*
X8941Y8372D02*
X8960D01*
X8756Y8432D02*
X8943D01*
X8756Y8412D02*
X8943D01*
X8756Y8392D02*
X8945D01*
X8928Y8538D02*
Y8714D01*
X8848Y8332D02*
Y8469D01*
X8837Y8472D02*
X8847D01*
X8756Y8452D02*
X8861D01*
X8908Y8387D02*
Y8438D01*
X8888Y8385D02*
Y8438D01*
X8928Y8381D02*
Y8446D01*
X8868Y8374D02*
Y8446D01*
X8756Y8372D02*
X8866D01*
X9201Y8232D02*
Y8363D01*
X9188Y8352D02*
Y8361D01*
Y8352D02*
X9201D01*
X9184Y8332D02*
X9201D01*
X9168Y8312D02*
X9201D01*
X9158Y8172D02*
X9245D01*
X9174Y8152D02*
X9265D01*
X9082Y8212D02*
X9207D01*
X9088Y8192D02*
X9225D01*
X9148Y8178D02*
Y8303D01*
X9168Y8162D02*
Y8312D01*
X9108Y8178D02*
Y8306D01*
X9128Y8182D02*
Y8303D01*
X9088Y8187D02*
Y8302D01*
Y8162D02*
Y8187D01*
X9086Y8172D02*
X9098D01*
X9488Y8130D02*
Y8134D01*
X9448Y8129D02*
Y8134D01*
X9468Y8126D02*
Y8134D01*
X9418D02*
X9539D01*
X9418Y8132D02*
X9538D01*
X9428Y8129D02*
Y8134D01*
X9298D02*
X9319D01*
X9212Y8205D02*
X9272Y8145D01*
X9248Y8129D02*
Y8169D01*
X9228Y8129D02*
Y8189D01*
X9188Y8130D02*
Y8352D01*
X9288Y8130D02*
Y8136D01*
X9074Y8152D02*
X9083D01*
X9178Y8132D02*
X9319D01*
X9048Y8236D02*
Y8322D01*
X9068Y8227D02*
Y8306D01*
X9029Y8312D02*
X9058D01*
X9024Y8306D02*
X9045Y8327D01*
X9028Y8236D02*
Y8311D01*
X8941Y8292D02*
X9201D01*
X9060Y8232D02*
X9201D01*
X8894Y8272D02*
X9201D01*
X8874Y8252D02*
X9201D01*
X8945Y8296D02*
X8998D01*
X9008Y8227D02*
Y8297D01*
X8756Y8352D02*
X8852D01*
X8756Y8332D02*
X8848D01*
X8864Y8242D02*
X8900Y8277D01*
X8864Y8232D02*
X9017D01*
X8864Y8212D02*
X8995D01*
X8864Y8192D02*
X8989D01*
X8988Y8187D02*
Y8296D01*
X9074Y8128D02*
Y8152D01*
X8864Y8172D02*
X8991D01*
X8936Y8152D02*
X9002D01*
X9074Y8132D02*
X9078D01*
X9002Y8139D02*
Y8152D01*
X8968Y8148D02*
Y8296D01*
X8928Y8158D02*
Y8283D01*
X8948Y8148D02*
Y8296D01*
X8908Y8166D02*
Y8277D01*
X8888Y8166D02*
Y8266D01*
X8940Y8148D02*
X8978D01*
X8868Y8158D02*
Y8246D01*
X8988Y8146D02*
Y8187D01*
X8864Y8155D02*
Y8242D01*
X8708Y8765D02*
Y8785D01*
X8607D02*
X8731D01*
X8688Y8757D02*
Y8785D01*
X8668Y8757D02*
Y8785D01*
X8702Y8758D02*
X8722Y8778D01*
X8648Y8757D02*
Y8785D01*
X8628Y8757D02*
Y8785D01*
X8607Y8772D02*
X8715D01*
X8619Y8757D02*
X8701D01*
X8448Y8698D02*
Y8785D01*
X8408Y8723D02*
Y8785D01*
X8428Y8703D02*
Y8785D01*
X8599Y8752D02*
X8619D01*
X8580Y8732D02*
X8619D01*
X8419Y8712D02*
X8619D01*
X8388Y8743D02*
Y8785D01*
X8399Y8732D02*
X8517D01*
X8803Y8642D02*
Y8697D01*
X8478Y8652D02*
X8619D01*
Y8637D02*
Y8757D01*
X8458Y8692D02*
X8619D01*
X8474Y8672D02*
X8619D01*
X8828Y8629D02*
Y8637D01*
X8808Y8629D02*
Y8637D01*
X8788Y8626D02*
Y8637D01*
X8731D02*
X8762D01*
X8768Y8630D02*
Y8637D01*
X8608Y8629D02*
Y8785D01*
X8588Y8629D02*
Y8738D01*
X8508Y8629D02*
Y8738D01*
X8468Y8682D02*
Y8785D01*
X8488Y8629D02*
Y8785D01*
X8568Y8629D02*
Y8726D01*
X8548Y8629D02*
Y8723D01*
X8528Y8629D02*
Y8726D01*
X8366Y8785D02*
X8490D01*
X8368Y8762D02*
Y8785D01*
X8366Y8763D02*
Y8785D01*
Y8772D02*
X8490D01*
X8379Y8752D02*
X8498D01*
X8374Y8757D02*
X8429Y8702D01*
X8071Y8670D02*
X8076D01*
X8039Y8756D02*
X8071D01*
X8039Y8752D02*
X8071D01*
X8039Y8732D02*
X8071D01*
Y8670D02*
Y8756D01*
X8039Y8670D02*
Y8756D01*
Y8712D02*
X8071D01*
X7913Y8696D02*
X7925D01*
X8039Y8692D02*
X8071D01*
X8039Y8672D02*
X8071D01*
X7925Y8670D02*
Y8696D01*
X7913Y8692D02*
X7925D01*
X7913Y8675D02*
Y8696D01*
X8063Y8657D02*
X8076Y8670D01*
X8068Y8663D02*
Y8756D01*
X8048Y8646D02*
Y8756D01*
X7925Y8670D02*
X8039D01*
X8028Y8646D02*
Y8670D01*
X8008Y8646D02*
Y8670D01*
X7913Y8652D02*
X8059D01*
X7943Y8646D02*
X8056D01*
X7988D02*
Y8670D01*
X7968Y8646D02*
Y8670D01*
X7913Y8645D02*
Y8675D01*
Y8672D02*
X7925D01*
X7913Y8645D02*
Y8675D01*
X8003Y8575D02*
Y8641D01*
X7948Y8646D02*
Y8670D01*
X7943Y8534D02*
Y8646D01*
X7913Y8532D02*
Y8645D01*
X7928Y8437D02*
Y8670D01*
X8768Y8549D02*
Y8625D01*
Y8473D02*
Y8549D01*
X8731Y8637D02*
X8762D01*
X8748Y8626D02*
Y8637D01*
X8848Y8328D02*
Y8332D01*
X8787Y8472D02*
X8800D01*
X8828Y8308D02*
Y8469D01*
X8756Y8312D02*
X8833D01*
X8706Y8637D02*
X8731D01*
X8728Y8629D02*
Y8637D01*
X8708Y8629D02*
Y8637D01*
X8619D02*
X8631D01*
X8706Y8628D02*
Y8637D01*
X8631Y8629D02*
Y8637D01*
X8628Y8629D02*
Y8637D01*
X8474Y8632D02*
X8631D01*
X8473Y8629D02*
X8631D01*
X8793Y8272D02*
X8849Y8328D01*
X8808Y8288D02*
Y8469D01*
X8788Y8268D02*
Y8472D01*
X8756Y8292D02*
X8813D01*
X8756Y8272D02*
X8793D01*
X8773Y8268D02*
X8789D01*
X8768D02*
Y8468D01*
X8756Y8272D02*
Y8470D01*
Y8266D02*
Y8272D01*
X8438Y8239D02*
Y8256D01*
Y8209D02*
Y8239D01*
Y8209D02*
Y8239D01*
X8418Y8256D02*
X8438D01*
X8418Y8240D02*
Y8256D01*
X7913Y8632D02*
X7943D01*
X7913Y8612D02*
X7943D01*
X7948Y8575D02*
X8003D01*
X7913Y8592D02*
X7943D01*
X7913Y8572D02*
X7943D01*
X7913Y8552D02*
X7943D01*
X7808Y8532D02*
X7943D01*
Y8504D02*
Y8534D01*
Y8504D02*
Y8534D01*
X7808Y8512D02*
X7943D01*
X7808Y8492D02*
X7943D01*
X7853Y8604D02*
X7908D01*
Y8437D02*
Y8532D01*
X7888Y8437D02*
Y8532D01*
X7853Y8537D02*
Y8604D01*
X7808Y8532D02*
X7913D01*
X7943Y8437D02*
Y8504D01*
X7868Y8437D02*
Y8532D01*
X7848Y8437D02*
Y8532D01*
X7808Y8472D02*
X7943D01*
X7808Y8452D02*
X7943D01*
X8418Y8252D02*
X8438D01*
X8418Y8210D02*
Y8240D01*
Y8210D02*
Y8240D01*
Y8232D02*
X8438D01*
X8418Y8212D02*
X8438D01*
X8418Y8192D02*
X8438D01*
X8418Y8172D02*
X8438D01*
X8418Y8152D02*
X8438D01*
X8418Y8132D02*
X8438D01*
X7828Y8437D02*
Y8532D01*
X7808Y8437D02*
Y8532D01*
X8274Y8195D02*
X8283Y8186D01*
X7808Y8437D02*
Y8532D01*
Y8437D02*
X7943D01*
X8274Y8192D02*
X8278D01*
X8274Y8172D02*
X8298D01*
X8274Y8152D02*
X8298D01*
X8274Y8132D02*
X8298D01*
X9308Y8126D02*
Y8134D01*
X9474Y7965D02*
Y7986D01*
X9480Y7958D02*
X9547D01*
X9474Y7972D02*
X9528D01*
X9474Y7965D02*
X9480Y7958D01*
X9288Y8057D02*
Y8125D01*
X9268Y8126D02*
Y8149D01*
X9222Y7948D02*
X9225Y7945D01*
X9208Y8126D02*
Y8209D01*
X9219Y7913D02*
X9225Y7919D01*
X9209Y7932D02*
X9223D01*
X9350Y7912D02*
X9368D01*
X9368Y7881D02*
Y7911D01*
X9353Y7926D02*
X9398Y7881D01*
X9340Y7892D02*
X9388D01*
X9460Y7796D02*
X9496D01*
X9460Y7769D02*
Y7796D01*
X9468Y7637D02*
Y7796D01*
X9388Y7881D02*
Y7891D01*
X9340Y7881D02*
X9398D01*
X9348D02*
Y7907D01*
X9340Y7769D02*
Y7881D01*
X9328Y7637D02*
Y7881D01*
X9208Y7888D02*
Y7931D01*
X9313Y7872D02*
X9340D01*
X9304Y7852D02*
X9340D01*
X9304Y7769D02*
Y7869D01*
X9308Y7637D02*
Y7870D01*
X9304Y7832D02*
X9340D01*
X9304Y7812D02*
X9340D01*
X9189Y7912D02*
X9218D01*
X9184Y7906D02*
X9214Y7936D01*
X9208Y7881D02*
Y7888D01*
Y7881D02*
Y7888D01*
X9143Y7896D02*
X9158D01*
X9140Y7892D02*
X9209D01*
X9023Y7932D02*
Y7941D01*
X9028Y7882D02*
Y7907D01*
X9023Y7912D02*
X9027D01*
X9148Y7882D02*
Y7896D01*
X9130Y7882D02*
X9148D01*
X9023Y7892D02*
X9037D01*
X9028Y7882D02*
X9047D01*
X9184Y7881D02*
X9208D01*
X9188D02*
Y7911D01*
X9184Y7769D02*
Y7881D01*
X9148Y7770D02*
Y7882D01*
X9168Y7637D02*
Y7897D01*
X9148Y7872D02*
X9184D01*
X9148Y7852D02*
X9184D01*
X9148Y7637D02*
Y7882D01*
Y7832D02*
X9184D01*
X9148Y7812D02*
X9184D01*
X9028Y7770D02*
Y7882D01*
X9023Y7854D02*
Y7932D01*
X9028Y7637D02*
Y7882D01*
X9023Y7872D02*
X9028D01*
X9023Y7824D02*
Y7854D01*
Y7852D02*
X9028D01*
X9023Y7832D02*
X9028D01*
X9023Y7824D02*
Y7854D01*
Y7812D02*
X9028D01*
X9023Y7711D02*
Y7824D01*
X9460Y7772D02*
X9608D01*
X9460Y7792D02*
X9496D01*
X9460Y7739D02*
Y7769D01*
X9304Y7792D02*
X9340D01*
X9304Y7772D02*
X9340D01*
X9460Y7739D02*
Y7769D01*
Y7752D02*
X9628D01*
X9340Y7739D02*
Y7769D01*
X9460Y7732D02*
X9496D01*
X9304Y7752D02*
X9340D01*
Y7739D02*
Y7769D01*
X9304Y7739D02*
Y7769D01*
Y7739D02*
Y7769D01*
X9184Y7739D02*
Y7769D01*
X9148Y7792D02*
X9184D01*
X9148Y7772D02*
X9184D01*
Y7739D02*
Y7769D01*
X9148Y7740D02*
Y7770D01*
X9304Y7732D02*
X9340D01*
X9148Y7752D02*
X9184D01*
X9148Y7740D02*
Y7770D01*
X9460Y7712D02*
X9496D01*
X9400Y7698D02*
X9455D01*
X9460Y7637D02*
Y7739D01*
X9304Y7712D02*
X9340D01*
X9345Y7698D02*
X9400D01*
X9460Y7692D02*
X9496D01*
X9460Y7672D02*
X9496D01*
X9460Y7652D02*
X9496D01*
X9304Y7692D02*
X9340D01*
X9460Y7637D02*
X9496D01*
X9340D02*
Y7739D01*
X9304Y7637D02*
Y7739D01*
X9184Y7637D02*
Y7739D01*
X9148Y7732D02*
X9184D01*
X9148Y7637D02*
Y7740D01*
X9304Y7672D02*
X9340D01*
X9304Y7652D02*
X9340D01*
X9304Y7637D02*
X9340D01*
X9244Y7698D02*
X9299D01*
X9189D02*
X9244D01*
X9023Y7792D02*
X9028D01*
Y7740D02*
Y7770D01*
Y7740D02*
Y7770D01*
X9023Y7772D02*
X9028D01*
X9023Y7752D02*
X9028D01*
X9023Y7732D02*
X9028D01*
X9148Y7712D02*
X9184D01*
X9148Y7692D02*
X9184D01*
X9148Y7672D02*
X9184D01*
X9088Y7699D02*
X9143D01*
X9033D02*
X9088D01*
X8963Y7783D02*
X9018D01*
X8963Y7716D02*
Y7783D01*
X9023Y7712D02*
X9028D01*
X8562Y7752D02*
X8573D01*
X8633Y7716D02*
Y7783D01*
X8927Y7692D02*
X9028D01*
X8927Y7711D02*
X9023D01*
X8927Y7672D02*
X9028D01*
X8573Y7711D02*
X8670D01*
X8477Y7692D02*
X8670D01*
X9028Y7637D02*
Y7740D01*
X9008Y7637D02*
Y7711D01*
X8988Y7637D02*
Y7711D01*
X8968Y7637D02*
Y7711D01*
X8948Y7637D02*
Y7711D01*
X9148Y7652D02*
X9184D01*
X9148Y7637D02*
X9184D01*
X8928D02*
Y7711D01*
X8927Y7652D02*
X9028D01*
X8927Y7637D02*
X9028D01*
X8927D02*
Y7711D01*
X8670Y7637D02*
Y7711D01*
X8668Y7637D02*
Y7711D01*
X8648Y7637D02*
Y7711D01*
X8628Y7637D02*
Y7711D01*
X8469Y7672D02*
X8670D01*
X8608Y7637D02*
Y7711D01*
X8588Y7637D02*
Y7711D01*
X8450Y7652D02*
X8670D01*
X8310Y7637D02*
X8670D01*
X8438Y8096D02*
Y8209D01*
Y8096D02*
X8466D01*
X8418Y8112D02*
X8438D01*
X8418Y8097D02*
Y8210D01*
X8467Y8051D02*
Y8094D01*
X8448Y8051D02*
Y8096D01*
X8443Y8051D02*
X8467D01*
X8275Y8032D02*
X8443D01*
X8413Y8012D02*
X8443D01*
X8408Y8022D02*
Y8097D01*
X8298D02*
Y8177D01*
X8388Y8022D02*
Y8097D01*
X8274Y8122D02*
Y8195D01*
X8298Y8097D02*
X8418D01*
X8368Y8022D02*
Y8097D01*
X8348Y8022D02*
Y8097D01*
X8328Y8022D02*
Y8097D01*
X8317Y8022D02*
X8413D01*
X8275Y8012D02*
X8317D01*
X8443Y8008D02*
Y8051D01*
X8428Y8008D02*
Y8256D01*
X8443Y7796D02*
Y7811D01*
X8413Y8008D02*
Y8022D01*
Y8008D02*
X8443D01*
X8428Y7789D02*
Y7811D01*
X8408Y7789D02*
Y7811D01*
X8388Y7789D02*
Y7811D01*
X8368Y7789D02*
Y7811D01*
X8348Y7789D02*
Y7811D01*
X8317Y7935D02*
Y8022D01*
X8308Y7935D02*
Y8097D01*
X8288Y7935D02*
Y8182D01*
X8275Y7992D02*
X8317D01*
X8275Y7936D02*
Y8050D01*
X8285Y7887D02*
X8328D01*
X8280Y7935D02*
X8317D01*
X8328Y7784D02*
Y7811D01*
X8275Y7972D02*
X8317D01*
X8280Y7883D02*
Y7935D01*
X8256Y8112D02*
X8298D01*
X8261Y8122D02*
X8274D01*
X8268Y8050D02*
Y8122D01*
X8237Y8092D02*
X8467D01*
X8217Y8072D02*
X8467D01*
X8197Y8052D02*
X8467D01*
X8275Y7952D02*
X8317D01*
X8195Y8050D02*
X8275D01*
X8184Y7936D02*
X8275D01*
X8184Y7932D02*
X8280D01*
X8184Y7912D02*
X8280D01*
X8248Y8050D02*
Y8103D01*
X8228Y8050D02*
Y8083D01*
X8195Y8050D02*
X8252Y8106D01*
X8268Y7904D02*
Y7936D01*
X8248Y7904D02*
Y7936D01*
X8228Y7904D02*
Y7936D01*
X8208Y8050D02*
Y8063D01*
Y7904D02*
Y7936D01*
X8275Y7892D02*
X8280D01*
X8188Y7904D02*
Y7936D01*
X8275Y7883D02*
Y7904D01*
X8184D02*
Y7936D01*
Y7904D02*
X8275D01*
Y7883D02*
X8280D01*
X8275Y7811D02*
X8443D01*
X8138Y7812D02*
X8151D01*
X7908Y7870D02*
Y7881D01*
X7889Y7870D02*
Y7900D01*
X7921Y7868D01*
X7889Y7892D02*
X7898D01*
X8151Y7790D02*
Y7824D01*
X8138Y7796D02*
Y7817D01*
X8148Y7754D02*
Y7822D01*
X7889Y7872D02*
X7918D01*
X7898Y7732D02*
Y7865D01*
X8535Y7725D02*
X8573Y7764D01*
X8493Y7789D02*
X8500Y7796D01*
X8573Y7711D02*
Y7764D01*
X8443Y7796D02*
X8500D01*
X8488Y7789D02*
Y7796D01*
X8348Y7789D02*
X8493D01*
X8542Y7732D02*
X8573D01*
X8476Y7714D02*
X8508D01*
X8477Y7712D02*
X8573D01*
X8468Y7789D02*
Y7796D01*
X8448Y7789D02*
Y7796D01*
X8308Y7765D02*
Y7811D01*
X8275Y7790D02*
Y7811D01*
X8288Y7754D02*
Y7811D01*
X8342Y7692D02*
X8360D01*
X8297Y7754D02*
X8322Y7778D01*
X8568Y7637D02*
Y7759D01*
X8548Y7637D02*
Y7739D01*
X8528Y7637D02*
Y7720D01*
X8508Y7637D02*
Y7714D01*
X8488Y7637D02*
Y7714D01*
X8468Y7637D02*
Y7670D01*
X8448Y7637D02*
Y7651D01*
X8428Y7637D02*
Y7644D01*
X8408Y7637D02*
Y7644D01*
X8368Y7637D02*
Y7670D01*
X8348Y7637D02*
Y7699D01*
X8328Y7637D02*
Y7679D01*
X8322Y7672D02*
X8368D01*
X8315Y7665D02*
X8360Y7710D01*
X8388Y7637D02*
Y7651D01*
X8310Y7652D02*
X8387D01*
X8310Y7637D02*
Y7661D01*
X8275Y7792D02*
X8495D01*
X8268Y7754D02*
Y7790D01*
X8248Y7754D02*
Y7790D01*
X8151D02*
X8275D01*
X8228Y7754D02*
Y7790D01*
X8208Y7754D02*
Y7790D01*
X8196Y7754D02*
X8297D01*
X8164Y7752D02*
X8196D01*
X8164Y7732D02*
X8196D01*
X8119Y7772D02*
X8315D01*
X8137Y7754D02*
X8164D01*
X8099Y7792D02*
X8151D01*
X8108Y7783D02*
Y7796D01*
X8128Y7763D02*
Y7796D01*
X8095D02*
X8138D01*
X8095D02*
X8133Y7758D01*
X8037Y7732D02*
X8050D01*
X8035Y7754D02*
X8050Y7739D01*
X8196Y7637D02*
Y7754D01*
X8188Y7637D02*
Y7790D01*
X8168Y7637D02*
Y7790D01*
X8164Y7712D02*
X8196D01*
X8164Y7637D02*
Y7754D01*
Y7692D02*
X8196D01*
X8164Y7672D02*
X8196D01*
X8164Y7652D02*
X8196D01*
X8035Y7712D02*
X8050D01*
X8164Y7637D02*
X8196D01*
X8031Y7692D02*
X8050D01*
X8048Y7637D02*
Y7741D01*
X8050Y7637D02*
Y7739D01*
X7898Y7732D02*
X8032D01*
X8023Y7672D02*
X8050D01*
X8011Y7652D02*
X8050D01*
X8028Y7637D02*
Y7685D01*
X8008Y7637D02*
Y7648D01*
X7999Y7637D02*
X8050D01*
D11*
X8898Y8112D02*
D03*
X7973Y7952D02*
D03*
X9558Y8627D02*
D03*
X9653Y8622D02*
D03*
X8668Y8042D02*
D03*
X8898Y8492D02*
D03*
X8903Y8332D02*
D03*
D14*
X8843Y7917D02*
X8963D01*
X9128Y8132D02*
X9138Y8122D01*
Y8057D02*
Y8122D01*
X9188Y7962D02*
Y8057D01*
X9158Y7932D02*
X9188Y7962D01*
X9088Y7932D02*
X9158D01*
X9083Y7927D02*
X9088Y7932D01*
X9083Y7817D02*
Y7927D01*
X9038Y8057D02*
Y8187D01*
X8668Y8032D02*
Y8187D01*
Y8042D02*
X8673Y8037D01*
X8908D01*
X9088Y8017D02*
Y8057D01*
X9043Y7977D02*
X9088Y8017D01*
X8783Y7977D02*
X9043D01*
X8753Y7932D02*
X8783Y7977D01*
X8753Y7917D02*
Y7932D01*
X8963Y7882D02*
X8973Y7872D01*
X9788Y8272D02*
Y8384D01*
Y8232D02*
Y8272D01*
X9348D02*
X9788D01*
X9438Y8624D02*
Y8672D01*
Y8582D02*
Y8624D01*
X8898Y8112D02*
X8978D01*
X8788D02*
X8898D01*
X8088Y8472D02*
Y8632D01*
Y8472D02*
X8130D01*
X8003D02*
X8088D01*
X8376D02*
X8405D01*
X8358Y8490D02*
X8376Y8472D01*
X8399Y8449D01*
X8436Y8412D01*
X9733Y7742D02*
X9768D01*
X9558Y7832D02*
X9598D01*
X9400D02*
X9558D01*
X8633Y7917D02*
X8753D01*
X8633Y7895D02*
Y7917D01*
X8138Y8532D02*
X8168D01*
X8308Y8212D02*
X8358D01*
X8148Y8222D02*
Y8282D01*
Y8222D02*
X8228D01*
X8090D02*
X8148D01*
X8358Y8281D02*
Y8292D01*
X8498D01*
X8223D02*
X8358D01*
X8148Y7892D02*
Y7973D01*
Y7872D02*
Y7892D01*
X8078D02*
X8148D01*
X8033D02*
X8078D01*
X7968Y7997D02*
X7973Y7992D01*
X7993Y7972D01*
X8033Y7932D01*
X7973Y7952D02*
Y7992D01*
X9653Y8622D02*
Y8752D01*
Y8507D02*
Y8622D01*
X10318Y8312D02*
Y8337D01*
Y8146D02*
Y8312D01*
X10203D02*
X10318D01*
X8017Y8252D02*
X8078D01*
Y8280D01*
X9288Y8332D02*
X9348Y8272D01*
X9288Y8332D02*
Y8435D01*
X8768Y8132D02*
Y8187D01*
Y8132D02*
X8788Y8112D01*
X8128Y8672D02*
Y8732D01*
X8088Y8632D02*
X8128Y8672D01*
X8358Y8490D02*
Y8595D01*
X8281Y8672D02*
X8358Y8595D01*
X8281Y8672D02*
Y8687D01*
X9483Y8532D02*
X9488Y8527D01*
Y8435D02*
Y8527D01*
X8405Y8472D02*
X8413Y8464D01*
X8436Y8412D02*
X8588D01*
X9138Y8352D02*
Y8435D01*
X9733Y7810D02*
Y7861D01*
X9712Y7882D02*
X9733Y7861D01*
X9448Y7882D02*
X9712D01*
X9338Y7992D02*
X9448Y7882D01*
X9338Y7992D02*
Y8057D01*
X9388D02*
Y8110D01*
X9368Y8130D02*
X9388Y8110D01*
X9438Y7952D02*
Y8057D01*
Y7952D02*
X9463Y7922D01*
X9763D01*
X9788Y7888D01*
Y7762D02*
Y7888D01*
X9768Y7742D02*
X9788Y7762D01*
X9598Y7832D02*
X9678Y7752D01*
X9723D01*
X9733Y7742D01*
Y7698D02*
Y7742D01*
X9538Y8012D02*
Y8057D01*
Y8012D02*
X9558Y7992D01*
X9706D01*
X9748Y8034D01*
X8226Y8132D02*
Y8177D01*
X8126Y8032D02*
X8226Y8132D01*
X8078Y8032D02*
X8126D01*
X8078Y7980D02*
Y8032D01*
X8503Y7847D02*
Y7868D01*
X8213Y7847D02*
X8503D01*
X8138Y8532D02*
Y8576D01*
X8168Y8532D02*
X8188Y8512D01*
Y8412D02*
Y8512D01*
Y8412D02*
X8228Y8372D01*
X8285D01*
X8348Y8732D02*
X8428Y8652D01*
X8278Y8732D02*
X8348D01*
X8243Y8767D02*
X8278Y8732D01*
X9968Y8012D02*
X10056D01*
X8078Y8168D02*
Y8210D01*
X8090Y8222D01*
X8228D02*
X8263Y8257D01*
X8148Y8282D02*
X8198Y8332D01*
X8298D01*
X8328Y8362D01*
Y8532D01*
X8308Y8552D02*
X8328Y8532D01*
X8273Y8552D02*
X8308D01*
X8273D02*
Y8575D01*
X8033Y7892D02*
Y7932D01*
X8168Y7993D02*
X8213D01*
X8148Y7973D02*
X8168Y7993D01*
X8128Y7852D02*
X8148Y7872D01*
X8078Y7852D02*
X8128D01*
X8078D02*
Y7868D01*
X9588Y8435D02*
Y8617D01*
X9568Y8637D02*
X9588Y8617D01*
X9438Y8382D02*
Y8435D01*
Y8382D02*
X9448Y8372D01*
X9648D01*
X9708Y8432D01*
X10148Y8228D02*
X10204Y8172D01*
Y8130D02*
Y8172D01*
X10500Y8019D02*
Y8032D01*
X10538D01*
X10548Y8042D01*
Y8267D01*
X10588Y8307D01*
X10823D01*
X10203Y8304D02*
Y8312D01*
X10648Y8107D02*
Y8130D01*
Y8107D02*
X10823D01*
X10352Y8112D02*
X10500D01*
Y8131D01*
X10318Y8146D02*
X10352Y8112D01*
Y8130D01*
X9388Y8435D02*
Y8497D01*
X9318Y8567D02*
X9388Y8497D01*
X10648Y7932D02*
Y8018D01*
X9338Y8342D02*
Y8435D01*
Y8342D02*
X9368Y8312D01*
X9038Y8372D02*
Y8435D01*
X8998Y8332D02*
X9038Y8372D01*
X8903Y8332D02*
X8998D01*
X8818Y8187D02*
Y8247D01*
X8903Y8332D01*
X8898Y8492D02*
X8978D01*
X8988Y8482D01*
Y8435D02*
Y8482D01*
X8818Y8512D02*
Y8549D01*
Y8512D02*
X8878D01*
X8898Y8492D01*
X9638D02*
X9653Y8507D01*
X9638Y8435D02*
Y8492D01*
X9553Y8752D02*
X9568Y8737D01*
Y8637D02*
Y8737D01*
X9558Y8627D02*
X9568Y8637D01*
X7868Y8368D02*
X7948D01*
X7968Y8348D01*
Y7997D02*
Y8348D01*
X8273Y8463D02*
Y8512D01*
X8226D02*
X8273D01*
X8208Y8530D02*
X8226Y8512D01*
X8208Y8530D02*
Y8772D01*
X8188Y8792D02*
X8208Y8772D01*
X8002Y8792D02*
X8188D01*
X7982Y8772D02*
X8002Y8792D01*
X7982Y8732D02*
Y8772D01*
X7853Y8716D02*
Y8732D01*
X7982D01*
X8498Y8280D02*
Y8292D01*
X8188Y8257D02*
X8223Y8292D01*
X8358Y8169D02*
Y8212D01*
X8263Y8257D02*
X8308Y8212D01*
X10056Y8012D02*
Y8019D01*
Y8012D02*
X10076Y8032D01*
X10204D01*
Y8018D02*
Y8032D01*
X9588Y8057D02*
Y8132D01*
X8503Y7980D02*
Y8107D01*
X8498Y8112D02*
X8503Y8107D01*
X8498Y8112D02*
Y8168D01*
X8495Y7972D02*
X8503Y7980D01*
X8365Y7972D02*
X8495D01*
X8365Y7967D02*
Y7972D01*
X9238Y7982D02*
Y8057D01*
Y7982D02*
X9288Y7932D01*
X9244Y7810D02*
Y7888D01*
X9288Y7932D01*
X9400Y7810D02*
Y7832D01*
X8003Y8463D02*
Y8472D01*
X8130D02*
X8138Y8464D01*
Y8332D02*
Y8464D01*
X8988Y8057D02*
Y8102D01*
X8978Y8112D02*
X8988Y8102D01*
X10356Y8257D02*
Y8424D01*
X9368Y8672D02*
X9438D01*
X9538Y8435D02*
Y8532D01*
X9498Y8572D02*
X9538Y8532D01*
X9448Y8572D02*
X9498D01*
X9438Y8582D02*
X9448Y8572D01*
X7868Y7972D02*
Y8039D01*
Y7972D02*
X8107Y7733D01*
Y7692D02*
Y7733D01*
X8403Y7887D02*
Y7912D01*
X8423D01*
X8443Y7932D01*
X9088Y8352D02*
Y8435D01*
D15*
X9988Y8480D02*
X10130Y8338D01*
X10203Y8412D01*
X10056Y8265D02*
X10130Y8338D01*
X9908Y8172D02*
Y8452D01*
Y8131D02*
Y8172D01*
X9298D02*
X9908D01*
X9238Y8732D02*
X9438D01*
X9168D02*
X9238D01*
X8668Y8592D02*
Y8675D01*
Y8549D02*
Y8592D01*
X8413D02*
X8668D01*
X8686Y8532D02*
X8718D01*
X9238Y8435D02*
Y8732D01*
Y8232D02*
Y8435D01*
X8718Y8532D02*
Y8549D01*
Y8272D02*
Y8532D01*
Y8187D02*
Y8272D01*
X8568D02*
X8718D01*
X9908Y8062D02*
X9938D01*
X9908Y8019D02*
Y8062D01*
Y7810D02*
Y8019D01*
X10425Y8479D02*
X10598Y8652D01*
X10408Y8462D02*
X10425Y8479D01*
X10768Y8462D02*
X10823Y8407D01*
X10888Y8342D01*
X10378Y8526D02*
X10425Y8479D01*
X9288Y8057D02*
Y8132D01*
Y8007D02*
Y8057D01*
X10198Y7874D02*
Y7942D01*
Y7812D02*
Y7874D01*
Y7772D02*
Y7812D01*
X10068D02*
X10198D01*
X9908Y7652D02*
Y7698D01*
X9931Y7675D02*
X10068Y7812D01*
X9908Y7652D02*
X9931Y7675D01*
X9888Y7632D02*
X9908Y7652D01*
X9828Y7632D02*
X9888D01*
X9578D02*
X9828D01*
Y7892D01*
X9341Y7712D02*
Y7954D01*
X9244Y7698D02*
Y7712D01*
X9188Y8435D02*
Y8512D01*
Y8232D02*
Y8435D01*
X8963Y7772D02*
Y7783D01*
Y7732D02*
Y7772D01*
X8798D02*
X8963D01*
X8633D02*
X8798D01*
X8633D02*
Y7783D01*
Y7677D02*
Y7772D01*
X9341Y7712D02*
X9400D01*
X9244D02*
X9341D01*
X9108D02*
X9244D01*
X8798Y7752D02*
Y7772D01*
X8568Y7812D02*
Y8272D01*
X8508Y7752D02*
X8568Y7812D01*
X8348Y7752D02*
X8508D01*
X8288Y7692D02*
X8348Y7752D01*
X8253Y7692D02*
X8288D01*
X9152Y8752D02*
X9168Y8735D01*
X8748Y8752D02*
X9152D01*
X8728Y8732D02*
X8748Y8752D01*
X8728Y8697D02*
Y8732D01*
X8690Y8697D02*
X8728D01*
X10048Y8632D02*
Y8662D01*
X10008Y8632D02*
X10048D01*
X9988Y8612D02*
X10008Y8632D01*
X9988Y8480D02*
Y8612D01*
X9638Y8057D02*
Y8072D01*
X9898D01*
X9908Y8062D01*
X9953Y8392D02*
Y8752D01*
Y8392D02*
X9968Y8377D01*
Y8092D02*
Y8377D01*
X9938Y8062D02*
X9968Y8092D01*
X9088Y7732D02*
X9108Y7712D01*
X9558Y7652D02*
Y7686D01*
Y7652D02*
X9578Y7632D01*
X9288Y8007D02*
X9341Y7954D01*
X9488Y7972D02*
Y8057D01*
Y7972D02*
X9508Y7952D01*
X9788D01*
X9828Y7892D01*
X10352Y7972D02*
Y8018D01*
X10322Y7942D02*
X10352Y7972D01*
X10198Y7942D02*
X10322D01*
X8318Y8767D02*
X8403D01*
X8408Y8772D01*
X8468Y8712D01*
X8483D01*
X8273Y7887D02*
X8328D01*
X10828Y7727D02*
Y7932D01*
X10888Y7992D01*
Y8342D01*
X7853Y8604D02*
X7937D01*
X7965Y8575D01*
X9238Y8232D02*
X9298Y8172D01*
X9188Y8232D02*
X9288Y8132D01*
X8768Y8549D02*
Y8697D01*
X9068D01*
X9168Y8532D02*
Y8652D01*
X9113D02*
X9168D01*
X9068Y8697D02*
X9113Y8652D01*
X9168Y8532D02*
X9188Y8512D01*
X7965Y8575D02*
X8003D01*
X10768Y8552D02*
X10823Y8607D01*
X10768Y8462D02*
Y8552D01*
X10048Y8526D02*
X10378D01*
X10048D02*
Y8538D01*
X10393Y8337D02*
Y8357D01*
X10408Y8372D01*
Y8462D01*
X10243Y7727D02*
X10828D01*
X10198Y7772D02*
X10243Y7727D01*
X8588Y7632D02*
X8633Y7677D01*
X7998Y7632D02*
X8588D01*
X7898Y7732D02*
X7998Y7632D01*
X9400Y7686D02*
Y7712D01*
Y7686D02*
X9558D01*
X8963Y7732D02*
X9088D01*
Y7699D02*
Y7732D01*
X9788Y8496D02*
X9793Y8492D01*
X9868D01*
X9908Y8452D01*
X10056Y8131D02*
Y8265D01*
X10203Y8412D02*
Y8416D01*
X9788Y8496D02*
Y8687D01*
X9853Y8752D01*
X10198Y8662D02*
X10208Y8672D01*
X10378D01*
X10048Y8662D02*
X10198D01*
X9438Y8732D02*
Y8736D01*
X9168Y8732D02*
Y8735D01*
X8413Y8576D02*
Y8592D01*
X8668Y8675D02*
X8690Y8697D01*
X8668Y8549D02*
X8686Y8532D01*
D17*
X10563Y7868D02*
X10568Y7866D01*
X10572Y7861D01*
X10573Y7852D01*
Y7847D01*
X10572Y7839D01*
X10568Y7834D01*
X10563Y7832D01*
X10560D01*
X10555Y7834D01*
X10551Y7839D01*
X10550Y7847D01*
Y7852D01*
X10551Y7861D01*
X10555Y7866D01*
X10560Y7868D01*
X10563D01*
X10519Y7856D02*
X10521Y7851D01*
X10524Y7847D01*
X10529Y7846D01*
X10531D01*
X10536Y7847D01*
X10540Y7851D01*
X10541Y7856D01*
Y7858D01*
X10540Y7863D01*
X10536Y7866D01*
X10531Y7868D01*
X10529D01*
X10524Y7866D01*
X10521Y7863D01*
X10519Y7856D01*
Y7847D01*
X10521Y7839D01*
X10524Y7834D01*
X10529Y7832D01*
X10533D01*
X10538Y7834D01*
X10540Y7837D01*
X10499Y7868D02*
X10504Y7866D01*
X10508Y7861D01*
X10509Y7852D01*
Y7847D01*
X10508Y7839D01*
X10504Y7834D01*
X10499Y7832D01*
X10496D01*
X10491Y7834D01*
X10487Y7839D01*
X10485Y7847D01*
Y7852D01*
X10487Y7861D01*
X10491Y7866D01*
X10496Y7868D01*
X10499D01*
X10477Y7847D02*
X10446D01*
X10426Y7868D02*
X10431Y7866D01*
X10434Y7861D01*
X10436Y7852D01*
Y7847D01*
X10434Y7839D01*
X10431Y7834D01*
X10426Y7832D01*
X10422D01*
X10417Y7834D01*
X10414Y7839D01*
X10412Y7847D01*
Y7852D01*
X10414Y7861D01*
X10417Y7866D01*
X10422Y7868D01*
X10426D01*
X10387D02*
X10404Y7844D01*
X10378D01*
X10387Y7868D02*
Y7832D01*
X10348Y7868D02*
X10365Y7832D01*
X10372Y7868D02*
X10348D01*
X10338Y7859D02*
Y7861D01*
X10336Y7864D01*
X10335Y7866D01*
X10331Y7868D01*
X10324D01*
X10321Y7866D01*
X10319Y7864D01*
X10317Y7861D01*
Y7858D01*
X10319Y7854D01*
X10323Y7849D01*
X10340Y7832D01*
X10316D01*
X7853Y7923D02*
Y7887D01*
Y7923D02*
X7838D01*
X7833Y7921D01*
X7831Y7919D01*
X7830Y7916D01*
Y7913D01*
X7831Y7909D01*
X7833Y7907D01*
X7838Y7906D01*
X7853D02*
X7838D01*
X7833Y7904D01*
X7831Y7902D01*
X7830Y7899D01*
Y7894D01*
X7831Y7890D01*
X7833Y7889D01*
X7838Y7887D01*
X7853D01*
X7821Y7923D02*
Y7887D01*
X7801D01*
D18*
X11443Y5515D02*
X11438Y5511D01*
X11443Y5507D01*
X11447Y5511D01*
X11443Y5515D01*
X11531Y5575D02*
X11527Y5584D01*
X11518Y5593D01*
X11510Y5597D01*
X11492D01*
X11484Y5593D01*
X11475Y5584D01*
X11471Y5575D01*
X11467Y5563D01*
Y5541D01*
X11471Y5528D01*
X11475Y5520D01*
X11484Y5511D01*
X11492Y5507D01*
X11510D01*
X11518Y5511D01*
X11527Y5520D01*
X11531Y5528D01*
Y5541D01*
X11510D02*
X11531D01*
X11552Y5597D02*
Y5507D01*
Y5597D02*
X11590D01*
X11603Y5593D01*
X11607Y5588D01*
X11612Y5580D01*
Y5571D01*
X11607Y5563D01*
X11603Y5558D01*
X11590Y5554D01*
X11552D02*
X11590D01*
X11603Y5550D01*
X11607Y5545D01*
X11612Y5537D01*
Y5524D01*
X11607Y5515D01*
X11603Y5511D01*
X11590Y5507D01*
X11552D01*
X11632Y5597D02*
Y5507D01*
X11683D01*
D19*
X9953Y8752D02*
D03*
X9853D02*
D03*
X9753D02*
D03*
X9653D02*
D03*
X10823Y8607D02*
D03*
Y8507D02*
D03*
Y8407D02*
D03*
Y8307D02*
D03*
Y8207D02*
D03*
Y8007D02*
D03*
Y8107D02*
D03*
X9288Y7932D02*
D03*
X9088D02*
D03*
D20*
X9553Y8752D02*
D03*
X10823Y8707D02*
D03*
D21*
X7898Y7732D02*
D03*
D22*
X10598Y8652D02*
D03*
X10828Y7727D02*
D03*
D23*
X8418Y7702D02*
D03*
X10908Y8767D02*
D03*
X8548Y8782D02*
D03*
D24*
X9318Y8567D02*
D03*
X9018D02*
D03*
D25*
X10198Y7874D02*
D03*
D26*
Y8662D02*
D03*
D27*
X9128Y8132D02*
D03*
X8903Y7917D02*
D03*
X8908Y8037D02*
D03*
X9038Y8187D02*
D03*
X8017Y8252D02*
D03*
X9483Y8532D02*
D03*
X8588Y8412D02*
D03*
X9138Y8352D02*
D03*
X9368Y8130D02*
D03*
X9748Y8034D02*
D03*
X8285Y8372D02*
D03*
X8428Y8652D02*
D03*
X9968Y8012D02*
D03*
X8408Y8772D02*
D03*
X7938Y8602D02*
D03*
X8483Y8712D02*
D03*
X8273Y7887D02*
D03*
X9708Y8432D02*
D03*
X10148Y8228D02*
D03*
X9368Y8312D02*
D03*
X10648Y7932D02*
D03*
X9588Y8132D02*
D03*
X8138Y8332D02*
D03*
X10356Y8424D02*
D03*
X9368Y8672D02*
D03*
X9788Y8232D02*
D03*
X8443Y7932D02*
D03*
X9088Y8352D02*
D03*
D28*
X8690Y8697D02*
D03*
X8803D02*
D03*
D29*
X10648Y8130D02*
D03*
X9400Y7810D02*
D03*
Y7698D02*
D03*
X10352Y8130D02*
D03*
Y8018D02*
D03*
X10648D02*
D03*
X9733Y7810D02*
D03*
Y7698D02*
D03*
X10203Y8304D02*
D03*
Y8416D02*
D03*
X10500Y8019D02*
D03*
Y8131D02*
D03*
X10048Y8538D02*
D03*
X9168Y8623D02*
D03*
X10056Y8131D02*
D03*
X7853Y8716D02*
D03*
Y8604D02*
D03*
X9168Y8735D02*
D03*
X9244Y7698D02*
D03*
Y7810D02*
D03*
X10048Y8650D02*
D03*
X9088Y7811D02*
D03*
Y7699D02*
D03*
X8633Y7783D02*
D03*
Y7895D02*
D03*
X8963Y7783D02*
D03*
Y7895D02*
D03*
X8138Y8464D02*
D03*
Y8576D02*
D03*
X9908Y8019D02*
D03*
Y8131D02*
D03*
X9438Y8624D02*
D03*
Y8736D02*
D03*
X8003Y8575D02*
D03*
Y8463D02*
D03*
X8078Y7980D02*
D03*
Y7868D02*
D03*
Y8280D02*
D03*
Y8168D02*
D03*
X8498Y8280D02*
D03*
Y8168D02*
D03*
X8273Y8575D02*
D03*
Y8463D02*
D03*
X8358Y8169D02*
D03*
Y8281D02*
D03*
X10056Y8019D02*
D03*
X10204Y8018D02*
D03*
X8413Y8576D02*
D03*
Y8464D02*
D03*
X9788Y8496D02*
D03*
Y8384D02*
D03*
X8503Y7868D02*
D03*
Y7980D02*
D03*
X9908Y7698D02*
D03*
Y7810D02*
D03*
D30*
X7868Y8368D02*
D03*
Y8257D02*
D03*
Y8147D02*
D03*
Y8039D02*
D03*
D31*
X10318Y8337D02*
D03*
X10393D02*
D03*
X8403Y7887D02*
D03*
X8328D02*
D03*
X8188Y8257D02*
D03*
X8263D02*
D03*
X8318Y8767D02*
D03*
X8243D02*
D03*
D32*
X10356Y8257D02*
D03*
X8365Y7967D02*
D03*
X8226Y8177D02*
D03*
X8281Y8687D02*
D03*
D33*
X10378Y8526D02*
D03*
X8213Y7993D02*
D03*
Y7847D02*
D03*
X10378Y8672D02*
D03*
X9558Y7686D02*
D03*
Y7832D02*
D03*
D34*
X10204Y8130D02*
D03*
D35*
X8818Y8187D02*
D03*
D36*
Y8549D02*
D03*
X8668Y8187D02*
D03*
X8718Y8549D02*
D03*
X8668D02*
D03*
X8768D02*
D03*
X8718Y8187D02*
D03*
X8768D02*
D03*
D37*
X7982Y8732D02*
D03*
X8128D02*
D03*
X8253Y7692D02*
D03*
X8107D02*
D03*
D38*
X9188Y8057D02*
D03*
X9538D02*
D03*
X9488D02*
D03*
X9438D02*
D03*
X9388D02*
D03*
X9338D02*
D03*
X9238D02*
D03*
X9138D02*
D03*
X9088D02*
D03*
X8988D02*
D03*
X9538Y8435D02*
D03*
X9388D02*
D03*
X9338D02*
D03*
X9288D02*
D03*
X9238D02*
D03*
X9138D02*
D03*
X9088D02*
D03*
X9488D02*
D03*
X9588Y8057D02*
D03*
Y8435D02*
D03*
X9638D02*
D03*
X9038Y8057D02*
D03*
X9438Y8435D02*
D03*
X8988D02*
D03*
X9038D02*
D03*
X9188D02*
D03*
X9288Y8057D02*
D03*
D39*
X9638D02*
D03*
D40*
X8798Y7752D02*
D03*
D41*
X8843Y7917D02*
D03*
X8753D02*
D03*
M02*
