%FSLAX23Y23*%
%MOIN*%
G70*
G01*
G75*
%ADD10C,0.010*%
%ADD11C,0.050*%
%ADD12R,0.157X0.079*%
%ADD13R,0.100X0.080*%
%ADD14C,0.012*%
%ADD15C,0.015*%
%ADD16C,0.008*%
%ADD17C,0.006*%
%ADD18C,0.009*%
%ADD19C,0.070*%
%ADD20R,0.070X0.070*%
%ADD21C,0.217*%
%ADD22C,0.217*%
%ADD23C,0.058*%
%ADD24C,0.100*%
%ADD25C,0.118*%
%ADD26R,0.118X0.118*%
%ADD27C,0.040*%
%ADD28R,0.083X0.060*%
%ADD29R,0.060X0.083*%
%ADD30R,0.157X0.079*%
%ADD31R,0.036X0.036*%
%ADD32R,0.036X0.050*%
%ADD33R,0.064X0.054*%
%ADD34R,0.060X0.083*%
%ADD35R,0.031X0.102*%
%ADD36O,0.031X0.102*%
%ADD37R,0.054X0.064*%
%ADD38O,0.031X0.087*%
%ADD39R,0.031X0.087*%
%ADD40R,0.197X0.244*%
%ADD41R,0.060X0.050*%
%ADD42C,0.016*%
%ADD43C,0.079*%
%ADD44C,0.010*%
%ADD45C,0.016*%
%ADD46C,0.039*%
%ADD47C,0.008*%
%ADD48R,0.591X0.354*%
%ADD49C,0.008*%
%ADD50C,0.003*%
%ADD51C,0.005*%
%ADD52R,0.165X0.087*%
%ADD53R,0.108X0.088*%
%ADD54C,0.078*%
%ADD55R,0.078X0.078*%
%ADD56C,0.225*%
%ADD57C,0.225*%
%ADD58C,0.066*%
%ADD59C,0.108*%
%ADD60C,0.126*%
%ADD61R,0.126X0.126*%
%ADD62R,0.091X0.068*%
%ADD63R,0.068X0.091*%
%ADD64R,0.165X0.087*%
%ADD65R,0.044X0.044*%
%ADD66R,0.044X0.058*%
%ADD67R,0.072X0.062*%
%ADD68R,0.068X0.091*%
%ADD69R,0.039X0.110*%
%ADD70O,0.039X0.110*%
%ADD71R,0.062X0.072*%
%ADD72O,0.039X0.095*%
%ADD73R,0.039X0.095*%
%ADD74R,0.205X0.252*%
%ADD75R,0.068X0.058*%
D18*
X11443Y5515D02*
X11438Y5511D01*
X11443Y5507D01*
X11447Y5511D01*
X11443Y5515D01*
X11531Y5575D02*
X11527Y5584D01*
X11518Y5593D01*
X11510Y5597D01*
X11492D01*
X11484Y5593D01*
X11475Y5584D01*
X11471Y5575D01*
X11467Y5563D01*
Y5541D01*
X11471Y5528D01*
X11475Y5520D01*
X11484Y5511D01*
X11492Y5507D01*
X11510D01*
X11518Y5511D01*
X11527Y5520D01*
X11531Y5528D01*
Y5541D01*
X11510D02*
X11531D01*
X11552Y5597D02*
Y5507D01*
Y5597D02*
X11590D01*
X11603Y5593D01*
X11607Y5588D01*
X11612Y5580D01*
Y5571D01*
X11607Y5563D01*
X11603Y5558D01*
X11590Y5554D01*
X11552D02*
X11590D01*
X11603Y5550D01*
X11607Y5545D01*
X11612Y5537D01*
Y5524D01*
X11607Y5515D01*
X11603Y5511D01*
X11590Y5507D01*
X11552D01*
X11692Y5584D02*
X11683Y5593D01*
X11670Y5597D01*
X11653D01*
X11640Y5593D01*
X11632Y5584D01*
Y5575D01*
X11636Y5567D01*
X11640Y5563D01*
X11649Y5558D01*
X11675Y5550D01*
X11683Y5545D01*
X11687Y5541D01*
X11692Y5533D01*
Y5520D01*
X11683Y5511D01*
X11670Y5507D01*
X11653D01*
X11640Y5511D01*
X11632Y5520D01*
D23*
X8898Y8112D02*
D03*
X7973Y7952D02*
D03*
X9558Y8627D02*
D03*
X9653Y8622D02*
D03*
X8668Y8042D02*
D03*
X8898Y8492D02*
D03*
X8903Y8332D02*
D03*
D54*
X9953Y8752D02*
D03*
X9853D02*
D03*
X9753D02*
D03*
X9653D02*
D03*
X10823Y8607D02*
D03*
Y8507D02*
D03*
Y8407D02*
D03*
Y8307D02*
D03*
Y8207D02*
D03*
Y8007D02*
D03*
Y8107D02*
D03*
X9288Y7932D02*
D03*
X9088D02*
D03*
D55*
X9553Y8752D02*
D03*
X10823Y8707D02*
D03*
D56*
X7898Y7732D02*
D03*
D57*
X10598Y8652D02*
D03*
X10828Y7727D02*
D03*
D58*
X8418Y7702D02*
D03*
X10908Y8767D02*
D03*
X8548Y8782D02*
D03*
D59*
X9318Y8567D02*
D03*
X9018D02*
D03*
D60*
X10198Y7874D02*
D03*
D61*
Y8662D02*
D03*
D62*
X8690Y8697D02*
D03*
X8803D02*
D03*
D63*
X10648Y8130D02*
D03*
X9400Y7810D02*
D03*
Y7698D02*
D03*
X10352Y8130D02*
D03*
Y8018D02*
D03*
X10648D02*
D03*
X9733Y7810D02*
D03*
Y7698D02*
D03*
X10203Y8304D02*
D03*
Y8416D02*
D03*
X10500Y8019D02*
D03*
Y8131D02*
D03*
X10048Y8538D02*
D03*
X9168Y8623D02*
D03*
X10056Y8131D02*
D03*
X7853Y8716D02*
D03*
Y8604D02*
D03*
X9168Y8735D02*
D03*
X9244Y7698D02*
D03*
Y7810D02*
D03*
X10048Y8650D02*
D03*
X9088Y7811D02*
D03*
Y7699D02*
D03*
X8633Y7783D02*
D03*
Y7895D02*
D03*
X8963Y7783D02*
D03*
Y7895D02*
D03*
X8138Y8464D02*
D03*
Y8576D02*
D03*
X9908Y8019D02*
D03*
Y8131D02*
D03*
X9438Y8624D02*
D03*
Y8736D02*
D03*
X8003Y8575D02*
D03*
Y8463D02*
D03*
X8078Y7980D02*
D03*
Y7868D02*
D03*
Y8280D02*
D03*
Y8168D02*
D03*
X8498Y8280D02*
D03*
Y8168D02*
D03*
X8273Y8575D02*
D03*
Y8463D02*
D03*
X8358Y8169D02*
D03*
Y8281D02*
D03*
X10056Y8019D02*
D03*
X10204Y8018D02*
D03*
X8413Y8576D02*
D03*
Y8464D02*
D03*
X9788Y8496D02*
D03*
Y8384D02*
D03*
X8503Y7868D02*
D03*
Y7980D02*
D03*
X9908Y7698D02*
D03*
Y7810D02*
D03*
D64*
X7868Y8368D02*
D03*
Y8257D02*
D03*
Y8147D02*
D03*
Y8039D02*
D03*
D65*
X10318Y8337D02*
D03*
X10393D02*
D03*
X8403Y7887D02*
D03*
X8328D02*
D03*
X8188Y8257D02*
D03*
X8263D02*
D03*
X8318Y8767D02*
D03*
X8243D02*
D03*
D66*
X10356Y8257D02*
D03*
X8365Y7967D02*
D03*
X8226Y8177D02*
D03*
X8281Y8687D02*
D03*
D67*
X10378Y8526D02*
D03*
X8213Y7993D02*
D03*
Y7847D02*
D03*
X10378Y8672D02*
D03*
X9558Y7686D02*
D03*
Y7832D02*
D03*
D68*
X10204Y8130D02*
D03*
D69*
X8818Y8187D02*
D03*
D70*
Y8549D02*
D03*
X8668Y8187D02*
D03*
X8718Y8549D02*
D03*
X8668D02*
D03*
X8768D02*
D03*
X8718Y8187D02*
D03*
X8768D02*
D03*
D71*
X7982Y8732D02*
D03*
X8128D02*
D03*
X8253Y7692D02*
D03*
X8107D02*
D03*
D72*
X9188Y8057D02*
D03*
X9538D02*
D03*
X9488D02*
D03*
X9438D02*
D03*
X9388D02*
D03*
X9338D02*
D03*
X9238D02*
D03*
X9138D02*
D03*
X9088D02*
D03*
X8988D02*
D03*
X9538Y8435D02*
D03*
X9388D02*
D03*
X9338D02*
D03*
X9288D02*
D03*
X9238D02*
D03*
X9138D02*
D03*
X9088D02*
D03*
X9488D02*
D03*
X9588Y8057D02*
D03*
Y8435D02*
D03*
X9638D02*
D03*
X9038Y8057D02*
D03*
X9438Y8435D02*
D03*
X8988D02*
D03*
X9038D02*
D03*
X9188D02*
D03*
X9288Y8057D02*
D03*
D73*
X9638D02*
D03*
D74*
X8798Y7752D02*
D03*
D75*
X8843Y7917D02*
D03*
X8753D02*
D03*
M02*
